<svg width="436" height="934" viewBox="0 0 436 934" fill="none" xmlns="http://www.w3.org/2000/svg">
<g filter="url(#filter0_d_52_3787)">
<g clip-path="url(#clip0_52_3787)">
<path d="M1347.8 541.499C1350.79 686.176 1320.2 817.616 1244.86 935.26C1087.1 1181.17 858.477 1296.21 569.618 1266.38C287.287 1237.11 91.8549 1079.01 -16.3039 816.498C-51.9798 725.858 -67.0752 628.428 -60.4998 531.245C-60.1463 523.61 -56.8756 516.403 -51.3623 511.109C-18.1687 485.567 15.0248 459.465 50.0832 436.533C124.675 385.821 199.268 391.415 266.96 450.33C306.681 484.635 346.214 518.939 386.308 552.499C479.251 632.215 595.651 679.472 717.87 687.108C861.833 696.99 1004.68 690.651 1141.18 638.634C1194.33 618.498 1244.12 589.973 1295.59 565.549C1310.88 557.905 1327.29 550.821 1347.8 541.499ZM580.061 792.261C526.168 756.837 470.784 792.261 462.578 855.837C460.051 875.142 461.189 894.75 465.935 913.633C479.921 969.565 536.798 985.785 579.875 946.26C582.174 944.628 584.607 943.194 587.148 941.972C592.182 997.904 575.772 1004.99 482.532 990.26C475.446 1025.87 475.446 1028.85 509.385 1033.14C534.173 1036.37 559.297 1035.99 583.977 1032.02C598.664 1030.25 612.194 1023.16 622.018 1012.11C631.842 1001.05 637.281 986.779 637.311 971.989C639.176 910.464 637.311 848.938 637.311 783.125L580.061 792.261ZM156.377 930.972V858.447H228.359V822.65H155.818V756.278H247.38V722.346H103.603V966.209H255.025V930.972H156.377ZM275.352 785.922C275.352 834.21 273.114 881.006 275.352 927.616C275.896 935.376 278.273 942.897 282.286 949.561C286.3 956.226 291.837 961.844 298.442 965.956C305.048 970.068 312.534 972.555 320.287 973.215C328.04 973.875 335.839 972.688 343.044 969.751C358.509 963.235 373.31 955.244 387.24 945.887L390.597 966.768H438.149V786.481H388.546C388.546 821.345 388.546 854.718 388.546 888.091C387.642 898.987 382.951 909.223 375.287 917.022C367.622 924.821 357.468 929.69 346.587 930.785C320.48 928.175 326.448 907.294 326.075 891.074C326.075 856.21 326.075 821.532 326.075 785.922H275.352ZM853.442 966.955H902.113C902.113 933.023 902.113 900.209 902.113 867.582C902.586 856.271 907.035 845.49 914.675 837.135C922.316 828.78 932.659 823.387 943.885 821.904C971.484 823.582 964.584 845.955 966.076 862.735C966.076 869.074 966.076 875.226 966.076 881.379V966.582H1016.24C1016.24 923.328 1016.24 881.192 1016.24 839.057C1017.75 828.499 1015.94 817.732 1011.06 808.246C1006.19 798.76 998.48 791.024 989.013 786.108C978.325 781.018 966.41 779.069 954.657 780.488C942.903 781.908 931.795 786.637 922.626 794.125C916.099 798.786 910.318 804.752 903.978 811.091L901.74 786.481H853.255L853.442 966.955ZM826.029 887.345C824.537 871.311 823.791 859.006 821.927 846.887C816.146 807.549 796.379 786.108 762.439 781.261C744.635 777.613 726.126 779.883 709.731 787.725C693.336 795.568 679.954 808.552 671.623 824.701C634.327 899.277 680.761 973.853 762.999 971.989C774.702 971.524 786.356 970.216 797.871 968.073C828.453 962.667 830.132 959.87 821.554 927.989C745.47 944.023 716.752 933.209 717.124 887.345H826.029ZM1198.99 887.345C1198.99 872.243 1198.99 859.938 1196.75 847.633C1196.31 832.642 1191.02 818.197 1181.67 806.466C1172.33 794.735 1159.43 786.349 1144.91 782.566C1128.64 777.829 1111.33 778.048 1095.19 783.196C1079.05 788.343 1064.8 798.185 1054.28 811.464C1042.55 827.436 1035.48 846.351 1033.87 866.102C1032.25 885.853 1036.16 905.664 1045.14 923.328C1061.37 960.616 1093.63 971.802 1131.3 972.175C1143.81 972.189 1156.29 971.065 1168.59 968.819C1202.53 963.412 1202.72 962.853 1196.38 928.362C1118.06 942.904 1090.46 932.65 1091.95 887.904H1199.18L1198.99 887.345Z" fill="#5C8727"/>
<path d="M334 462C370.375 476.488 408.616 492.481 446.856 506.593C516.584 529.593 589.723 540.287 663.055 538.203C672.1 537.82 681.074 539.969 688.984 544.412C746.507 586.708 811.258 617.961 880 636.608C702.228 661.633 452.266 615.159 334 462Z" fill="#5C8727"/>
<rect x="4" y="616" width="428" height="310" fill="#5C8727"/>
<path d="M1225.47 476C1192.08 450.773 1160.27 423.494 1130.25 394.32C1079.95 340.035 1034.52 281.716 986.4 226.255C967.698 203.296 947.537 181.57 926.044 161.213C874.742 114.827 816.064 102.559 752.523 133.483C674.9 171.297 596.941 208.776 520.994 249.952C433.814 297.178 348.814 348.438 262.975 398.018C243.858 387.334 224.155 377.739 203.961 369.278C182.971 361.862 160.659 358.957 138.476 360.752C116.293 362.547 94.7347 369.003 75.2034 379.699C45.0258 394.488 15.0159 409.614 -16 425.076C15.8541 201.549 228.606 -66.0112 563.075 -85.6749C724.117 -96.1409 883.033 -44.3096 1007.1 59.1467C1131.17 162.603 1210.94 309.809 1230 470.454L1225.47 476Z" fill="#4F91CD"/>
<path d="M159.948 238.837C255.745 259.346 358.36 259.176 431.85 321.86C462.581 348.271 488.035 382.484 515.289 414.196C518.797 419.452 521.799 425.301 524.262 431.683C368.321 490.487 171.275 387.865 159.948 238.837Z" fill="#4F91CD"/>
<rect x="4" width="428" height="351" fill="#4F91CD"/>
<g filter="url(#filter1_bd_52_3787)">
<path d="M60.8167 617.92V643H57.7767V617.92H60.8167ZM44.1727 617.92V643H41.1327V617.92H44.1727ZM59.1827 628.864V631.714H42.7287V628.864H59.1827ZM75.3541 643.38C73.5554 643.38 71.9468 642.987 70.5281 642.202C69.1348 641.417 68.0454 640.289 67.2601 638.82C66.4748 637.325 66.0821 635.552 66.0821 633.5C66.0821 631.448 66.4748 629.687 67.2601 628.218C68.0454 626.723 69.1221 625.583 70.4901 624.798C71.8581 624.013 73.4161 623.62 75.1641 623.62C76.9374 623.62 78.4448 624 79.6861 624.76C80.9528 625.52 81.9154 626.559 82.5741 627.876C83.2328 629.168 83.5621 630.625 83.5621 632.246C83.5621 632.677 83.5494 633.069 83.5241 633.424C83.4988 633.779 83.4608 634.095 83.4101 634.374H68.0581V631.676H82.0801L80.5221 631.98C80.5221 630.156 80.0154 628.75 79.0021 627.762C78.0141 626.774 76.7094 626.28 75.0881 626.28C73.8468 626.28 72.7701 626.571 71.8581 627.154C70.9714 627.711 70.2748 628.535 69.7681 629.624C69.2868 630.688 69.0461 631.98 69.0461 633.5C69.0461 634.995 69.2994 636.287 69.8061 637.376C70.3128 638.465 71.0221 639.301 71.9341 639.884C72.8714 640.441 73.9861 640.72 75.2781 640.72C76.6714 640.72 77.7988 640.454 78.6601 639.922C79.5468 639.39 80.2561 638.668 80.7881 637.756L83.1821 639.162C82.7008 640.023 82.0801 640.771 81.3201 641.404C80.5854 642.037 79.7114 642.531 78.6981 642.886C77.7101 643.215 76.5954 643.38 75.3541 643.38ZM99.6797 630.726C99.6797 629.307 99.2997 628.218 98.5397 627.458C97.7797 626.673 96.7031 626.28 95.3097 626.28C93.9924 626.28 92.8777 626.571 91.9657 627.154C91.0537 627.711 90.3824 628.623 89.9517 629.89L87.4817 628.37C87.9884 626.951 88.9257 625.811 90.2937 624.95C91.6617 624.063 93.3591 623.62 95.3857 623.62C96.7537 623.62 97.9951 623.861 99.1097 624.342C100.224 624.798 101.098 625.507 101.732 626.47C102.39 627.407 102.72 628.623 102.72 630.118V639.314C102.72 640.226 103.201 640.682 104.164 640.682C104.645 640.682 105.114 640.619 105.57 640.492L105.418 642.886C104.911 643.139 104.252 643.266 103.442 643.266C102.707 643.266 102.048 643.127 101.466 642.848C100.883 642.569 100.427 642.151 100.098 641.594C99.7684 641.011 99.6037 640.289 99.6037 639.428V639.048L100.364 639.162C100.06 640.15 99.5404 640.961 98.8057 641.594C98.0711 642.202 97.2477 642.658 96.3357 642.962C95.4237 643.241 94.5244 643.38 93.6377 643.38C92.5231 643.38 91.4844 643.19 90.5217 642.81C89.5591 642.43 88.7864 641.86 88.2037 641.1C87.6464 640.315 87.3677 639.352 87.3677 638.212C87.3677 636.793 87.8364 635.628 88.7737 634.716C89.7364 633.779 91.0664 633.145 92.7637 632.816L100.288 631.334V633.842L94.1697 635.096C92.9284 635.349 92.0037 635.704 91.3957 636.16C90.7877 636.616 90.4837 637.249 90.4837 638.06C90.4837 638.845 90.7877 639.491 91.3957 639.998C92.0291 640.479 92.9157 640.72 94.0557 640.72C94.7904 640.72 95.4871 640.631 96.1457 640.454C96.8297 640.251 97.4377 639.96 97.9697 639.58C98.5017 639.175 98.9197 638.681 99.2237 638.098C99.5277 637.49 99.6797 636.781 99.6797 635.97V630.726ZM112.235 615.26V638.174C112.235 639.137 112.413 639.808 112.767 640.188C113.122 640.543 113.692 640.72 114.477 640.72C114.984 640.72 115.402 640.682 115.731 640.606C116.061 640.53 116.504 640.391 117.061 640.188L116.567 642.848C116.162 643.025 115.719 643.152 115.237 643.228C114.756 643.329 114.262 643.38 113.755 643.38C112.21 643.38 111.057 642.962 110.297 642.126C109.563 641.29 109.195 640.011 109.195 638.288V615.26H112.235ZM123.944 618.604V637.756C123.944 638.693 124.21 639.39 124.742 639.846C125.274 640.302 125.958 640.53 126.794 640.53C127.529 640.53 128.162 640.403 128.694 640.15C129.226 639.897 129.708 639.555 130.138 639.124L131.202 641.67C130.62 642.202 129.923 642.62 129.112 642.924C128.327 643.228 127.415 643.38 126.376 643.38C125.414 643.38 124.514 643.215 123.678 642.886C122.842 642.531 122.171 641.987 121.664 641.252C121.183 640.492 120.93 639.504 120.904 638.288V619.44L123.944 618.604ZM130.86 624V626.622H117.104V624H130.86ZM134.62 643V615.26H137.66V626.85C138.319 625.71 139.193 624.887 140.282 624.38C141.371 623.873 142.562 623.62 143.854 623.62C145.222 623.62 146.463 623.886 147.578 624.418C148.693 624.925 149.579 625.71 150.238 626.774C150.922 627.838 151.264 629.193 151.264 630.84V643H148.224V631.904C148.224 629.801 147.768 628.345 146.856 627.534C145.969 626.698 144.867 626.28 143.55 626.28C142.638 626.28 141.726 626.495 140.814 626.926C139.902 627.357 139.142 628.066 138.534 629.054C137.951 630.017 137.66 631.309 137.66 632.93V643H134.62ZM172.486 624L163.556 646.192C163.075 647.433 162.543 648.409 161.96 649.118C161.403 649.853 160.769 650.372 160.06 650.676C159.376 651.005 158.578 651.17 157.666 651.17C156.805 651.17 156.007 651.043 155.272 650.79C154.563 650.562 153.929 650.245 153.372 649.84L154.208 647.18C154.715 647.636 155.247 647.965 155.804 648.168C156.387 648.396 156.957 648.51 157.514 648.51C158.173 648.51 158.793 648.307 159.376 647.902C159.959 647.497 160.491 646.673 160.972 645.432L161.96 642.962L160.06 638.44L154.018 624H157.476L162.226 636.388L163.404 639.77L164.772 636.008L169.218 624H172.486ZM186.928 643V624H189.398L189.816 627.116C190.348 625.951 191.121 625.077 192.134 624.494C193.173 623.911 194.427 623.62 195.896 623.62C196.225 623.62 196.58 623.645 196.96 623.696C197.365 623.747 197.707 623.848 197.986 624L197.454 626.774C197.175 626.673 196.871 626.597 196.542 626.546C196.213 626.495 195.744 626.47 195.136 626.47C194.351 626.47 193.553 626.698 192.742 627.154C191.957 627.61 191.298 628.307 190.766 629.244C190.234 630.156 189.968 631.321 189.968 632.74V643H186.928ZM209.028 643.38C207.229 643.38 205.621 642.987 204.202 642.202C202.809 641.417 201.719 640.289 200.934 638.82C200.149 637.325 199.756 635.552 199.756 633.5C199.756 631.448 200.149 629.687 200.934 628.218C201.719 626.723 202.796 625.583 204.164 624.798C205.532 624.013 207.09 623.62 208.838 623.62C210.611 623.62 212.119 624 213.36 624.76C214.627 625.52 215.589 626.559 216.248 627.876C216.907 629.168 217.236 630.625 217.236 632.246C217.236 632.677 217.223 633.069 217.198 633.424C217.173 633.779 217.135 634.095 217.084 634.374H201.732V631.676H215.754L214.196 631.98C214.196 630.156 213.689 628.75 212.676 627.762C211.688 626.774 210.383 626.28 208.762 626.28C207.521 626.28 206.444 626.571 205.532 627.154C204.645 627.711 203.949 628.535 203.442 629.624C202.961 630.688 202.72 631.98 202.72 633.5C202.72 634.995 202.973 636.287 203.48 637.376C203.987 638.465 204.696 639.301 205.608 639.884C206.545 640.441 207.66 640.72 208.952 640.72C210.345 640.72 211.473 640.454 212.334 639.922C213.221 639.39 213.93 638.668 214.462 637.756L216.856 639.162C216.375 640.023 215.754 640.771 214.994 641.404C214.259 642.037 213.385 642.531 212.372 642.886C211.384 643.215 210.269 643.38 209.028 643.38ZM230.124 623.62C231.441 623.62 232.594 623.823 233.582 624.228C234.595 624.633 235.469 625.216 236.204 625.976C236.938 626.736 237.534 627.635 237.99 628.674L235.102 630.042C234.696 628.826 234.076 627.901 233.24 627.268C232.429 626.609 231.365 626.28 230.048 626.28C228.781 626.28 227.692 626.571 226.78 627.154C225.868 627.711 225.171 628.535 224.69 629.624C224.208 630.688 223.968 631.98 223.968 633.5C223.968 634.995 224.208 636.287 224.69 637.376C225.171 638.465 225.868 639.301 226.78 639.884C227.692 640.441 228.781 640.72 230.048 640.72C231.036 640.72 231.884 640.568 232.594 640.264C233.328 639.96 233.924 639.517 234.38 638.934C234.861 638.351 235.19 637.642 235.368 636.806L238.18 637.794C237.749 638.959 237.154 639.96 236.394 640.796C235.659 641.632 234.76 642.278 233.696 642.734C232.657 643.165 231.466 643.38 230.124 643.38C228.35 643.38 226.767 642.987 225.374 642.202C223.98 641.417 222.891 640.289 222.106 638.82C221.32 637.325 220.928 635.552 220.928 633.5C220.928 631.448 221.32 629.687 222.106 628.218C222.891 626.723 223.98 625.583 225.374 624.798C226.767 624.013 228.35 623.62 230.124 623.62ZM242.761 643V624H245.231L245.649 627.116C246.181 625.951 246.954 625.077 247.967 624.494C249.006 623.911 250.26 623.62 251.729 623.62C252.059 623.62 252.413 623.645 252.793 623.696C253.199 623.747 253.541 623.848 253.819 624L253.287 626.774C253.009 626.673 252.705 626.597 252.375 626.546C252.046 626.495 251.577 626.47 250.969 626.47C250.184 626.47 249.386 626.698 248.575 627.154C247.79 627.61 247.131 628.307 246.599 629.244C246.067 630.156 245.801 631.321 245.801 632.74V643H242.761ZM264.861 643.38C263.063 643.38 261.454 642.987 260.035 642.202C258.642 641.417 257.553 640.289 256.767 638.82C255.982 637.325 255.589 635.552 255.589 633.5C255.589 631.448 255.982 629.687 256.767 628.218C257.553 626.723 258.629 625.583 259.997 624.798C261.365 624.013 262.923 623.62 264.671 623.62C266.445 623.62 267.952 624 269.193 624.76C270.46 625.52 271.423 626.559 272.081 627.876C272.74 629.168 273.069 630.625 273.069 632.246C273.069 632.677 273.057 633.069 273.031 633.424C273.006 633.779 272.968 634.095 272.917 634.374H257.565V631.676H271.587L270.029 631.98C270.029 630.156 269.523 628.75 268.509 627.762C267.521 626.774 266.217 626.28 264.595 626.28C263.354 626.28 262.277 626.571 261.365 627.154C260.479 627.711 259.782 628.535 259.275 629.624C258.794 630.688 258.553 631.98 258.553 633.5C258.553 634.995 258.807 636.287 259.313 637.376C259.82 638.465 260.529 639.301 261.441 639.884C262.379 640.441 263.493 640.72 264.785 640.72C266.179 640.72 267.306 640.454 268.167 639.922C269.054 639.39 269.763 638.668 270.295 637.756L272.689 639.162C272.208 640.023 271.587 640.771 270.827 641.404C270.093 642.037 269.219 642.531 268.205 642.886C267.217 643.215 266.103 643.38 264.861 643.38ZM289.187 630.726C289.187 629.307 288.807 628.218 288.047 627.458C287.287 626.673 286.21 626.28 284.817 626.28C283.5 626.28 282.385 626.571 281.473 627.154C280.561 627.711 279.89 628.623 279.459 629.89L276.989 628.37C277.496 626.951 278.433 625.811 279.801 624.95C281.169 624.063 282.866 623.62 284.893 623.62C286.261 623.62 287.502 623.861 288.617 624.342C289.732 624.798 290.606 625.507 291.239 626.47C291.898 627.407 292.227 628.623 292.227 630.118V639.314C292.227 640.226 292.708 640.682 293.671 640.682C294.152 640.682 294.621 640.619 295.077 640.492L294.925 642.886C294.418 643.139 293.76 643.266 292.949 643.266C292.214 643.266 291.556 643.127 290.973 642.848C290.39 642.569 289.934 642.151 289.605 641.594C289.276 641.011 289.111 640.289 289.111 639.428V639.048L289.871 639.162C289.567 640.15 289.048 640.961 288.313 641.594C287.578 642.202 286.755 642.658 285.843 642.962C284.931 643.241 284.032 643.38 283.145 643.38C282.03 643.38 280.992 643.19 280.029 642.81C279.066 642.43 278.294 641.86 277.711 641.1C277.154 640.315 276.875 639.352 276.875 638.212C276.875 636.793 277.344 635.628 278.281 634.716C279.244 633.779 280.574 633.145 282.271 632.816L289.795 631.334V633.842L283.677 635.096C282.436 635.349 281.511 635.704 280.903 636.16C280.295 636.616 279.991 637.249 279.991 638.06C279.991 638.845 280.295 639.491 280.903 639.998C281.536 640.479 282.423 640.72 283.563 640.72C284.298 640.72 284.994 640.631 285.653 640.454C286.337 640.251 286.945 639.96 287.477 639.58C288.009 639.175 288.427 638.681 288.731 638.098C289.035 637.49 289.187 636.781 289.187 635.97V630.726ZM302.596 618.604V637.756C302.596 638.693 302.862 639.39 303.394 639.846C303.926 640.302 304.61 640.53 305.446 640.53C306.181 640.53 306.814 640.403 307.346 640.15C307.878 639.897 308.359 639.555 308.79 639.124L309.854 641.67C309.271 642.202 308.575 642.62 307.764 642.924C306.979 643.228 306.067 643.38 305.028 643.38C304.065 643.38 303.166 643.215 302.33 642.886C301.494 642.531 300.823 641.987 300.316 641.252C299.835 640.492 299.581 639.504 299.556 638.288V619.44L302.596 618.604ZM309.512 624V626.622H295.756V624H309.512ZM314.792 620.352C314.108 620.352 313.551 620.149 313.12 619.744C312.715 619.313 312.512 618.756 312.512 618.072C312.512 617.388 312.715 616.843 313.12 616.438C313.551 616.007 314.108 615.792 314.792 615.792C315.476 615.792 316.021 616.007 316.426 616.438C316.857 616.843 317.072 617.388 317.072 618.072C317.072 618.756 316.857 619.313 316.426 619.744C316.021 620.149 315.476 620.352 314.792 620.352ZM316.312 624V643H313.272V624H316.312ZM330.472 623.62C332.271 623.62 333.854 624.013 335.222 624.798C336.615 625.583 337.705 626.723 338.49 628.218C339.275 629.687 339.668 631.448 339.668 633.5C339.668 635.552 339.275 637.325 338.49 638.82C337.705 640.289 336.615 641.417 335.222 642.202C333.854 642.987 332.271 643.38 330.472 643.38C328.699 643.38 327.115 642.987 325.722 642.202C324.329 641.417 323.239 640.289 322.454 638.82C321.669 637.325 321.276 635.552 321.276 633.5C321.276 631.448 321.669 629.687 322.454 628.218C323.239 626.723 324.329 625.583 325.722 624.798C327.115 624.013 328.699 623.62 330.472 623.62ZM330.472 626.242C329.18 626.242 328.078 626.533 327.166 627.116C326.254 627.699 325.545 628.535 325.038 629.624C324.557 630.688 324.316 631.98 324.316 633.5C324.316 634.995 324.557 636.287 325.038 637.376C325.545 638.465 326.254 639.301 327.166 639.884C328.078 640.467 329.18 640.758 330.472 640.758C331.764 640.758 332.866 640.467 333.778 639.884C334.69 639.301 335.387 638.465 335.868 637.376C336.375 636.287 336.628 634.995 336.628 633.5C336.628 631.98 336.375 630.688 335.868 629.624C335.387 628.535 334.69 627.699 333.778 627.116C332.866 626.533 331.764 626.242 330.472 626.242ZM344.631 643V624H347.291L347.557 628.256L347.063 627.838C347.468 626.825 348.013 626.014 348.697 625.406C349.381 624.773 350.166 624.317 351.053 624.038C351.965 623.759 352.902 623.62 353.865 623.62C355.233 623.62 356.474 623.886 357.589 624.418C358.704 624.925 359.59 625.71 360.249 626.774C360.933 627.838 361.275 629.193 361.275 630.84V643H358.235V631.904C358.235 629.801 357.779 628.345 356.867 627.534C355.98 626.698 354.878 626.28 353.561 626.28C352.649 626.28 351.737 626.495 350.825 626.926C349.913 627.357 349.153 628.053 348.545 629.016C347.962 629.979 347.671 631.271 347.671 632.892V643H344.631ZM385.86 643.38C384.188 643.38 382.756 643.089 381.566 642.506C380.375 641.923 379.463 641.125 378.83 640.112C378.196 639.099 377.88 637.933 377.88 636.616C377.88 635.805 377.981 635.045 378.184 634.336C378.412 633.601 378.766 632.905 379.248 632.246C379.729 631.587 380.375 630.967 381.186 630.384C382.022 629.801 383.048 629.257 384.264 628.75L385.86 627.952C386.822 627.42 387.62 626.926 388.254 626.47C388.887 625.989 389.356 625.469 389.66 624.912C389.989 624.355 390.154 623.696 390.154 622.936C390.154 622.049 389.875 621.365 389.318 620.884C388.786 620.377 388.051 620.124 387.114 620.124C386.024 620.124 385.214 620.428 384.682 621.036C384.175 621.619 383.922 622.303 383.922 623.088C383.922 623.569 383.985 624.038 384.112 624.494C384.238 624.925 384.504 625.469 384.91 626.128C385.34 626.787 385.974 627.661 386.81 628.75C387.646 629.839 388.773 631.271 390.192 633.044C391.636 634.817 392.826 636.249 393.764 637.338C394.701 638.402 395.499 639.213 396.158 639.77C396.816 640.302 397.424 640.657 397.982 640.834C398.564 641.011 399.198 641.1 399.882 641.1L399.122 643.38C398.387 643.38 397.69 643.291 397.032 643.114C396.398 642.937 395.689 642.557 394.904 641.974C394.144 641.391 393.219 640.517 392.13 639.352C391.066 638.187 389.736 636.629 388.14 634.678C386.772 632.981 385.632 631.549 384.72 630.384C383.808 629.219 383.086 628.231 382.554 627.42C382.022 626.609 381.642 625.875 381.414 625.216C381.186 624.532 381.072 623.835 381.072 623.126C381.072 622.214 381.287 621.327 381.718 620.466C382.174 619.605 382.858 618.908 383.77 618.376C384.682 617.819 385.86 617.54 387.304 617.54C388.393 617.54 389.343 617.743 390.154 618.148C390.964 618.553 391.598 619.136 392.054 619.896C392.535 620.656 392.776 621.555 392.776 622.594C392.776 623.481 392.624 624.329 392.32 625.14C392.041 625.925 391.496 626.711 390.686 627.496C389.9 628.256 388.722 629.054 387.152 629.89L385.86 630.384C384.542 630.992 383.516 631.587 382.782 632.17C382.047 632.727 381.528 633.335 381.224 633.994C380.92 634.653 380.768 635.438 380.768 636.35C380.768 637.287 381.008 638.098 381.49 638.782C381.971 639.466 382.617 639.998 383.428 640.378C384.238 640.733 385.15 640.91 386.164 640.91C387.557 640.91 388.735 640.657 389.698 640.15C390.66 639.643 391.547 638.921 392.358 637.984L392.852 637.528C393.51 636.489 394.017 635.311 394.372 633.994C394.752 632.677 394.878 631.207 394.752 629.586L397.336 629.814C397.437 631.435 397.26 633.031 396.804 634.602C396.373 636.173 395.676 637.591 394.714 638.858L394.144 639.656C393.181 640.796 392.016 641.708 390.648 642.392C389.28 643.051 387.684 643.38 385.86 643.38ZM52.0016 668.62C53.3189 668.62 54.4716 668.823 55.4596 669.228C56.4729 669.633 57.3469 670.216 58.0816 670.976C58.8163 671.736 59.4116 672.635 59.8676 673.674L56.9796 675.042C56.5743 673.826 55.9536 672.901 55.1176 672.268C54.3069 671.609 53.2429 671.28 51.9256 671.28C50.6589 671.28 49.5696 671.571 48.6576 672.154C47.7456 672.711 47.0489 673.535 46.5676 674.624C46.0863 675.688 45.8456 676.98 45.8456 678.5C45.8456 679.995 46.0863 681.287 46.5676 682.376C47.0489 683.465 47.7456 684.301 48.6576 684.884C49.5696 685.441 50.6589 685.72 51.9256 685.72C52.9136 685.72 53.7623 685.568 54.4716 685.264C55.2063 684.96 55.8016 684.517 56.2576 683.934C56.7389 683.351 57.0683 682.642 57.2456 681.806L60.0576 682.794C59.6269 683.959 59.0316 684.96 58.2716 685.796C57.5369 686.632 56.6376 687.278 55.5736 687.734C54.5349 688.165 53.3443 688.38 52.0016 688.38C50.2283 688.38 48.6449 687.987 47.2516 687.202C45.8583 686.417 44.7689 685.289 43.9836 683.82C43.1983 682.325 42.8056 680.552 42.8056 678.5C42.8056 676.448 43.1983 674.687 43.9836 673.218C44.7689 671.723 45.8583 670.583 47.2516 669.798C48.6449 669.013 50.2283 668.62 52.0016 668.62ZM72.5053 668.62C74.3039 668.62 75.8873 669.013 77.2553 669.798C78.6486 670.583 79.7379 671.723 80.5233 673.218C81.3086 674.687 81.7013 676.448 81.7013 678.5C81.7013 680.552 81.3086 682.325 80.5233 683.82C79.7379 685.289 78.6486 686.417 77.2553 687.202C75.8873 687.987 74.3039 688.38 72.5053 688.38C70.7319 688.38 69.1486 687.987 67.7553 687.202C66.3619 686.417 65.2726 685.289 64.4873 683.82C63.7019 682.325 63.3093 680.552 63.3093 678.5C63.3093 676.448 63.7019 674.687 64.4873 673.218C65.2726 671.723 66.3619 670.583 67.7553 669.798C69.1486 669.013 70.7319 668.62 72.5053 668.62ZM72.5053 671.242C71.2133 671.242 70.1113 671.533 69.1993 672.116C68.2873 672.699 67.5779 673.535 67.0713 674.624C66.5899 675.688 66.3493 676.98 66.3493 678.5C66.3493 679.995 66.5899 681.287 67.0713 682.376C67.5779 683.465 68.2873 684.301 69.1993 684.884C70.1113 685.467 71.2133 685.758 72.5053 685.758C73.7973 685.758 74.8993 685.467 75.8113 684.884C76.7233 684.301 77.4199 683.465 77.9013 682.376C78.4079 681.287 78.6613 679.995 78.6613 678.5C78.6613 676.98 78.4079 675.688 77.9013 674.624C77.4199 673.535 76.7233 672.699 75.8113 672.116C74.8993 671.533 73.7973 671.242 72.5053 671.242ZM86.6644 688V669H89.3244L89.5144 671.964C90.1984 670.799 91.0851 669.95 92.1744 669.418C93.2891 668.886 94.4291 668.62 95.5944 668.62C96.9371 668.62 98.2038 668.924 99.3944 669.532C100.585 670.14 101.497 671.077 102.13 672.344C102.536 671.483 103.106 670.786 103.84 670.254C104.575 669.697 105.373 669.291 106.234 669.038C107.121 668.759 107.957 668.62 108.742 668.62C109.958 668.62 111.111 668.873 112.2 669.38C113.315 669.887 114.227 670.672 114.936 671.736C115.646 672.8 116 674.168 116 675.84V688H112.96V676.144C112.96 674.421 112.53 673.18 111.668 672.42C110.807 671.66 109.743 671.28 108.476 671.28C107.488 671.28 106.564 671.521 105.702 672.002C104.841 672.483 104.144 673.193 103.612 674.13C103.106 675.067 102.852 676.22 102.852 677.588V688H99.8124V676.144C99.8124 674.421 99.3818 673.18 98.5204 672.42C97.6591 671.66 96.5951 671.28 95.3284 671.28C94.4924 671.28 93.6311 671.508 92.7444 671.964C91.8831 672.395 91.1611 673.091 90.5784 674.054C89.9958 675.017 89.7044 676.283 89.7044 677.854V688H86.6644ZM122.123 688V669H124.783L124.973 671.964C125.657 670.799 126.544 669.95 127.633 669.418C128.748 668.886 129.888 668.62 131.053 668.62C132.396 668.62 133.663 668.924 134.853 669.532C136.044 670.14 136.956 671.077 137.589 672.344C137.995 671.483 138.565 670.786 139.299 670.254C140.034 669.697 140.832 669.291 141.693 669.038C142.58 668.759 143.416 668.62 144.201 668.62C145.417 668.62 146.57 668.873 147.659 669.38C148.774 669.887 149.686 670.672 150.395 671.736C151.105 672.8 151.459 674.168 151.459 675.84V688H148.419V676.144C148.419 674.421 147.989 673.18 147.127 672.42C146.266 671.66 145.202 671.28 143.935 671.28C142.947 671.28 142.023 671.521 141.161 672.002C140.3 672.483 139.603 673.193 139.071 674.13C138.565 675.067 138.311 676.22 138.311 677.588V688H135.271V676.144C135.271 674.421 134.841 673.18 133.979 672.42C133.118 671.66 132.054 671.28 130.787 671.28C129.951 671.28 129.09 671.508 128.203 671.964C127.342 672.395 126.62 673.091 126.037 674.054C125.455 675.017 125.163 676.283 125.163 677.854V688H122.123ZM164.46 688.38C163.244 688.38 162.091 688.152 161.002 687.696C159.938 687.24 159.064 686.505 158.38 685.492C157.721 684.453 157.392 683.111 157.392 681.464V669H160.432V680.666C160.432 682.591 160.85 683.921 161.686 684.656C162.522 685.365 163.7 685.72 165.22 685.72C165.929 685.72 166.626 685.606 167.31 685.378C167.994 685.125 168.602 684.745 169.134 684.238C169.691 683.706 170.122 683.035 170.426 682.224C170.755 681.413 170.92 680.451 170.92 679.336V669H173.96V688H171.3L171.11 685.112C170.451 686.252 169.552 687.088 168.412 687.62C167.297 688.127 165.98 688.38 164.46 688.38ZM180.275 688V669H182.935L183.201 673.256L182.707 672.838C183.112 671.825 183.657 671.014 184.341 670.406C185.025 669.773 185.81 669.317 186.697 669.038C187.609 668.759 188.546 668.62 189.509 668.62C190.877 668.62 192.118 668.886 193.233 669.418C194.348 669.925 195.234 670.71 195.893 671.774C196.577 672.838 196.919 674.193 196.919 675.84V688H193.879V676.904C193.879 674.801 193.423 673.345 192.511 672.534C191.624 671.698 190.522 671.28 189.205 671.28C188.293 671.28 187.381 671.495 186.469 671.926C185.557 672.357 184.797 673.053 184.189 674.016C183.606 674.979 183.315 676.271 183.315 677.892V688H180.275ZM204.562 665.352C203.878 665.352 203.321 665.149 202.89 664.744C202.485 664.313 202.282 663.756 202.282 663.072C202.282 662.388 202.485 661.843 202.89 661.438C203.321 661.007 203.878 660.792 204.562 660.792C205.246 660.792 205.791 661.007 206.196 661.438C206.627 661.843 206.842 662.388 206.842 663.072C206.842 663.756 206.627 664.313 206.196 664.744C205.791 665.149 205.246 665.352 204.562 665.352ZM206.082 669V688H203.042V669H206.082ZM216.86 663.604V682.756C216.86 683.693 217.126 684.39 217.658 684.846C218.19 685.302 218.874 685.53 219.71 685.53C220.445 685.53 221.078 685.403 221.61 685.15C222.142 684.897 222.623 684.555 223.054 684.124L224.118 686.67C223.535 687.202 222.839 687.62 222.028 687.924C221.243 688.228 220.331 688.38 219.292 688.38C218.329 688.38 217.43 688.215 216.594 687.886C215.758 687.531 215.087 686.987 214.58 686.252C214.099 685.492 213.845 684.504 213.82 683.288V664.44L216.86 663.604ZM223.776 669V671.622H210.02V669H223.776ZM243.154 669L234.224 691.192C233.743 692.433 233.211 693.409 232.628 694.118C232.071 694.853 231.437 695.372 230.728 695.676C230.044 696.005 229.246 696.17 228.334 696.17C227.473 696.17 226.675 696.043 225.94 695.79C225.231 695.562 224.597 695.245 224.04 694.84L224.876 692.18C225.383 692.636 225.915 692.965 226.472 693.168C227.055 693.396 227.625 693.51 228.182 693.51C228.841 693.51 229.461 693.307 230.044 692.902C230.627 692.497 231.159 691.673 231.64 690.432L232.628 687.962L230.728 683.44L224.686 669H228.144L232.894 681.388L234.072 684.77L235.44 681.008L239.886 669H243.154ZM266.906 688.38C265.842 688.38 264.854 688.19 263.942 687.81C263.03 687.43 262.245 686.898 261.586 686.214C260.927 685.53 260.433 684.757 260.104 683.896L260.522 683.364L260.256 688H257.596V660.26H260.636V673.294L260.256 672.724C260.763 671.533 261.611 670.558 262.802 669.798C264.018 669.013 265.399 668.62 266.944 668.62C268.515 668.62 269.959 669.013 271.276 669.798C272.593 670.583 273.645 671.711 274.43 673.18C275.215 674.649 275.608 676.423 275.608 678.5C275.608 680.552 275.203 682.325 274.392 683.82C273.607 685.289 272.555 686.417 271.238 687.202C269.921 687.987 268.477 688.38 266.906 688.38ZM266.602 685.72C268.477 685.72 269.933 685.061 270.972 683.744C272.036 682.427 272.568 680.679 272.568 678.5C272.568 676.321 272.049 674.573 271.01 673.256C269.971 671.939 268.515 671.28 266.64 671.28C265.449 671.28 264.398 671.584 263.486 672.192C262.599 672.8 261.903 673.649 261.396 674.738C260.889 675.827 260.636 677.107 260.636 678.576C260.636 680.02 260.877 681.287 261.358 682.376C261.865 683.44 262.561 684.263 263.448 684.846C264.36 685.429 265.411 685.72 266.602 685.72ZM287.538 688.38C286.322 688.38 285.17 688.152 284.08 687.696C283.016 687.24 282.142 686.505 281.458 685.492C280.8 684.453 280.47 683.111 280.47 681.464V669H283.51V680.666C283.51 682.591 283.928 683.921 284.764 684.656C285.6 685.365 286.778 685.72 288.298 685.72C289.008 685.72 289.704 685.606 290.388 685.378C291.072 685.125 291.68 684.745 292.212 684.238C292.77 683.706 293.2 683.035 293.504 682.224C293.834 681.413 293.998 680.451 293.998 679.336V669H297.038V688H294.378L294.188 685.112C293.53 686.252 292.63 687.088 291.49 687.62C290.376 688.127 289.058 688.38 287.538 688.38ZM304.874 665.352C304.19 665.352 303.632 665.149 303.202 664.744C302.796 664.313 302.594 663.756 302.594 663.072C302.594 662.388 302.796 661.843 303.202 661.438C303.632 661.007 304.19 660.792 304.874 660.792C305.558 660.792 306.102 661.007 306.508 661.438C306.938 661.843 307.154 662.388 307.154 663.072C307.154 663.756 306.938 664.313 306.508 664.744C306.102 665.149 305.558 665.352 304.874 665.352ZM306.394 669V688H303.354V669H306.394ZM315.575 660.26V683.174C315.575 684.137 315.753 684.808 316.107 685.188C316.462 685.543 317.032 685.72 317.817 685.72C318.324 685.72 318.742 685.682 319.071 685.606C319.401 685.53 319.844 685.391 320.401 685.188L319.907 687.848C319.502 688.025 319.059 688.152 318.577 688.228C318.096 688.329 317.602 688.38 317.095 688.38C315.55 688.38 314.397 687.962 313.637 687.126C312.903 686.29 312.535 685.011 312.535 683.288V660.26H315.575ZM330.952 688.38C329.382 688.38 327.938 687.987 326.62 687.202C325.303 686.417 324.252 685.289 323.466 683.82C322.681 682.325 322.288 680.552 322.288 678.5C322.288 676.397 322.706 674.611 323.542 673.142C324.378 671.673 325.48 670.558 326.848 669.798C328.216 669.013 329.686 668.62 331.256 668.62C332.827 668.62 334.182 669.025 335.322 669.836C336.488 670.647 337.26 671.723 337.64 673.066L337.26 673.332V660.26H340.3V688H337.64L337.374 683.402L337.792 683.174C337.615 684.289 337.184 685.239 336.5 686.024C335.842 686.784 335.018 687.367 334.03 687.772C333.068 688.177 332.042 688.38 330.952 688.38ZM331.256 685.72C332.472 685.72 333.524 685.416 334.41 684.808C335.322 684.2 336.019 683.339 336.5 682.224C337.007 681.084 337.26 679.754 337.26 678.234C337.26 676.79 337.007 675.549 336.5 674.51C336.019 673.471 335.335 672.673 334.448 672.116C333.587 671.559 332.574 671.28 331.408 671.28C329.483 671.28 327.988 671.939 326.924 673.256C325.86 674.573 325.328 676.321 325.328 678.5C325.328 680.679 325.848 682.427 326.886 683.744C327.925 685.061 329.382 685.72 331.256 685.72ZM348.127 665.352C347.443 665.352 346.885 665.149 346.455 664.744C346.049 664.313 345.847 663.756 345.847 663.072C345.847 662.388 346.049 661.843 346.455 661.438C346.885 661.007 347.443 660.792 348.127 660.792C348.811 660.792 349.355 661.007 349.761 661.438C350.191 661.843 350.407 662.388 350.407 663.072C350.407 663.756 350.191 664.313 349.761 664.744C349.355 665.149 348.811 665.352 348.127 665.352ZM349.647 669V688H346.607V669H349.647ZM355.94 688V669H358.6L358.866 673.256L358.372 672.838C358.778 671.825 359.322 671.014 360.006 670.406C360.69 669.773 361.476 669.317 362.362 669.038C363.274 668.759 364.212 668.62 365.174 668.62C366.542 668.62 367.784 668.886 368.898 669.418C370.013 669.925 370.9 670.71 371.558 671.774C372.242 672.838 372.584 674.193 372.584 675.84V688H369.544V676.904C369.544 674.801 369.088 673.345 368.176 672.534C367.29 671.698 366.188 671.28 364.87 671.28C363.958 671.28 363.046 671.495 362.134 671.926C361.222 672.357 360.462 673.053 359.854 674.016C359.272 674.979 358.98 676.271 358.98 677.892V688H355.94ZM394.706 665.504L395.39 668.202C395.364 668.202 395.326 668.202 395.276 668.202C395.225 668.202 395.174 668.202 395.124 668.202C393.882 668.202 392.92 668.455 392.236 668.962C391.577 669.443 391.248 670.229 391.248 671.318L389.386 670.368C389.386 669.38 389.614 668.519 390.07 667.784C390.526 667.049 391.146 666.492 391.932 666.112C392.717 665.707 393.578 665.504 394.516 665.504C394.541 665.504 394.566 665.504 394.592 665.504C394.642 665.504 394.68 665.504 394.706 665.504ZM388.93 685.568C390.728 685.568 392.134 685.986 393.148 686.822C394.161 687.633 394.668 688.722 394.668 690.09C394.668 691.331 394.25 692.408 393.414 693.32C392.603 694.232 391.501 694.929 390.108 695.41C388.74 695.917 387.194 696.17 385.472 696.17C382.482 696.17 380.24 695.663 378.746 694.65C377.276 693.637 376.542 692.421 376.542 691.002C376.542 689.989 376.871 689.077 377.53 688.266C378.214 687.481 379.354 687.037 380.95 686.936L380.684 687.506C379.822 687.278 379.088 686.898 378.48 686.366C377.897 685.809 377.606 685.011 377.606 683.972C377.606 682.933 377.986 682.047 378.746 681.312C379.531 680.552 380.684 680.083 382.204 679.906L384.218 680.932H383.838C382.596 681.059 381.71 681.375 381.178 681.882C380.671 682.363 380.418 682.895 380.418 683.478C380.418 684.187 380.671 684.719 381.178 685.074C381.71 685.403 382.444 685.568 383.382 685.568H388.93ZM385.434 693.624C386.903 693.624 388.106 693.472 389.044 693.168C390.006 692.864 390.716 692.471 391.172 691.99C391.628 691.509 391.856 690.989 391.856 690.432C391.856 689.748 391.577 689.203 391.02 688.798C390.488 688.393 389.512 688.19 388.094 688.19H382.242C381.431 688.19 380.747 688.393 380.19 688.798C379.632 689.229 379.354 689.811 379.354 690.546C379.354 691.483 379.886 692.231 380.95 692.788C382.039 693.345 383.534 693.624 385.434 693.624ZM385.168 668.62C386.688 668.62 388.03 668.899 389.196 669.456C390.386 669.988 391.311 670.735 391.97 671.698C392.628 672.661 392.958 673.775 392.958 675.042C392.958 676.283 392.628 677.398 391.97 678.386C391.311 679.349 390.386 680.109 389.196 680.666C388.03 681.198 386.688 681.464 385.168 681.464C382.66 681.464 380.734 680.869 379.392 679.678C378.049 678.462 377.378 676.917 377.378 675.042C377.378 673.775 377.707 672.661 378.366 671.698C379.05 670.735 379.974 669.988 381.14 669.456C382.305 668.899 383.648 668.62 385.168 668.62ZM385.168 671.09C383.85 671.09 382.748 671.457 381.862 672.192C380.975 672.901 380.532 673.851 380.532 675.042C380.532 676.207 380.975 677.157 381.862 677.892C382.748 678.627 383.85 678.994 385.168 678.994C386.485 678.994 387.587 678.627 388.474 677.892C389.36 677.157 389.804 676.207 389.804 675.042C389.804 673.851 389.36 672.901 388.474 672.192C387.587 671.457 386.485 671.09 385.168 671.09Z" fill="white"/>
</g>
<g filter="url(#filter2_bd_52_3787)">
<rect x="47" y="748" width="343" height="56" rx="28" fill="white" shape-rendering="crispEdges"/>
<g filter="url(#filter3_d_52_3787)">
<path d="M131.536 784.5V771.81H133.282L140.644 781.332H140.176V771.81H142.336V784.5H140.59L133.246 774.978H133.696V784.5H131.536ZM146.374 784.5V771.81H154.924V773.628H148.606V777.138H154.51V778.974H148.606V782.664H154.924V784.5H146.374ZM161.804 784.5L157.322 771.81H159.734L163.19 782.214H162.47L166.196 771.81H167.924L171.38 782.214H170.714L174.332 771.81H176.6L172.082 784.5H170.156L166.808 774.744H167.204L163.73 784.5H161.804ZM192.015 784.68C190.587 784.68 189.387 784.416 188.415 783.888C187.443 783.36 186.711 782.61 186.219 781.638C185.727 780.666 185.481 779.514 185.481 778.182C185.481 776.838 185.745 775.68 186.273 774.708C186.801 773.724 187.557 772.968 188.541 772.44C189.537 771.9 190.731 771.63 192.123 771.63C193.047 771.63 193.857 771.756 194.553 772.008C195.249 772.248 195.861 772.602 196.389 773.07L195.615 774.87C195.231 774.57 194.865 774.33 194.517 774.15C194.169 773.97 193.809 773.844 193.437 773.772C193.065 773.688 192.633 773.646 192.141 773.646C190.749 773.646 189.693 774.042 188.973 774.834C188.265 775.614 187.911 776.736 187.911 778.2C187.911 779.664 188.247 780.78 188.919 781.548C189.603 782.316 190.671 782.7 192.123 782.7C192.615 782.7 193.107 782.652 193.599 782.556C194.103 782.46 194.595 782.322 195.075 782.142L194.643 783.114V779.316H191.673V777.624H196.569V783.726C195.981 784.026 195.279 784.26 194.463 784.428C193.647 784.596 192.831 784.68 192.015 784.68ZM199.065 784.5L204.807 771.81H206.751L212.565 784.5H210.207L208.659 780.936L209.595 781.566H201.981L202.953 780.936L201.405 784.5H199.065ZM205.761 774.294L203.223 780.306L202.755 779.748H208.803L208.425 780.306L205.833 774.294H205.761ZM215.219 784.5V771.81H220.763C222.155 771.81 223.229 772.14 223.985 772.8C224.753 773.46 225.137 774.378 225.137 775.554C225.137 776.334 224.963 777 224.615 777.552C224.279 778.104 223.793 778.53 223.157 778.83C222.521 779.118 221.771 779.262 220.907 779.262L221.159 778.92H221.771C222.275 778.92 222.725 779.052 223.121 779.316C223.517 779.58 223.841 779.982 224.093 780.522L225.947 784.5H223.391L221.519 780.378C221.351 779.958 221.093 779.682 220.745 779.55C220.409 779.418 220.001 779.352 219.521 779.352H217.541V784.5H215.219ZM217.541 777.642H220.385C221.201 777.642 221.819 777.474 222.239 777.138C222.671 776.79 222.887 776.286 222.887 775.626C222.887 774.966 222.671 774.468 222.239 774.132C221.819 773.796 221.201 773.628 220.385 773.628H217.541V777.642ZM229.108 784.5V771.81H233.716C235.168 771.81 236.392 772.062 237.388 772.566C238.396 773.058 239.158 773.778 239.674 774.726C240.19 775.662 240.448 776.802 240.448 778.146C240.448 779.478 240.19 780.618 239.674 781.566C239.158 782.514 238.396 783.24 237.388 783.744C236.392 784.248 235.168 784.5 233.716 784.5H229.108ZM231.43 782.574H233.572C235.108 782.574 236.248 782.208 236.992 781.476C237.736 780.744 238.108 779.634 238.108 778.146C238.108 776.646 237.736 775.536 236.992 774.816C236.248 774.084 235.108 773.718 233.572 773.718H231.43V782.574ZM244.069 784.5V771.81H252.619V773.628H246.301V777.138H252.205V778.974H246.301V782.664H252.619V784.5H244.069ZM256.024 784.5V771.81H257.77L265.132 781.332H264.664V771.81H266.824V784.5H265.078L257.734 774.978H258.184V784.5H256.024ZM270.862 784.5V771.81H279.412V773.628H273.094V777.138H278.998V778.974H273.094V782.664H279.412V784.5H270.862ZM282.817 784.5V771.81H288.361C289.753 771.81 290.827 772.14 291.583 772.8C292.351 773.46 292.735 774.378 292.735 775.554C292.735 776.334 292.561 777 292.213 777.552C291.877 778.104 291.391 778.53 290.755 778.83C290.119 779.118 289.369 779.262 288.505 779.262L288.757 778.92H289.369C289.873 778.92 290.323 779.052 290.719 779.316C291.115 779.58 291.439 779.982 291.691 780.522L293.545 784.5H290.989L289.117 780.378C288.949 779.958 288.691 779.682 288.343 779.55C288.007 779.418 287.599 779.352 287.119 779.352H285.139V784.5H282.817ZM285.139 777.642H287.983C288.799 777.642 289.417 777.474 289.837 777.138C290.269 776.79 290.485 776.286 290.485 775.626C290.485 774.966 290.269 774.468 289.837 774.132C289.417 773.796 288.799 773.628 287.983 773.628H285.139V777.642ZM301.099 784.68C300.079 784.68 299.137 784.554 298.273 784.302C297.421 784.038 296.689 783.678 296.077 783.222L296.797 781.404C297.205 781.692 297.631 781.938 298.075 782.142C298.519 782.334 298.993 782.484 299.497 782.592C300.001 782.688 300.535 782.736 301.099 782.736C302.047 782.736 302.731 782.58 303.151 782.268C303.571 781.956 303.781 781.548 303.781 781.044C303.781 780.6 303.637 780.264 303.349 780.036C303.061 779.796 302.545 779.598 301.801 779.442L299.767 779.028C298.603 778.788 297.733 778.386 297.157 777.822C296.581 777.258 296.293 776.502 296.293 775.554C296.293 774.762 296.503 774.072 296.923 773.484C297.343 772.896 297.931 772.44 298.687 772.116C299.443 771.792 300.325 771.63 301.333 771.63C302.233 771.63 303.067 771.762 303.835 772.026C304.603 772.278 305.245 772.644 305.761 773.124L305.041 774.852C304.525 774.42 303.961 774.102 303.349 773.898C302.737 773.682 302.053 773.574 301.297 773.574C300.445 773.574 299.779 773.742 299.299 774.078C298.831 774.402 298.597 774.852 298.597 775.428C298.597 775.872 298.741 776.226 299.029 776.49C299.329 776.754 299.833 776.958 300.541 777.102L302.557 777.498C303.757 777.738 304.645 778.134 305.221 778.686C305.797 779.226 306.085 779.958 306.085 780.882C306.085 781.638 305.881 782.304 305.473 782.88C305.065 783.444 304.489 783.888 303.745 784.212C303.001 784.524 302.119 784.68 301.099 784.68Z" fill="black"/>
</g>
</g>
<g filter="url(#filter4_bd_52_3787)">
<rect x="47" y="824" width="343" height="56" rx="28" fill="#0050B5" shape-rendering="crispEdges"/>
<g filter="url(#filter5_d_52_3787)">
<path d="M96.5065 860.5V847.81H102.051C103.443 847.81 104.517 848.14 105.273 848.8C106.041 849.46 106.425 850.378 106.425 851.554C106.425 852.334 106.251 853 105.903 853.552C105.567 854.104 105.081 854.53 104.445 854.83C103.809 855.118 103.059 855.262 102.195 855.262L102.447 854.92H103.059C103.563 854.92 104.013 855.052 104.409 855.316C104.805 855.58 105.129 855.982 105.381 856.522L107.235 860.5H104.679L102.807 856.378C102.639 855.958 102.381 855.682 102.033 855.55C101.697 855.418 101.289 855.352 100.809 855.352H98.8285V860.5H96.5065ZM98.8285 853.642H101.673C102.489 853.642 103.107 853.474 103.527 853.138C103.959 852.79 104.175 852.286 104.175 851.626C104.175 850.966 103.959 850.468 103.527 850.132C103.107 849.796 102.489 849.628 101.673 849.628H98.8285V853.642ZM110.395 860.5V847.81H118.945V849.628H112.627V853.138H118.531V854.974H112.627V858.664H118.945V860.5H110.395ZM125.25 860.5V849.718H121.056V847.81H131.766V849.718H127.572V860.5H125.25ZM139.949 860.68C138.137 860.68 136.787 860.23 135.899 859.33C135.023 858.418 134.585 857.074 134.585 855.298V847.81H136.907V855.28C136.907 856.408 137.147 857.26 137.627 857.836C138.119 858.412 138.893 858.7 139.949 858.7C140.957 858.7 141.713 858.412 142.217 857.836C142.733 857.26 142.991 856.408 142.991 855.28V847.81H145.277V855.298C145.277 857.074 144.827 858.418 143.927 859.33C143.039 860.23 141.713 860.68 139.949 860.68ZM149.231 860.5V847.81H154.775C156.167 847.81 157.241 848.14 157.997 848.8C158.765 849.46 159.149 850.378 159.149 851.554C159.149 852.334 158.975 853 158.627 853.552C158.291 854.104 157.805 854.53 157.169 854.83C156.533 855.118 155.783 855.262 154.919 855.262L155.171 854.92H155.783C156.287 854.92 156.737 855.052 157.133 855.316C157.529 855.58 157.853 855.982 158.105 856.522L159.959 860.5H157.403L155.531 856.378C155.363 855.958 155.105 855.682 154.757 855.55C154.421 855.418 154.013 855.352 153.533 855.352H151.553V860.5H149.231ZM151.553 853.642H154.397C155.213 853.642 155.831 853.474 156.251 853.138C156.683 852.79 156.899 852.286 156.899 851.626C156.899 850.966 156.683 850.468 156.251 850.132C155.831 849.796 155.213 849.628 154.397 849.628H151.553V853.642ZM163.12 860.5V847.81H164.866L172.228 857.332H171.76V847.81H173.92V860.5H172.174L164.83 850.978H165.28V860.5H163.12ZM177.958 860.5V847.81H180.28V860.5H177.958ZM184.323 860.5V847.81H186.069L193.431 857.332H192.963V847.81H195.123V860.5H193.377L186.033 850.978H186.483V860.5H184.323ZM205.281 860.68C203.853 860.68 202.653 860.416 201.681 859.888C200.709 859.36 199.977 858.61 199.485 857.638C198.993 856.666 198.747 855.514 198.747 854.182C198.747 852.838 199.011 851.68 199.539 850.708C200.067 849.724 200.823 848.968 201.807 848.44C202.803 847.9 203.997 847.63 205.389 847.63C206.313 847.63 207.123 847.756 207.819 848.008C208.515 848.248 209.127 848.602 209.655 849.07L208.881 850.87C208.497 850.57 208.131 850.33 207.783 850.15C207.435 849.97 207.075 849.844 206.703 849.772C206.331 849.688 205.899 849.646 205.407 849.646C204.015 849.646 202.959 850.042 202.239 850.834C201.531 851.614 201.177 852.736 201.177 854.2C201.177 855.664 201.513 856.78 202.185 857.548C202.869 858.316 203.937 858.7 205.389 858.7C205.881 858.7 206.373 858.652 206.865 858.556C207.369 858.46 207.861 858.322 208.341 858.142L207.909 859.114V855.316H204.939V853.624H209.835V859.726C209.247 860.026 208.545 860.26 207.729 860.428C206.913 860.596 206.097 860.68 205.281 860.68ZM226.045 860.68C224.617 860.68 223.417 860.416 222.445 859.888C221.473 859.36 220.741 858.61 220.249 857.638C219.757 856.666 219.511 855.514 219.511 854.182C219.511 852.838 219.775 851.68 220.303 850.708C220.831 849.724 221.587 848.968 222.571 848.44C223.567 847.9 224.761 847.63 226.153 847.63C227.077 847.63 227.887 847.756 228.583 848.008C229.279 848.248 229.891 848.602 230.419 849.07L229.645 850.87C229.261 850.57 228.895 850.33 228.547 850.15C228.199 849.97 227.839 849.844 227.467 849.772C227.095 849.688 226.663 849.646 226.171 849.646C224.779 849.646 223.723 850.042 223.003 850.834C222.295 851.614 221.941 852.736 221.941 854.2C221.941 855.664 222.277 856.78 222.949 857.548C223.633 858.316 224.701 858.7 226.153 858.7C226.645 858.7 227.137 858.652 227.629 858.556C228.133 858.46 228.625 858.322 229.105 858.142L228.673 859.114V855.316H225.703V853.624H230.599V859.726C230.011 860.026 229.309 860.26 228.493 860.428C227.677 860.596 226.861 860.68 226.045 860.68ZM233.095 860.5L238.837 847.81H240.781L246.595 860.5H244.237L242.689 856.936L243.625 857.566H236.011L236.983 856.936L235.435 860.5H233.095ZM239.791 850.294L237.253 856.306L236.785 855.748H242.833L242.455 856.306L239.863 850.294H239.791ZM249.249 860.5V847.81H254.793C256.185 847.81 257.259 848.14 258.015 848.8C258.783 849.46 259.167 850.378 259.167 851.554C259.167 852.334 258.993 853 258.645 853.552C258.309 854.104 257.823 854.53 257.187 854.83C256.551 855.118 255.801 855.262 254.937 855.262L255.189 854.92H255.801C256.305 854.92 256.755 855.052 257.151 855.316C257.547 855.58 257.871 855.982 258.123 856.522L259.977 860.5H257.421L255.549 856.378C255.381 855.958 255.123 855.682 254.775 855.55C254.439 855.418 254.031 855.352 253.551 855.352H251.571V860.5H249.249ZM251.571 853.642H254.415C255.231 853.642 255.849 853.474 256.269 853.138C256.701 852.79 256.917 852.286 256.917 851.626C256.917 850.966 256.701 850.468 256.269 850.132C255.849 849.796 255.231 849.628 254.415 849.628H251.571V853.642ZM263.137 860.5V847.81H267.745C269.197 847.81 270.421 848.062 271.417 848.566C272.425 849.058 273.187 849.778 273.703 850.726C274.219 851.662 274.477 852.802 274.477 854.146C274.477 855.478 274.219 856.618 273.703 857.566C273.187 858.514 272.425 859.24 271.417 859.744C270.421 860.248 269.197 860.5 267.745 860.5H263.137ZM265.459 858.574H267.601C269.137 858.574 270.277 858.208 271.021 857.476C271.765 856.744 272.137 855.634 272.137 854.146C272.137 852.646 271.765 851.536 271.021 850.816C270.277 850.084 269.137 849.718 267.601 849.718H265.459V858.574ZM278.098 860.5V847.81H286.648V849.628H280.33V853.138H286.234V854.974H280.33V858.664H286.648V860.5H278.098ZM290.053 860.5V847.81H291.799L299.161 857.332H298.693V847.81H300.853V860.5H299.107L291.763 850.978H292.213V860.5H290.053ZM304.891 860.5V847.81H313.441V849.628H307.123V853.138H313.027V854.974H307.123V858.664H313.441V860.5H304.891ZM316.846 860.5V847.81H322.39C323.782 847.81 324.856 848.14 325.612 848.8C326.38 849.46 326.764 850.378 326.764 851.554C326.764 852.334 326.59 853 326.242 853.552C325.906 854.104 325.42 854.53 324.784 854.83C324.148 855.118 323.398 855.262 322.534 855.262L322.786 854.92H323.398C323.902 854.92 324.352 855.052 324.748 855.316C325.144 855.58 325.468 855.982 325.72 856.522L327.574 860.5H325.018L323.146 856.378C322.978 855.958 322.72 855.682 322.372 855.55C322.036 855.418 321.628 855.352 321.148 855.352H319.168V860.5H316.846ZM319.168 853.642H322.012C322.828 853.642 323.446 853.474 323.866 853.138C324.298 852.79 324.514 852.286 324.514 851.626C324.514 850.966 324.298 850.468 323.866 850.132C323.446 849.796 322.828 849.628 322.012 849.628H319.168V853.642ZM335.128 860.68C334.108 860.68 333.166 860.554 332.302 860.302C331.45 860.038 330.718 859.678 330.106 859.222L330.826 857.404C331.234 857.692 331.66 857.938 332.104 858.142C332.548 858.334 333.022 858.484 333.526 858.592C334.03 858.688 334.564 858.736 335.128 858.736C336.076 858.736 336.76 858.58 337.18 858.268C337.6 857.956 337.81 857.548 337.81 857.044C337.81 856.6 337.666 856.264 337.378 856.036C337.09 855.796 336.574 855.598 335.83 855.442L333.796 855.028C332.632 854.788 331.762 854.386 331.186 853.822C330.61 853.258 330.322 852.502 330.322 851.554C330.322 850.762 330.532 850.072 330.952 849.484C331.372 848.896 331.96 848.44 332.716 848.116C333.472 847.792 334.354 847.63 335.362 847.63C336.262 847.63 337.096 847.762 337.864 848.026C338.632 848.278 339.274 848.644 339.79 849.124L339.07 850.852C338.554 850.42 337.99 850.102 337.378 849.898C336.766 849.682 336.082 849.574 335.326 849.574C334.474 849.574 333.808 849.742 333.328 850.078C332.86 850.402 332.626 850.852 332.626 851.428C332.626 851.872 332.77 852.226 333.058 852.49C333.358 852.754 333.862 852.958 334.57 853.102L336.586 853.498C337.786 853.738 338.674 854.134 339.25 854.686C339.826 855.226 340.114 855.958 340.114 856.882C340.114 857.638 339.91 858.304 339.502 858.88C339.094 859.444 338.518 859.888 337.774 860.212C337.03 860.524 336.148 860.68 335.128 860.68Z" fill="white"/>
</g>
</g>
<g filter="url(#filter6_d_52_3787)">
<circle cx="218" cy="402" r="182" fill="white"/>
<g filter="url(#filter7_d_52_3787)">
<path d="M379.21 394.921C379.897 428.293 372.851 458.612 355.493 485.749C319.143 542.474 266.467 569.009 199.912 562.128C134.861 555.376 89.8328 518.907 64.9124 458.354C56.6925 437.447 53.2144 414.972 54.7294 392.555C54.8109 390.794 55.5645 389.132 56.8348 387.911C64.4828 382.019 72.1307 375.998 80.2084 370.708C97.3948 359.011 114.581 360.301 130.178 373.891C139.33 381.804 148.439 389.717 157.676 397.458C179.091 415.846 205.91 426.747 234.07 428.508C267.24 430.788 300.152 429.325 331.603 417.327C343.849 412.682 355.321 406.102 367.179 400.468C370.703 398.705 374.484 397.071 379.21 394.921ZM202.318 452.764C189.901 444.593 177.14 452.764 175.25 467.429C174.667 471.882 174.929 476.405 176.023 480.761C179.245 493.662 192.35 497.404 202.275 488.287C202.805 487.91 203.365 487.579 203.951 487.297C205.111 500.199 201.33 501.833 179.847 498.436C178.214 506.65 178.214 507.338 186.034 508.327C191.745 509.072 197.534 508.985 203.22 508.069C206.604 507.66 209.722 506.026 211.985 503.475C214.249 500.924 215.502 497.633 215.509 494.221C215.938 480.029 215.509 465.837 215.509 450.656L202.318 452.764ZM104.699 484.76V468.031H121.284V459.774H104.57V444.463H125.667V436.636H92.5397V492.888H127.428V484.76H104.699ZM132.111 451.301C132.111 462.44 131.596 473.234 132.111 483.986C132.237 485.776 132.784 487.511 133.709 489.048C134.634 490.585 135.91 491.881 137.432 492.83C138.954 493.778 140.678 494.352 142.465 494.504C144.251 494.656 146.048 494.383 147.708 493.705C151.271 492.202 154.682 490.359 157.891 488.201L158.665 493.017H169.621V451.43H158.192C158.192 459.473 158.192 467.171 158.192 474.869C157.984 477.382 156.903 479.743 155.137 481.542C153.371 483.341 151.032 484.464 148.525 484.717C142.509 484.115 143.884 479.298 143.798 475.557C143.798 467.515 143.798 459.516 143.798 451.301H132.111ZM265.307 493.06H276.521C276.521 485.233 276.521 477.664 276.521 470.138C276.63 467.529 277.655 465.042 279.415 463.115C281.176 461.187 283.559 459.943 286.145 459.602C292.504 459.989 290.914 465.149 291.258 469.02C291.258 470.482 291.258 471.901 291.258 473.32V492.974H302.816C302.816 482.997 302.816 473.277 302.816 463.558C303.164 461.123 302.747 458.639 301.623 456.451C300.5 454.263 298.724 452.478 296.543 451.344C294.08 450.17 291.335 449.721 288.627 450.048C285.919 450.376 283.36 451.466 281.247 453.194C279.743 454.269 278.411 455.645 276.95 457.107L276.435 451.43H265.264L265.307 493.06ZM258.991 474.697C258.647 470.998 258.475 468.16 258.045 465.364C256.713 456.29 252.159 451.344 244.339 450.226C240.237 449.385 235.972 449.909 232.195 451.718C228.417 453.526 225.334 456.522 223.415 460.247C214.821 477.449 225.52 494.651 244.468 494.221C247.164 494.114 249.85 493.812 252.503 493.318C259.549 492.071 259.936 491.426 257.959 484.072C240.429 487.771 233.812 485.276 233.898 474.697H258.991ZM344.923 474.697C344.923 471.213 344.923 468.375 344.407 465.536C344.305 462.078 343.086 458.746 340.933 456.04C338.779 453.334 335.807 451.4 332.463 450.527C328.714 449.435 324.726 449.485 321.006 450.673C317.287 451.86 314.005 454.13 311.581 457.193C308.878 460.877 307.249 465.241 306.878 469.797C306.506 474.353 307.405 478.922 309.476 482.997C313.214 491.598 320.647 494.178 329.326 494.264C332.208 494.267 335.084 494.008 337.919 493.49C345.739 492.243 345.782 492.114 344.321 484.158C326.276 487.512 319.917 485.147 320.26 474.826H344.966L344.923 474.697Z" fill="#5C8727"/>
</g>
<g filter="url(#filter8_d_52_3787)">
<path d="M376.503 382.449C367.944 375.994 359.793 369.013 352.098 361.548C339.208 347.657 327.564 332.734 315.233 318.542C310.44 312.667 305.273 307.108 299.765 301.899C286.618 290.029 271.579 286.89 255.295 294.803C235.402 304.479 215.423 314.069 195.959 324.606C173.617 336.691 151.833 349.807 129.834 362.494C124.935 359.76 119.885 357.305 114.71 355.14C109.331 353.242 103.613 352.499 97.9275 352.958C92.2423 353.418 86.7174 355.07 81.712 357.806C73.9781 361.591 66.2871 365.462 58.3384 369.418C66.5019 312.22 121.026 243.755 206.743 238.723C248.015 236.045 288.742 249.308 320.538 275.781C352.334 302.254 372.779 339.923 377.663 381.03L376.503 382.449Z" fill="#4F91CD"/>
</g>
<g filter="url(#filter9_d_52_3787)">
<path d="M369.543 384.513C357.856 381.546 346.255 378.363 334.525 375.654C314.847 371.052 295.082 373.418 275.404 375.912C262.17 377.589 262.17 377.761 253.921 367.311C252.331 365.332 250.741 363.44 248.765 361.075L237.379 373.246L232.523 369.203L224.618 377.804V353.85H211.728V379.309C205.197 381.073 208.291 375.955 206.572 373.461H198.795V362.838H190.202L189.643 369.117C184.745 367.053 187.753 362.709 185.862 359.312H176.324V380.815L148.138 369.031L148.396 367.139C156.989 361.032 165.84 354.667 174.82 348.818C195.401 335.443 215.724 322.111 236.605 309.296C244.259 304.899 252.264 301.145 260.537 298.071C265.792 295.757 271.634 295.131 277.259 296.278C282.884 297.426 288.015 300.291 291.946 304.479C295.775 308.036 299.151 312.052 302 316.435C318.655 342.136 340.453 364.102 366.019 380.944C367.308 381.847 368.554 382.879 369.843 383.825L369.543 384.513Z" fill="#5C8727"/>
</g>
<g filter="url(#filter10_d_52_3787)">
<path d="M229.773 392.985C262.213 387.051 293.277 376.6 325.975 380.729C339.681 382.492 353.086 386.233 366.621 389.33C368.558 389.945 370.441 390.722 372.249 391.652C334.783 418.359 258.002 419.391 229.773 392.985Z" fill="#5C8727"/>
</g>
<g filter="url(#filter11_d_52_3787)">
<path d="M145.388 376.686C153.766 379.997 162.574 383.653 171.382 386.878C187.443 392.136 204.289 394.58 221.18 394.103C223.264 394.016 225.331 394.507 227.153 395.523C240.402 405.19 255.316 412.333 271.15 416.596C230.203 422.315 172.628 411.693 145.388 376.686Z" fill="#5C8727"/>
</g>
<path d="M202.318 452.764L215.509 450.57C215.509 465.751 215.81 479.943 215.509 494.135C215.502 497.547 214.249 500.838 211.985 503.389C209.722 505.94 206.605 507.574 203.221 507.983C197.534 508.899 191.745 508.986 186.034 508.241C178.214 507.338 178.214 506.65 179.847 498.436C201.33 501.833 205.111 500.156 203.951 487.297C203.366 487.579 202.805 487.91 202.275 488.287C192.35 497.404 179.246 493.791 176.023 480.76C174.93 476.405 174.667 471.882 175.25 467.429C177.14 452.893 189.901 444.592 202.318 452.764ZM204.338 470.654C204.263 469.394 204.263 468.13 204.338 466.87C204.579 465.801 204.581 464.693 204.345 463.623C204.108 462.554 203.638 461.55 202.969 460.683C202.3 459.816 201.448 459.108 200.474 458.609C199.5 458.109 198.428 457.832 197.334 457.795C196.348 457.612 195.335 457.633 194.358 457.859C193.381 458.084 192.46 458.509 191.654 459.106C190.848 459.703 190.173 460.46 189.672 461.33C189.171 462.199 188.854 463.163 188.741 464.16C187.742 468.68 187.596 473.348 188.311 477.922C189.429 483.857 195.014 485.362 200.084 482.223C201.874 480.947 203.238 479.16 203.997 477.096C204.756 475.032 204.875 472.787 204.338 470.654Z" fill="white"/>
<path d="M104.699 484.76H127.428V492.888H92.5396V436.636H125.666V444.463H104.57V459.774H121.284V468.031H104.699V484.76Z" fill="white"/>
<path d="M132.111 451.301H143.841C143.841 459.516 143.841 467.515 143.841 475.557C143.841 479.298 142.552 484.158 148.567 484.717C151.074 484.464 153.414 483.341 155.18 481.542C156.946 479.743 158.027 477.382 158.235 474.869C158.235 467.171 158.235 459.473 158.235 451.43H169.621V493.017H158.664L157.891 488.201C154.681 490.359 151.271 492.202 147.708 493.705C146.057 494.349 144.278 494.596 142.514 494.427C140.75 494.258 139.05 493.678 137.551 492.733C136.051 491.788 134.794 490.505 133.879 488.986C132.964 487.467 132.418 485.754 132.283 483.986C131.596 473.234 132.111 462.44 132.111 451.301Z" fill="white"/>
<path d="M265.264 493.06V451.474H276.22L276.736 457.15C278.411 455.688 279.743 454.312 281.032 453.237C283.145 451.509 285.704 450.419 288.412 450.091C291.12 449.764 293.866 450.213 296.328 451.388C298.549 452.489 300.37 454.26 301.533 456.451C302.697 458.641 303.146 461.142 302.816 463.601C302.816 473.321 302.816 483.04 302.816 493.017H291.301V473.364C291.301 471.901 291.301 470.482 291.301 469.063C290.957 465.192 292.547 460.032 286.188 459.645C283.602 459.987 281.219 461.231 279.458 463.158C277.698 465.085 276.673 467.572 276.564 470.181C276.564 477.707 276.564 485.276 276.564 493.103L265.264 493.06Z" fill="white"/>
<path d="M258.991 474.697H234.07C234.07 485.276 240.601 487.598 258.131 484.072C260.108 491.426 259.721 492.071 252.675 493.318C250.022 493.812 247.336 494.114 244.64 494.221C225.692 494.565 215.036 477.32 223.586 460.247C225.506 456.522 228.589 453.526 232.367 451.717C236.144 449.909 240.409 449.385 244.511 450.226C252.331 451.344 256.885 456.29 258.217 465.364C258.475 468.16 258.647 470.998 258.991 474.697ZM233.211 467.343H247.003C246.745 462.655 246.144 458.44 240.816 457.666C236.949 457.064 234.07 460.591 233.383 467.343H233.211Z" fill="white"/>
<path d="M345.052 474.783H320.346C320.003 485.104 326.362 487.469 344.407 484.115C345.868 492.071 345.825 492.2 338.005 493.447C335.17 493.965 332.294 494.225 329.412 494.221C320.819 494.221 313.3 491.426 309.562 482.954C307.491 478.879 306.592 474.31 306.964 469.754C307.335 465.198 308.964 460.834 311.667 457.15C314.091 454.087 317.373 451.817 321.092 450.63C324.812 449.442 328.8 449.392 332.549 450.484C335.893 451.357 338.865 453.291 341.019 455.997C343.172 458.703 344.391 462.035 344.493 465.493C344.88 468.461 344.88 471.299 345.052 474.783ZM333.107 467.386C333.107 460.978 331.217 457.666 327.092 457.58C322.967 457.494 320.26 461.021 320.003 467.386H333.107Z" fill="white"/>
<path d="M204.338 470.654C204.833 472.766 204.689 474.978 203.924 477.008C203.159 479.037 201.807 480.793 200.041 482.051C194.971 485.362 189.386 483.857 188.268 477.75C187.553 473.176 187.699 468.509 188.698 463.988C188.811 462.991 189.128 462.027 189.629 461.158C190.13 460.288 190.805 459.531 191.611 458.934C192.417 458.337 193.338 457.913 194.315 457.687C195.292 457.461 196.305 457.44 197.291 457.623C198.385 457.66 199.457 457.937 200.431 458.437C201.405 458.936 202.257 459.644 202.926 460.511C203.595 461.378 204.065 462.382 204.302 463.451C204.538 464.521 204.536 465.629 204.295 466.698C204.228 468.016 204.242 469.337 204.338 470.654Z" fill="#5C8727"/>
<path d="M233.383 467.343C234.199 460.591 236.949 457.064 240.988 457.666C246.316 458.44 246.917 462.655 247.175 467.343H233.383Z" fill="#5C8727"/>
<path d="M333.107 467.386H320.002C320.303 461.107 323.01 457.451 327.135 457.58C331.26 457.709 333.279 461.021 333.107 467.386Z" fill="#5C8727"/>
</g>
</g>
</g>
<defs>
<filter id="filter0_d_52_3787" x="0" y="0" width="436" height="934" filterUnits="userSpaceOnUse" color-interpolation-filters="sRGB">
<feFlood flood-opacity="0" result="BackgroundImageFix"/>
<feColorMatrix in="SourceAlpha" type="matrix" values="0 0 0 0 0 0 0 0 0 0 0 0 0 0 0 0 0 0 127 0" result="hardAlpha"/>
<feOffset dy="4"/>
<feGaussianBlur stdDeviation="2"/>
<feComposite in2="hardAlpha" operator="out"/>
<feColorMatrix type="matrix" values="0 0 0 0 0 0 0 0 0 0 0 0 0 0 0 0 0 0 0.25 0"/>
<feBlend mode="normal" in2="BackgroundImageFix" result="effect1_dropShadow_52_3787"/>
<feBlend mode="normal" in="SourceGraphic" in2="effect1_dropShadow_52_3787" result="shape"/>
</filter>
<filter id="filter1_bd_52_3787" x="16.1328" y="590.26" width="408.749" height="130.91" filterUnits="userSpaceOnUse" color-interpolation-filters="sRGB">
<feFlood flood-opacity="0" result="BackgroundImageFix"/>
<feGaussianBlur in="BackgroundImageFix" stdDeviation="12.5"/>
<feComposite in2="SourceAlpha" operator="in" result="effect1_backgroundBlur_52_3787"/>
<feColorMatrix in="SourceAlpha" type="matrix" values="0 0 0 0 0 0 0 0 0 0 0 0 0 0 0 0 0 0 127 0" result="hardAlpha"/>
<feOffset dy="4"/>
<feGaussianBlur stdDeviation="2"/>
<feComposite in2="hardAlpha" operator="out"/>
<feColorMatrix type="matrix" values="0 0 0 0 0 0 0 0 0 0 0 0 0 0 0 0 0 0 0.25 0"/>
<feBlend mode="normal" in2="effect1_backgroundBlur_52_3787" result="effect2_dropShadow_52_3787"/>
<feBlend mode="normal" in="SourceGraphic" in2="effect2_dropShadow_52_3787" result="shape"/>
</filter>
<filter id="filter2_bd_52_3787" x="22" y="723" width="393" height="106" filterUnits="userSpaceOnUse" color-interpolation-filters="sRGB">
<feFlood flood-opacity="0" result="BackgroundImageFix"/>
<feGaussianBlur in="BackgroundImageFix" stdDeviation="12.5"/>
<feComposite in2="SourceAlpha" operator="in" result="effect1_backgroundBlur_52_3787"/>
<feColorMatrix in="SourceAlpha" type="matrix" values="0 0 0 0 0 0 0 0 0 0 0 0 0 0 0 0 0 0 127 0" result="hardAlpha"/>
<feOffset dy="4"/>
<feGaussianBlur stdDeviation="2"/>
<feComposite in2="hardAlpha" operator="out"/>
<feColorMatrix type="matrix" values="0 0 0 0 0 0 0 0 0 0 0 0 0 0 0 0 0 0 0.25 0"/>
<feBlend mode="normal" in2="effect1_backgroundBlur_52_3787" result="effect2_dropShadow_52_3787"/>
<feBlend mode="normal" in="SourceGraphic" in2="effect2_dropShadow_52_3787" result="shape"/>
</filter>
<filter id="filter3_d_52_3787" x="127.536" y="771.63" width="182.549" height="21.05" filterUnits="userSpaceOnUse" color-interpolation-filters="sRGB">
<feFlood flood-opacity="0" result="BackgroundImageFix"/>
<feColorMatrix in="SourceAlpha" type="matrix" values="0 0 0 0 0 0 0 0 0 0 0 0 0 0 0 0 0 0 127 0" result="hardAlpha"/>
<feOffset dy="4"/>
<feGaussianBlur stdDeviation="2"/>
<feComposite in2="hardAlpha" operator="out"/>
<feColorMatrix type="matrix" values="0 0 0 0 0 0 0 0 0 0 0 0 0 0 0 0 0 0 0.25 0"/>
<feBlend mode="normal" in2="BackgroundImageFix" result="effect1_dropShadow_52_3787"/>
<feBlend mode="normal" in="SourceGraphic" in2="effect1_dropShadow_52_3787" result="shape"/>
</filter>
<filter id="filter4_bd_52_3787" x="22" y="799" width="393" height="106" filterUnits="userSpaceOnUse" color-interpolation-filters="sRGB">
<feFlood flood-opacity="0" result="BackgroundImageFix"/>
<feGaussianBlur in="BackgroundImageFix" stdDeviation="12.5"/>
<feComposite in2="SourceAlpha" operator="in" result="effect1_backgroundBlur_52_3787"/>
<feColorMatrix in="SourceAlpha" type="matrix" values="0 0 0 0 0 0 0 0 0 0 0 0 0 0 0 0 0 0 127 0" result="hardAlpha"/>
<feOffset dy="4"/>
<feGaussianBlur stdDeviation="2"/>
<feComposite in2="hardAlpha" operator="out"/>
<feColorMatrix type="matrix" values="0 0 0 0 0 0 0 0 0 0 0 0 0 0 0 0 0 0 0.25 0"/>
<feBlend mode="normal" in2="effect1_backgroundBlur_52_3787" result="effect2_dropShadow_52_3787"/>
<feBlend mode="normal" in="SourceGraphic" in2="effect2_dropShadow_52_3787" result="shape"/>
</filter>
<filter id="filter5_d_52_3787" x="92.5063" y="847.63" width="251.607" height="21.05" filterUnits="userSpaceOnUse" color-interpolation-filters="sRGB">
<feFlood flood-opacity="0" result="BackgroundImageFix"/>
<feColorMatrix in="SourceAlpha" type="matrix" values="0 0 0 0 0 0 0 0 0 0 0 0 0 0 0 0 0 0 127 0" result="hardAlpha"/>
<feOffset dy="4"/>
<feGaussianBlur stdDeviation="2"/>
<feComposite in2="hardAlpha" operator="out"/>
<feColorMatrix type="matrix" values="0 0 0 0 0 0 0 0 0 0 0 0 0 0 0 0 0 0 0.25 0"/>
<feBlend mode="normal" in2="BackgroundImageFix" result="effect1_dropShadow_52_3787"/>
<feBlend mode="normal" in="SourceGraphic" in2="effect1_dropShadow_52_3787" result="shape"/>
</filter>
<filter id="filter6_d_52_3787" x="36" y="220" width="374" height="379" filterUnits="userSpaceOnUse" color-interpolation-filters="sRGB">
<feFlood flood-opacity="0" result="BackgroundImageFix"/>
<feColorMatrix in="SourceAlpha" type="matrix" values="0 0 0 0 0 0 0 0 0 0 0 0 0 0 0 0 0 0 127 0" result="hardAlpha"/>
<feOffset dx="5" dy="10"/>
<feGaussianBlur stdDeviation="2.5"/>
<feComposite in2="hardAlpha" operator="out"/>
<feColorMatrix type="matrix" values="0 0 0 0 0 0 0 0 0 0 0 0 0 0 0 0 0 0 0.25 0"/>
<feBlend mode="normal" in2="BackgroundImageFix" result="effect1_dropShadow_52_3787"/>
<feBlend mode="normal" in="SourceGraphic" in2="effect1_dropShadow_52_3787" result="shape"/>
</filter>
<filter id="filter7_d_52_3787" x="50.3838" y="362.743" width="332.872" height="208.452" filterUnits="userSpaceOnUse" color-interpolation-filters="sRGB">
<feFlood flood-opacity="0" result="BackgroundImageFix"/>
<feColorMatrix in="SourceAlpha" type="matrix" values="0 0 0 0 0 0 0 0 0 0 0 0 0 0 0 0 0 0 127 0" result="hardAlpha"/>
<feOffset dy="4"/>
<feGaussianBlur stdDeviation="2"/>
<feComposite in2="hardAlpha" operator="out"/>
<feColorMatrix type="matrix" values="0 0 0 0 0 0 0 0 0 0 0 0 0 0 0 0 0 0 0.25 0"/>
<feBlend mode="normal" in2="BackgroundImageFix" result="effect1_dropShadow_52_3787"/>
<feBlend mode="normal" in="SourceGraphic" in2="effect1_dropShadow_52_3787" result="shape"/>
</filter>
<filter id="filter8_d_52_3787" x="54.3384" y="238.384" width="327.324" height="152.065" filterUnits="userSpaceOnUse" color-interpolation-filters="sRGB">
<feFlood flood-opacity="0" result="BackgroundImageFix"/>
<feColorMatrix in="SourceAlpha" type="matrix" values="0 0 0 0 0 0 0 0 0 0 0 0 0 0 0 0 0 0 127 0" result="hardAlpha"/>
<feOffset dy="4"/>
<feGaussianBlur stdDeviation="2"/>
<feComposite in2="hardAlpha" operator="out"/>
<feColorMatrix type="matrix" values="0 0 0 0 0 0 0 0 0 0 0 0 0 0 0 0 0 0 0.25 0"/>
<feBlend mode="normal" in2="BackgroundImageFix" result="effect1_dropShadow_52_3787"/>
<feBlend mode="normal" in="SourceGraphic" in2="effect1_dropShadow_52_3787" result="shape"/>
</filter>
<filter id="filter9_d_52_3787" x="144.138" y="295.719" width="229.705" height="96.7946" filterUnits="userSpaceOnUse" color-interpolation-filters="sRGB">
<feFlood flood-opacity="0" result="BackgroundImageFix"/>
<feColorMatrix in="SourceAlpha" type="matrix" values="0 0 0 0 0 0 0 0 0 0 0 0 0 0 0 0 0 0 127 0" result="hardAlpha"/>
<feOffset dy="4"/>
<feGaussianBlur stdDeviation="2"/>
<feComposite in2="hardAlpha" operator="out"/>
<feColorMatrix type="matrix" values="0 0 0 0 0 0 0 0 0 0 0 0 0 0 0 0 0 0 0.25 0"/>
<feBlend mode="normal" in2="BackgroundImageFix" result="effect1_dropShadow_52_3787"/>
<feBlend mode="normal" in="SourceGraphic" in2="effect1_dropShadow_52_3787" result="shape"/>
</filter>
<filter id="filter10_d_52_3787" x="225.773" y="379.788" width="150.476" height="40.4575" filterUnits="userSpaceOnUse" color-interpolation-filters="sRGB">
<feFlood flood-opacity="0" result="BackgroundImageFix"/>
<feColorMatrix in="SourceAlpha" type="matrix" values="0 0 0 0 0 0 0 0 0 0 0 0 0 0 0 0 0 0 127 0" result="hardAlpha"/>
<feOffset dy="4"/>
<feGaussianBlur stdDeviation="2"/>
<feComposite in2="hardAlpha" operator="out"/>
<feColorMatrix type="matrix" values="0 0 0 0 0 0 0 0 0 0 0 0 0 0 0 0 0 0 0.25 0"/>
<feBlend mode="normal" in2="BackgroundImageFix" result="effect1_dropShadow_52_3787"/>
<feBlend mode="normal" in="SourceGraphic" in2="effect1_dropShadow_52_3787" result="shape"/>
</filter>
<filter id="filter11_d_52_3787" x="141.388" y="376.686" width="133.762" height="49.3704" filterUnits="userSpaceOnUse" color-interpolation-filters="sRGB">
<feFlood flood-opacity="0" result="BackgroundImageFix"/>
<feColorMatrix in="SourceAlpha" type="matrix" values="0 0 0 0 0 0 0 0 0 0 0 0 0 0 0 0 0 0 127 0" result="hardAlpha"/>
<feOffset dy="4"/>
<feGaussianBlur stdDeviation="2"/>
<feComposite in2="hardAlpha" operator="out"/>
<feColorMatrix type="matrix" values="0 0 0 0 0 0 0 0 0 0 0 0 0 0 0 0 0 0 0.25 0"/>
<feBlend mode="normal" in2="BackgroundImageFix" result="effect1_dropShadow_52_3787"/>
<feBlend mode="normal" in="SourceGraphic" in2="effect1_dropShadow_52_3787" result="shape"/>
</filter>
<clipPath id="clip0_52_3787">
<rect x="4" width="428" height="926" rx="30" fill="white"/>
</clipPath>
</defs>
</svg>
