<?xml version="1.0" encoding="UTF-8"?><svg id="Layer_2" xmlns="http://www.w3.org/2000/svg" viewBox="0 0 389.21 194.28"><g id="Layer_1-2"><g><path d="m13.76,23.57c-1.56.57-3.16.88-4.83,1.11h-.14c-.4,0-.77-.17-.97-.51l-3.84,10.01c-.17.46-.54.74-1.02.74-.62,0-1.25-.48-1.25-1.14,0-.14.03-.31.08-.45l7.11-18.51c.17-.45.54-.74,1.02-.74.63,0,1.22.48,1.25,1.14,0,.14-.06.31-.11.46l-2.56,6.71.14-.03c3.7-.74,8.3-1.71,9.67-5.69.09-.26.14-.57.14-.85-.03-1.79-1.9-2.84-3.47-3.1-.91-.14-1.85-.17-2.76-.17-2.5,0-5.17.26-7.56.99-.14.03-.26.06-.43.06-.65,0-1.14-.57-1.14-1.22,0-.54.31-.85.77-1.05,1.9-.77,6.23-1.11,8.3-1.11,1.02,0,2.08.03,3.13.2,2.84.43,5.37,2.16,5.43,5.29.06,3.92-3.67,6.68-6.96,7.87Z"/><path d="m26.3,32.87c-.03.63-.65,1.08-1.25,1.08-.48,0-.85-.28-1.02-.71l-1.85-4.46h-1.34l-.97,4.24c-.11.57-.54.94-1.14.94s-1.17-.46-1.14-1.08l.03-.26,2.67-12.11c.14-.68.63-.54,1.19-.54h3.58c1.99,0,3.16,1.88,3.1,3.75-.08,1.99-1.59,4.26-3.55,4.89.28.68,1.68,3.72,1.68,4.26Zm-4.04-10.63l-.91,4.26h2.45c1.02,0,2.05-1.96,2.08-2.81,0-.51-.26-1.45-.88-1.45h-2.73Z"/><path d="m29.23,28.18c.14-3.7,3.18-8.33,7.25-8.33,3.18,0,4.66,2.84,4.55,5.71-.11,3.7-3.16,8.33-7.19,8.33-3.21,0-4.72-2.84-4.61-5.71Zm2.3.11c-.06,1.45.62,3.33,2.36,3.33,2.79,0,4.8-3.75,4.86-6.17.06-1.45-.63-3.33-2.36-3.33-2.79,0-4.78,3.78-4.86,6.17Z"/><path d="m43.76,32.9l-1-11.85v-.11c-.03-.71.54-1.14,1.22-1.14.6,0,1.05.4,1.11.99l.63,8.1,4.35-8.44c.2-.43.57-.65,1.05-.65.57,0,1.17.45,1.14,1.08-.03.71-5.63,11.03-6.34,12.37-.2.43-.62.82-1.14.82-.65,0-1-.6-1.02-1.17Z"/><path d="m52.72,32.93l.06-.26,2.59-11.91c.14-.57.6-.94,1.17-.94.63,0,1.17.45,1.14,1.11l-.03.23-2.62,11.91c-.11.57-.57.97-1.14.97-.62,0-1.17-.48-1.17-1.11Z"/><path d="m58.66,33.75c-.46,0-.82-.11-.8-.6.03-.45,2.73-12,2.96-12.54.17-.51.51-.65,1.02-.65h3.13c3.18,0,4.55,2.47,4.46,5.4-.14,3.81-2.81,8.39-7.08,8.39h-3.7Zm2.05-2.27h1.73c2.84,0,4.63-3.72,4.72-6.14.06-1.56-.51-3.1-2.27-3.1h-2.16l-2.02,9.24Z"/><path d="m74.01,26.02h4.01c.68,0,1.17.46,1.14,1.14-.03.65-.54,1.14-1.22,1.14h-4.43l-.68,3.18h4.97c.65,0,1.11.46,1.11,1.14s-.54,1.14-1.19,1.14h-6.37c-.54,0-1.22-.23-1.19-.82l.03-.2c.2-1.76.77-3.58,1.17-5.32.48-2.16.85-4.38,1.42-6.48.14-.48.68-.97,1.19-.97h6.28c.65,0,1.14.48,1.11,1.14-.03.68-.51,1.14-1.19,1.14h-5.34l-.8,3.78Z"/><path d="m88.09,21.92c-1.25,0-2.62.91-2.64,2.33-.09,1.99,5.29.71,5.14,4.66-.08,2.98-2.44,5.2-5.34,5.2-1.11,0-3.7-.8-3.64-2.25.03-.63.62-1.17,1.22-1.17.85,0,.99,1.08,2.5,1.08,1.22,0,2.9-1.19,2.93-2.59.09-1.99-5.34-.94-5.2-4.8.11-2.81,2.42-4.83,5.12-4.83,1.34,0,3.64.94,3.58,2.59-.03.65-.65,1.17-1.28,1.17-1.22,0-.65-1.39-2.39-1.39Z"/><path d="m105.09,31.59c-.2.43-.82,1.34-1.14,2.16-.26.77-.77.97-1.19.97-.62,0-1.19-.51-1.17-1.11.03-.74,6.23-11.77,6.96-13.13.23-.43.65-.8,1.14-.8.62,0,.97.57,1.02,1.17l1.25,11.74v.2c.03.68-.6,1.11-1.22,1.11-1.28,0-1.14-1.39-1.22-2.3h-4.43Zm1.25-2.27h2.96l-.51-4.52-2.44,4.52Z"/><path d="m130.11,21.92c-1.25,0-2.62.91-2.64,2.33-.09,1.99,5.29.71,5.14,4.66-.08,2.98-2.44,5.2-5.34,5.2-1.11,0-3.7-.8-3.64-2.25.03-.63.62-1.17,1.22-1.17.85,0,.99,1.08,2.5,1.08,1.22,0,2.9-1.19,2.93-2.59.09-1.99-5.34-.94-5.2-4.8.11-2.81,2.42-4.83,5.12-4.83,1.34,0,3.64.94,3.58,2.59-.03.65-.65,1.17-1.28,1.17-1.22,0-.65-1.39-2.39-1.39Z"/><path d="m134.92,30.22c.03-.51.08-1.02.2-1.51l1.79-7.99c.14-.57.6-.91,1.17-.91.63,0,1.17.43,1.14,1.08l-.03.23-1.62,7.14c-.14.6-.26,1.19-.28,1.79-.03,1.05.2,1.53,1.31,1.53,2.02,0,2.96-.51,3.5-2.56.74-2.73,1.17-5.57,1.99-8.3.14-.57.51-.91,1.14-.91s1.14.43,1.11,1.08l-.03.23c-.34,2.76-1.25,5.6-1.93,8.3-.74,2.96-2.44,4.43-5.51,4.43-2.42,0-4.01-1.05-3.92-3.64Z"/><path d="m155.7,32.87c-.03.63-.65,1.08-1.25,1.08-.48,0-.85-.28-1.02-.71l-1.85-4.46h-1.34l-.97,4.24c-.11.57-.54.94-1.14.94s-1.17-.46-1.14-1.08l.03-.26,2.67-12.11c.14-.68.63-.54,1.19-.54h3.58c1.99,0,3.16,1.88,3.1,3.75-.08,1.99-1.59,4.26-3.55,4.89.28.68,1.68,3.72,1.68,4.26Zm-4.04-10.63l-.91,4.26h2.45c1.02,0,2.05-1.96,2.08-2.81,0-.51-.26-1.45-.88-1.45h-2.73Z"/><path d="m160.62,32.81c-.11.57-.57.94-1.14.94-.62,0-1.17-.43-1.14-1.11l.03-.23,2.53-11.48c.14-.65.68-.97,1.25-.97h4.18c2.1,0,3.38,1.76,3.3,3.78-.08,2.42-2.25,5.43-4.89,5.43h-3.33l-.8,3.64Zm2.33-10.58l-1.02,4.69h2.9c1.31,0,2.44-2.08,2.5-3.18,0-.68-.31-1.51-1.08-1.51h-3.3Z"/><path d="m178.7,32.87c-.03.63-.65,1.08-1.25,1.08-.48,0-.85-.28-1.02-.71l-1.85-4.46h-1.34l-.97,4.24c-.11.57-.54.94-1.14.94s-1.17-.46-1.14-1.08l.03-.26,2.67-12.11c.14-.68.63-.54,1.19-.54h3.58c1.99,0,3.16,1.88,3.1,3.75-.08,1.99-1.59,4.26-3.55,4.89.28.68,1.68,3.72,1.68,4.26Zm-4.04-10.63l-.91,4.26h2.45c1.02,0,2.05-1.96,2.08-2.81,0-.51-.26-1.45-.88-1.45h-2.73Z"/><path d="m181.72,32.93l.06-.26,2.59-11.91c.14-.57.6-.94,1.17-.94.63,0,1.17.45,1.14,1.11l-.03.23-2.62,11.91c-.11.57-.57.97-1.14.97-.62,0-1.17-.48-1.17-1.11Z"/><path d="m193.54,21.92c-1.25,0-2.62.91-2.64,2.33-.09,1.99,5.29.71,5.14,4.66-.08,2.98-2.44,5.2-5.34,5.2-1.11,0-3.7-.8-3.64-2.25.03-.63.62-1.17,1.22-1.17.85,0,.99,1.08,2.5,1.08,1.22,0,2.9-1.19,2.93-2.59.09-1.99-5.34-.94-5.2-4.8.11-2.81,2.42-4.83,5.12-4.83,1.34,0,3.64.94,3.58,2.59-.03.65-.65,1.17-1.28,1.17-1.22,0-.65-1.39-2.39-1.39Z"/><path d="m198.18,32.93l.06-.26,2.59-11.91c.14-.57.6-.94,1.17-.94.63,0,1.17.45,1.14,1.11l-.03.23-2.62,11.91c-.11.57-.57.97-1.14.97-.62,0-1.17-.48-1.17-1.11Z"/><path d="m211.06,32.67c-1.08-2.56-1.99-5.23-2.99-7.85l-1.76,8.02c-.11.57-.54.91-1.14.91s-1.17-.43-1.14-1.08l.03-.26,2.53-11.48c.14-.62.8-.97,1.34-.97.43,0,.91.4,1.08.74.31.62.54,1.45.77,2.16.74,2.02,1.45,4.09,2.1,6.17l1.79-8.1c.14-.57.57-.97,1.14-.97.65,0,1.19.45,1.17,1.11l-.03.26-2.59,11.63c-.06.4-.57.97-1,.97-.74,0-1.05-.65-1.31-1.25Z"/><path d="m224.73,22.09c-2.59,0-4.89,4.01-4.97,6.25-.06,1.51.88,3.33,2.56,3.33.4,0,.8-.06,1.14-.23l1.11-5.2c.17-.65.65-1.19,1.36-1.19.65,0,1.05.51,1.02,1.17-.06,1.42-.82,4.55-1.11,6.08-.2,1.11-2.67,1.65-3.58,1.65-3.07,0-4.89-2.84-4.8-5.69.14-3.52,3.5-8.44,7.36-8.44.94,0,3.13.43,3.07,1.68-.03.63-.57,1.17-1.19,1.17s-.77-.57-1.96-.57Z"/><path d="m229.17,32.98c0-.11.03-.26.06-.4.43-2.3.97-4.55,1.45-6.85.34-1.59.62-3.24,1.05-4.8.14-.6.54-.97,1.14-.97s1.17.45,1.14,1.11l-.03.23-2.22,10.18h5.06c.63,0,1.11.46,1.11,1.14-.03.68-.54,1.14-1.19,1.14h-6.79c-.51,0-.8-.23-.77-.77Z"/><path d="m245.04,33.04c-.14.57-.6.97-1.17.97-.62,0-1.17-.48-1.14-1.11.03-1.19.71-3.47,1-4.69-.28-.97-1.96-6.54-1.93-7.14.03-.62.63-1.11,1.25-1.11.51,0,.88.34,1.02.82l1.34,4.78,3.67-5.06c.2-.34.57-.54.94-.54.6,0,1.19.51,1.17,1.14-.03.82-4.46,6.51-5.2,7.53l-.94,4.41Z"/><path d="m7.22,56.04c-1.25,0-2.62.91-2.64,2.33-.09,1.99,5.29.71,5.14,4.66-.08,2.98-2.44,5.2-5.34,5.2-1.11,0-3.7-.8-3.64-2.25.03-.62.62-1.17,1.22-1.17.85,0,.99,1.08,2.5,1.08,1.22,0,2.9-1.19,2.93-2.59.09-1.99-5.34-.94-5.2-4.8.11-2.81,2.42-4.83,5.12-4.83,1.34,0,3.64.94,3.58,2.59-.03.65-.65,1.17-1.28,1.17-1.22,0-.65-1.39-2.39-1.39Z"/><path d="m11.86,67.05l.06-.26,2.59-11.91c.14-.57.6-.94,1.17-.94.63,0,1.17.45,1.14,1.11l-.03.23-2.62,11.91c-.11.57-.57.97-1.14.97-.62,0-1.17-.48-1.17-1.11Z"/><path d="m27.38,66.79c.08-1.99.54-4.18.77-6.2l-3.44,6.25c-.26.43-.65.77-1.14.77-.65,0-.99-.57-1.02-1.14l-.54-6.08-2.27,6.65c-.17.51-.6.82-1.11.82-.6,0-1.17-.46-1.17-1.08.03-.54,3.58-10.66,3.98-11.88.17-.51.8-.82,1.28-.82.85,0,1.25.8,1.34,1.54.23,2.25.28,4.58.46,6.88l4.32-7.79c.23-.37.82-.63,1.22-.63.6,0,1.17.51,1.11,1.11v.14l-1.45,11.51c-.08.63-.57,1.02-1.19,1.02s-1.14-.43-1.14-1.08Z"/><path d="m34.8,66.93c-.11.57-.57.94-1.14.94-.62,0-1.17-.43-1.14-1.11l.03-.23,2.53-11.48c.14-.65.68-.97,1.25-.97h4.18c2.1,0,3.38,1.76,3.3,3.78-.08,2.42-2.25,5.43-4.89,5.43h-3.33l-.8,3.64Zm2.33-10.58l-1.02,4.69h2.9c1.31,0,2.44-2.08,2.5-3.18,0-.68-.31-1.51-1.08-1.51h-3.3Z"/><path d="m44.73,67.1c0-.11.03-.26.06-.4.43-2.3.97-4.55,1.45-6.85.34-1.59.62-3.24,1.05-4.8.14-.6.54-.97,1.14-.97s1.17.45,1.14,1.11l-.03.23-2.22,10.18h5.06c.63,0,1.11.46,1.11,1.14-.03.68-.54,1.14-1.19,1.14h-6.79c-.51,0-.8-.23-.77-.77Z"/><path d="m59.28,60.14h4.01c.68,0,1.17.46,1.14,1.14-.03.65-.54,1.14-1.22,1.14h-4.43l-.68,3.18h4.97c.65,0,1.11.46,1.11,1.14s-.54,1.14-1.19,1.14h-6.37c-.54,0-1.22-.23-1.19-.82l.03-.2c.2-1.76.77-3.58,1.17-5.32.48-2.16.85-4.38,1.42-6.48.14-.48.68-.97,1.19-.97h6.28c.65,0,1.14.48,1.11,1.14-.03.68-.51,1.14-1.19,1.14h-5.34l-.8,3.78Z"/><path d="m84.62,66.96l-.23-6.62-3.33,6.99c-.23.46-.62.82-1.17.82-.68,0-1.02-.6-1.02-1.19l-.37-12.28v-.11c0-.65.6-1.08,1.22-1.08s1.08.43,1.11,1.05l.2,7.56,3.27-6.94c.2-.45.65-.85,1.17-.85.65,0,1.02.62,1.05,1.25l.23,6.54,3.41-7.33c.2-.4.6-.68,1.05-.68.6,0,1.19.48,1.17,1.08-.03.65-4.95,10.83-5.54,12.14-.23.46-.65.85-1.17.85-.68,0-1.02-.57-1.05-1.19Z"/><path d="m94.17,65.71c-.2.43-.82,1.34-1.14,2.16-.26.77-.77.97-1.19.97-.62,0-1.19-.51-1.17-1.11.03-.74,6.22-11.77,6.96-13.13.23-.43.65-.8,1.14-.8.62,0,.97.57,1.02,1.17l1.25,11.74v.2c.03.68-.6,1.11-1.22,1.11-1.28,0-1.14-1.39-1.22-2.3h-4.43Zm1.25-2.27h2.96l-.51-4.52-2.44,4.52Z"/><path d="m107.14,67.16c-.14.57-.6.97-1.17.97-.62,0-1.17-.48-1.14-1.11.03-1.19.71-3.47,1-4.69-.28-.97-1.96-6.54-1.93-7.14.03-.62.63-1.11,1.25-1.11.51,0,.88.34,1.02.82l1.34,4.78,3.67-5.06c.2-.34.57-.54.94-.54.6,0,1.19.51,1.17,1.14-.03.82-4.46,6.51-5.2,7.53l-.94,4.41Z"/><path d="m128.57,67.07c-.11.57-.57.97-1.14.97-.62,0-1.17-.46-1.17-1.11l.06-.26,2.25-10.32h-3.07c-.54,0-.97-.43-.94-.99,0-.71.51-1.28,1.22-1.28h8.61c.57,0,.82.48.82,1,0,.62-.43,1.28-1.08,1.28h-3.24l-2.33,10.72Z"/><path d="m135.06,62.3c.14-3.7,3.18-8.33,7.25-8.33,3.18,0,4.66,2.84,4.55,5.71-.11,3.7-3.16,8.33-7.19,8.33-3.21,0-4.72-2.84-4.61-5.71Zm2.3.11c-.06,1.45.62,3.33,2.36,3.33,2.79,0,4.8-3.75,4.86-6.17.06-1.45-.63-3.33-2.36-3.33-2.79,0-4.78,3.78-4.86,6.17Z"/><path d="m167.84,66.79c.08-1.99.54-4.18.77-6.2l-3.44,6.25c-.26.43-.65.77-1.14.77-.65,0-.99-.57-1.02-1.14l-.54-6.08-2.27,6.65c-.17.51-.6.82-1.11.82-.6,0-1.17-.46-1.17-1.08.03-.54,3.58-10.66,3.98-11.88.17-.51.8-.82,1.28-.82.85,0,1.25.8,1.34,1.54.23,2.25.28,4.58.46,6.88l4.32-7.79c.23-.37.82-.63,1.22-.63.6,0,1.17.51,1.11,1.11v.14l-1.45,11.51c-.08.63-.57,1.02-1.19,1.02s-1.14-.43-1.14-1.08Z"/><path d="m175.83,65.71c-.2.43-.82,1.34-1.14,2.16-.26.77-.77.97-1.19.97-.62,0-1.19-.51-1.17-1.11.03-.74,6.22-11.77,6.96-13.13.23-.43.65-.8,1.14-.8.62,0,.97.57,1.02,1.17l1.25,11.74v.2c.03.68-.6,1.11-1.22,1.11-1.28,0-1.14-1.39-1.22-2.3h-4.43Zm1.25-2.27h2.96l-.51-4.52-2.44,4.52Z"/><path d="m193.34,66.59c.08.63-.46,1.17-1.05,1.28-.51.09-.97-.2-1.19-.68l-2.27-5.66-1.08.85-1.02,4.55c-.11.57-.57.94-1.14.94-.62,0-1.17-.43-1.17-1.11.06-1.19.68-3.16.97-4.41l1.59-7.33c.11-.54.57-.94,1.14-.94.62,0,1.19.45,1.17,1.08-.06,1.08-.51,2.44-.77,3.5l4.92-3.92c.28-.2.54-.4.85-.4.62,0,1.19.51,1.17,1.14,0,.26-.08.57-.31.74l-4.75,3.75c.23.91,2.87,6.05,2.96,6.62Z"/><path d="m198.83,60.14h4.01c.68,0,1.17.46,1.14,1.14-.03.65-.54,1.14-1.22,1.14h-4.43l-.68,3.18h4.97c.65,0,1.11.46,1.11,1.14s-.54,1.14-1.19,1.14h-6.37c-.54,0-1.22-.23-1.19-.82l.03-.2c.2-1.76.77-3.58,1.17-5.32.48-2.16.85-4.38,1.42-6.48.14-.48.68-.97,1.19-.97h6.28c.65,0,1.14.48,1.11,1.14-.03.68-.51,1.14-1.19,1.14h-5.34l-.8,3.78Z"/><path d="m3.16,101.14l-1-11.85v-.11c-.03-.71.54-1.14,1.22-1.14.6,0,1.05.4,1.11.99l.63,8.1,4.35-8.44c.2-.43.57-.65,1.05-.65.57,0,1.17.45,1.14,1.08-.03.71-5.63,11.03-6.34,12.37-.2.43-.62.82-1.14.82-.65,0-1-.6-1.02-1.17Z"/><path d="m12.11,101.17l.06-.26,2.59-11.91c.14-.57.6-.94,1.17-.94.63,0,1.17.45,1.14,1.11l-.03.23-2.62,11.91c-.11.57-.57.97-1.14.97-.62,0-1.17-.48-1.17-1.11Z"/><path d="m26.13,101.11c-.03.62-.65,1.08-1.25,1.08-.48,0-.85-.28-1.02-.71l-1.85-4.46h-1.34l-.97,4.24c-.11.57-.54.94-1.14.94s-1.17-.46-1.14-1.08l.03-.26,2.67-12.11c.14-.68.63-.54,1.19-.54h3.58c1.99,0,3.16,1.88,3.1,3.75-.08,1.99-1.59,4.26-3.55,4.89.28.68,1.68,3.72,1.68,4.26Zm-4.04-10.63l-.91,4.26h2.45c1.02,0,2.05-1.96,2.08-2.81,0-.51-.26-1.45-.88-1.45h-2.73Z"/><path d="m34.03,101.19c-.11.57-.57.97-1.14.97-.62,0-1.17-.46-1.17-1.11l.06-.26,2.25-10.32h-3.07c-.54,0-.97-.43-.94-1,0-.71.51-1.28,1.22-1.28h8.61c.57,0,.82.48.82,1,0,.62-.43,1.28-1.08,1.28h-3.24l-2.33,10.72Z"/><path d="m40.77,98.47c.03-.51.08-1.02.2-1.51l1.79-7.99c.14-.57.6-.91,1.17-.91.63,0,1.17.43,1.14,1.08l-.03.23-1.62,7.13c-.14.6-.26,1.19-.28,1.79-.03,1.05.2,1.54,1.31,1.54,2.02,0,2.96-.51,3.5-2.56.74-2.73,1.17-5.57,1.99-8.3.14-.57.51-.91,1.14-.91s1.14.43,1.11,1.08l-.03.23c-.34,2.76-1.25,5.6-1.93,8.3-.74,2.96-2.44,4.43-5.51,4.43-2.42,0-4.01-1.05-3.92-3.64Z"/><path d="m55.79,99.83c-.2.43-.82,1.34-1.14,2.16-.26.77-.77.97-1.19.97-.62,0-1.19-.51-1.17-1.11.03-.74,6.22-11.77,6.96-13.13.23-.43.65-.8,1.14-.8.62,0,.97.57,1.02,1.17l1.25,11.74v.2c.03.68-.6,1.11-1.22,1.11-1.28,0-1.14-1.39-1.22-2.3h-4.43Zm1.25-2.27h2.96l-.51-4.52-2.44,4.52Z"/><path d="m64.94,101.22c0-.11.03-.26.06-.4.43-2.3.97-4.55,1.45-6.85.34-1.59.62-3.24,1.05-4.8.14-.6.54-.97,1.14-.97s1.17.46,1.14,1.11l-.03.23-2.22,10.18h5.06c.63,0,1.11.46,1.11,1.14-.03.68-.54,1.14-1.19,1.14h-6.79c-.51,0-.8-.23-.77-.77Z"/><path d="m76.17,101.22c0-.11.03-.26.06-.4.43-2.3.97-4.55,1.45-6.85.34-1.59.62-3.24,1.05-4.8.14-.6.54-.97,1.14-.97s1.17.46,1.14,1.11l-.03.23-2.22,10.18h5.06c.63,0,1.11.46,1.11,1.14-.03.68-.54,1.14-1.19,1.14h-6.79c-.51,0-.8-.23-.77-.77Z"/><path d="m92.04,101.28c-.14.57-.6.97-1.17.97-.62,0-1.17-.48-1.14-1.11.03-1.19.71-3.47,1-4.69-.28-.97-1.96-6.54-1.93-7.14.03-.62.63-1.11,1.25-1.11.51,0,.88.34,1.02.82l1.34,4.78,3.67-5.06c.2-.34.57-.54.94-.54.6,0,1.19.51,1.17,1.14-.03.82-4.46,6.51-5.2,7.53l-.94,4.41Z"/><path d="m111.06,99.83c-.2.43-.82,1.34-1.14,2.16-.26.77-.77.97-1.19.97-.62,0-1.19-.51-1.17-1.11.03-.74,6.23-11.77,6.96-13.13.23-.43.65-.8,1.14-.8.62,0,.97.57,1.02,1.17l1.25,11.74v.2c.03.68-.6,1.11-1.22,1.11-1.28,0-1.14-1.39-1.22-2.3h-4.43Zm1.25-2.27h2.96l-.51-4.52-2.44,4.52Z"/><path d="m127.24,100.91c-1.08-2.56-1.99-5.23-2.99-7.85l-1.76,8.02c-.11.57-.54.91-1.14.91s-1.17-.43-1.14-1.08l.03-.26,2.53-11.48c.14-.62.8-.97,1.34-.97.43,0,.91.4,1.08.74.31.62.54,1.45.77,2.16.74,2.02,1.45,4.09,2.1,6.17l1.79-8.1c.14-.57.57-.97,1.14-.97.65,0,1.19.46,1.17,1.11l-.03.26-2.59,11.63c-.06.4-.57.97-1,.97-.74,0-1.05-.65-1.31-1.25Z"/><path d="m138.1,101.28c-.14.57-.6.97-1.17.97-.62,0-1.17-.48-1.14-1.11.03-1.19.71-3.47,1-4.69-.28-.97-1.96-6.54-1.93-7.14.03-.62.63-1.11,1.25-1.11.51,0,.88.34,1.02.82l1.34,4.78,3.67-5.06c.2-.34.57-.54.94-.54.6,0,1.19.51,1.17,1.14-.03.82-4.46,6.51-5.2,7.53l-.94,4.41Z"/><path d="m170.34,103.04c-.77.34-1.56.57-2.42.57-2.67,0-4.95-2.05-6.62-3.98-.68,1.05-2.08,2.87-3.47,2.87-2.02,0-2.81-2.39-2.84-4.01-.03-2.08.94-4.52,3.35-4.52,1.17,0,1.79.57,2.56,1.42,2.1-4.63,3.5-9.55,5-14.41h-.11c-.94,0-1.76.2-2.53.71-.23.14-.4.26-.68.26-.65,0-1.19-.6-1.19-1.22-.03-1.48,3.27-2.08,4.38-2.08,1.85,0,3.58.65,5.06,1.79,3.87,2.93,5.17,7.08,5.26,11.71.08,4.41-1.54,8.96-5.74,10.89Zm-11.71-6.74h-.2c-.94,0-1.14,1.25-1.11,1.96,0,.57.14,1.36.48,1.85.77-.57,1.45-1.65,1.93-2.47-.26-.37-.74-1.08-1.11-1.34Zm10.8-14.01c-.4-.31-.8-.57-1.25-.77-1.68,5.34-3.16,10.89-5.63,15.89,1.22,1.59,3.01,3.87,5.23,3.87.57,0,1.02-.11,1.56-.34,3.33-1.45,4.46-5.43,4.41-8.78-.06-3.87-1.08-7.45-4.32-9.86Z"/><path d="m193.4,88.74c-1.39,3.81-5.03,13.84-9.89,13.9-3.21.03-5.46-2.59-5.83-5.63-.03-.28-.06-.6-.06-.88.09-5.69,5.03-17.57,11.57-17.62,2.9-.03,4.63,1.59,5,4.46.23,1.93-.14,4.04-.8,5.77Zm-3.92-7.9c-3.13.03-6.03,4.75-7.19,7.13-.65,1.34-1.19,2.73-1.62,4.18-.43,1.54-.77,3.38-.57,5.03.23,1.82,1.17,3.16,3.13,3.13.62,0,1.22-.46,1.65-.8,2.81-2.25,7.5-12.85,7.02-16.66-.17-1.42-1.02-2.05-2.42-2.02Z"/><path d="m213.7,81.67c-.34,1.25-.82,2.5-1.25,3.72l-2.56,7.62c-.71,2.16-1.73,4.86-1.71,7.13.06,2.36,1.82,1.17,1.85,2.47,0,.8-.97,1.37-1.68,1.37-1.71,0-2.45-2.25-2.47-3.64-.08-3.95,2.64-10.63,3.95-14.55l-2.27,2.62c-.63.68-3.3,4.01-4.29,4.01-.88,0-1.08-2.5-1.17-3.07l-.26-1.85c-.11-.99-.23-1.96-.37-2.96-1.59,3.81-3.18,7.59-4.92,11.31-.57,1.25-1.17,2.5-1.76,3.72-.26.51-.51,1.11-.8,1.59-.23.4-.51.62-1,.62-.63,0-1.22-.48-1.22-1.14-.03-.2.03-.4.14-.57.62-1.34,1.31-2.64,1.93-3.98,1.34-2.87,2.64-5.8,3.87-8.73l2.3-5.43c.37-.91.71-1.88,1.11-2.73.23-.48.62-.68,1.14-.68.65,0,1.39.46,1.39,1.19v.17c-.09.68-.11,1.37-.11,2.05.03,2.19.51,4.35.83,6.48l7.08-8.02c.23-.26.54-.37.88-.37.65,0,1.42.48,1.42,1.22,0,.14-.03.25-.06.4Z"/><path d="m4.58,128.38h4.01c.68,0,1.17.46,1.14,1.14-.03.65-.54,1.14-1.22,1.14h-4.43l-.68,3.18h4.97c.65,0,1.11.46,1.11,1.14s-.54,1.14-1.19,1.14H1.91c-.54,0-1.22-.23-1.19-.82l.03-.2c.2-1.76.77-3.58,1.17-5.32.48-2.16.85-4.38,1.42-6.48.14-.48.68-.97,1.19-.97h6.28c.65,0,1.14.48,1.11,1.14-.03.68-.51,1.14-1.19,1.14h-5.34l-.8,3.78Z"/><path d="m12.68,135.34c0-.11.03-.26.06-.4.43-2.3.97-4.55,1.45-6.85.34-1.59.62-3.24,1.05-4.8.14-.6.54-.97,1.14-.97s1.17.46,1.14,1.11l-.03.23-2.22,10.18h5.06c.63,0,1.11.46,1.11,1.14-.03.68-.54,1.14-1.19,1.14h-6.79c-.51,0-.8-.23-.77-.77Z"/><path d="m27.24,128.38h4.01c.68,0,1.17.46,1.14,1.14-.03.65-.54,1.14-1.22,1.14h-4.43l-.68,3.18h4.97c.65,0,1.11.46,1.11,1.14s-.54,1.14-1.19,1.14h-6.37c-.54,0-1.22-.23-1.19-.82l.03-.2c.2-1.76.77-3.58,1.17-5.32.48-2.16.85-4.38,1.42-6.48.14-.48.68-.97,1.19-.97h6.28c.65,0,1.14.48,1.11,1.14-.03.68-.51,1.14-1.19,1.14h-5.34l-.8,3.78Z"/><path d="m45.01,135.03c.08-1.99.54-4.18.77-6.2l-3.44,6.25c-.26.43-.65.77-1.14.77-.65,0-.99-.57-1.02-1.14l-.54-6.08-2.27,6.65c-.17.51-.6.82-1.11.82-.6,0-1.17-.46-1.17-1.08.03-.54,3.58-10.66,3.98-11.88.17-.51.8-.82,1.28-.82.85,0,1.25.8,1.34,1.54.23,2.25.28,4.58.46,6.88l4.32-7.79c.23-.37.82-.62,1.22-.62.6,0,1.17.51,1.11,1.11v.14l-1.45,11.51c-.08.62-.57,1.02-1.19,1.02s-1.14-.43-1.14-1.08Z"/><path d="m53.94,128.38h4.01c.68,0,1.17.46,1.14,1.14-.03.65-.54,1.14-1.22,1.14h-4.43l-.68,3.18h4.97c.65,0,1.11.46,1.11,1.14s-.54,1.14-1.19,1.14h-6.37c-.54,0-1.22-.23-1.19-.82l.03-.2c.2-1.76.77-3.58,1.17-5.32.48-2.16.85-4.38,1.42-6.48.14-.48.68-.97,1.19-.97h6.28c.65,0,1.14.48,1.11,1.14-.03.68-.51,1.14-1.19,1.14h-5.34l-.8,3.78Z"/><path d="m69.06,135.03c-1.08-2.56-1.99-5.23-2.99-7.85l-1.76,8.02c-.11.57-.54.91-1.14.91s-1.17-.43-1.14-1.08l.03-.26,2.53-11.48c.14-.63.8-.97,1.34-.97.43,0,.91.4,1.08.74.31.62.54,1.45.77,2.16.74,2.02,1.45,4.09,2.1,6.17l1.79-8.1c.14-.57.57-.97,1.14-.97.65,0,1.19.46,1.17,1.11l-.03.26-2.59,11.63c-.06.4-.57.97-1,.97-.74,0-1.05-.65-1.31-1.25Z"/><path d="m80.09,135.31c-.11.57-.57.97-1.14.97-.62,0-1.17-.46-1.17-1.11l.06-.26,2.25-10.32h-3.07c-.54,0-.97-.43-.94-1,0-.71.51-1.28,1.22-1.28h8.61c.57,0,.82.48.82,1,0,.62-.43,1.28-1.08,1.28h-3.24l-2.33,10.72Z"/><path d="m96.73,136.11c-.46,0-.82-.11-.8-.6.03-.46,2.73-12,2.96-12.54.17-.51.51-.65,1.02-.65h3.13c3.18,0,4.55,2.47,4.46,5.4-.14,3.81-2.81,8.39-7.08,8.39h-3.7Zm2.05-2.27h1.73c2.84,0,4.63-3.72,4.72-6.14.06-1.56-.51-3.1-2.27-3.1h-2.16l-2.02,9.24Z"/><path d="m116.92,135.23c-.03.62-.65,1.08-1.25,1.08-.48,0-.85-.28-1.02-.71l-1.85-4.46h-1.34l-.97,4.24c-.11.57-.54.94-1.14.94s-1.17-.46-1.14-1.08l.03-.26,2.67-12.11c.14-.68.63-.54,1.19-.54h3.58c1.99,0,3.16,1.88,3.1,3.75-.08,1.99-1.59,4.26-3.55,4.89.28.68,1.68,3.72,1.68,4.26Zm-4.04-10.63l-.91,4.26h2.45c1.02,0,2.05-1.96,2.08-2.81,0-.51-.26-1.45-.88-1.45h-2.73Z"/><path d="m122.4,133.95c-.2.43-.82,1.34-1.14,2.16-.26.77-.77.97-1.19.97-.62,0-1.19-.51-1.17-1.11.03-.74,6.22-11.77,6.96-13.13.23-.43.65-.8,1.14-.8.62,0,.97.57,1.02,1.17l1.25,11.74v.2c.03.68-.6,1.11-1.22,1.11-1.28,0-1.14-1.39-1.22-2.3h-4.43Zm1.25-2.27h2.96l-.51-4.52-2.44,4.52Z"/><path d="m139.01,124.46c-2.59,0-4.89,4.01-4.97,6.25-.06,1.51.88,3.33,2.56,3.33.4,0,.8-.06,1.14-.23l1.11-5.2c.17-.65.65-1.19,1.36-1.19.65,0,1.05.51,1.02,1.17-.06,1.42-.82,4.55-1.11,6.08-.2,1.11-2.67,1.65-3.58,1.65-3.07,0-4.89-2.84-4.8-5.69.14-3.53,3.5-8.44,7.36-8.44.94,0,3.13.43,3.07,1.68-.03.62-.57,1.17-1.19,1.17s-.77-.57-1.96-.57Z"/><path d="m150.89,124.46c-2.59,0-4.89,4.01-4.97,6.25-.06,1.51.88,3.33,2.56,3.33.4,0,.8-.06,1.14-.23l1.11-5.2c.17-.65.65-1.19,1.36-1.19.65,0,1.05.51,1.02,1.17-.06,1.42-.82,4.55-1.11,6.08-.2,1.11-2.67,1.65-3.58,1.65-3.07,0-4.89-2.84-4.8-5.69.14-3.53,3.5-8.44,7.36-8.44.94,0,3.13.43,3.07,1.68-.03.62-.57,1.17-1.19,1.17s-.77-.57-1.96-.57Z"/><path d="m157.72,133.95c-.2.43-.82,1.34-1.14,2.16-.26.77-.77.97-1.19.97-.62,0-1.19-.51-1.17-1.11.03-.74,6.22-11.77,6.96-13.13.23-.43.65-.8,1.14-.8.62,0,.97.57,1.02,1.17l1.25,11.74v.2c.03.68-.6,1.11-1.22,1.11-1.28,0-1.14-1.39-1.22-2.3h-4.43Zm1.25-2.27h2.96l-.51-4.52-2.44,4.52Z"/><path d="m167.61,136.11c-.63,0-1.25-.37-1.22-1.11l.03-.23,2.53-11.48c.14-.65.68-.97,1.28-.97h3.21c2.1,0,3.44,1.31,3.35,3.41-.03,1.34-.62,2.67-1.71,3.55.54.6.8,1.42.77,2.25-.08,2.42-2.39,4.58-4.75,4.58h-3.5Zm1.36-2.27h2.22c1.19,0,2.27-1,2.3-2.25.03-.71-.4-1.22-1.11-1.22h-2.67l-.74,3.47Zm1.25-5.74h1.96c1.19,0,2.33-1.14,2.36-2.33,0-.74-.45-1.17-1.19-1.17h-2.36l-.77,3.5Z"/><path d="m178.16,135.34c0-.11.03-.26.06-.4.43-2.3.97-4.55,1.45-6.85.34-1.59.62-3.24,1.05-4.8.14-.6.54-.97,1.14-.97s1.17.46,1.14,1.11l-.03.23-2.22,10.18h5.06c.63,0,1.11.46,1.11,1.14-.03.68-.54,1.14-1.19,1.14h-6.79c-.51,0-.8-.23-.77-.77Z"/><path d="m192.72,128.38h4.01c.68,0,1.17.46,1.14,1.14-.03.65-.54,1.14-1.22,1.14h-4.43l-.68,3.18h4.97c.65,0,1.11.46,1.11,1.14s-.54,1.14-1.19,1.14h-6.37c-.54,0-1.22-.23-1.19-.82l.03-.2c.2-1.76.77-3.58,1.17-5.32.48-2.16.85-4.38,1.42-6.48.14-.48.68-.97,1.19-.97h6.28c.65,0,1.14.48,1.11,1.14-.03.68-.51,1.14-1.19,1.14h-5.34l-.8,3.78Z"/><path d="m203.67,135.46c0,1.02-.71,1.96-1.79,1.96-1,0-1.54-.74-1.54-1.68s.82-1.88,1.82-1.88c.94,0,1.51.65,1.51,1.59Zm-1.59-4.95c0-1.05,3.27-10.26,3.95-11.77.2-.43.51-.74,1.02-.74.65,0,1.19.48,1.19,1.14,0,.17-.03.31-.06.48-.88,2.27-1.76,4.52-2.53,6.85-.48,1.42-.85,2.84-1.31,4.29-.14.51-.51.85-1.05.85-.65,0-1.22-.46-1.22-1.11Z"/></g><g><g><ellipse cx="315.01" cy="97.14" rx="97.32" ry="69.44" transform="translate(128.3 368.81) rotate(-72.64)" fill="#ff96d3"/><ellipse cx="315.01" cy="97.14" rx="97.32" ry="69.44" transform="translate(128.3 368.81) rotate(-72.64)" fill="none" stroke="#e70c0f" stroke-miterlimit="10" stroke-width="3.2"/></g><g><g><ellipse cx="315.22" cy="96.46" rx="95.04" ry="67.81" transform="translate(129.1 368.54) rotate(-72.64)" fill="#ff96d3"/><g><path d="m323.66,34.09c-.61-.19-1.11-.74-.86-1.45l.1-.21,5.94-10.34c.34-.59.96-.73,1.54-.55l3.13.98c2.05.64,2.96,2.31,2.24,4.32-.43,1.28-1.42,2.4-2.74,2.92.35.74.35,1.62.07,2.41-.81,2.31-3.71,3.7-6.01,2.98l-3.41-1.07Zm2.02-1.79l2.16.68c1.16.36,2.52-.27,2.92-1.47.24-.68-.02-1.3-.71-1.52l-2.61-.81-1.77,3.13Zm2.96-5.18l1.91.6c1.16.36,2.62-.39,3.01-1.54.22-.72-.09-1.27-.81-1.49l-2.3-.72-1.81,3.15Z"/><path d="m340.61,38.64c-.31.51-.87.75-1.43.58-.61-.19-.99-.82-.77-1.42.39-1.15,1.74-3.14,2.39-4.24.02-1.02.07-6.92.27-7.49.22-.6.95-.88,1.56-.69.5.16.76.6.75,1.11l-.14,5.03,5.11-3.78c.3-.27.72-.35,1.08-.24.58.18,1.01.86.79,1.46-.28.79-6.32,4.94-7.35,5.7l-2.25,3.98Z"/><path d="m310.44,42.86c-.32.44-.75.64-1.3.47-.61-.19-1.03-.8-.86-1.45.04-.14.11-.24.18-.37.31-.51.6-1.05.78-1.63.57-1.93-.5-3.18-2.3-3.74-.17-.05-.33-.1-.51-.13-5.82-1.15-14.88,6.13-16.47,11.52-.72,2.49.11,5.11,2.8,5.95,1.25.39,2.64.31,3.89,0,2.49-.55,3.63-1.49,5.08-3.51.31-.42.6-.84.73-1.37.36-1.25-.28-2.32-1.53-2.71-1.03-.32-2.3-.05-2.7,1.03.16.35.61.58,1,.7l.19.06c.25-.13.58-.21.89-.11.64.2.84,1.02.66,1.59-.3,1.05-1.46,1.05-2.31.79-1.72-.54-3.24-1.92-2.67-3.82.68-2.36,3.57-3.23,5.76-2.55,2.55.8,3.56,3.5,2.87,5.91-.22.72-.55,1.37-.98,1.96-1.83,2.45-3.4,3.68-6.44,4.36-1.71.4-3.56.49-5.25-.04-4.07-1.27-5.13-5.38-4.04-9.08.42-1.44,1.12-2.82,2.02-4.02,1.22-1.67,2.57-3.25,4.14-4.59,3.51-3.04,8.93-5.6,13.7-4.11,3.02.94,4.69,3.4,3.76,6.55-.22.81-.61,1.65-1.1,2.34Z"/><path d="m314.72,60.56c-.22.6-.96.85-1.55.66-.47-.15-.75-.54-.78-1l-.45-4.88-1.3-.41-2.22,3.8c-.28.52-.81.74-1.39.56s-1-.8-.78-1.39l.1-.24,6.27-10.9c.34-.62.77-.33,1.33-.16l3.49,1.09c1.94.61,2.51,2.78,1.89,4.58-.69,1.9-2.84,3.64-4.94,3.65.07.75.51,4.12.35,4.64Zm-.72-11.52l-2.18,3.85,2.38.75c1,.31,2.59-1.27,2.88-2.09.15-.5.19-1.48-.42-1.67l-2.66-.83Z"/><path d="m325.71,56.72l3.91,1.22c.67.21,1,.8.76,1.45-.23.62-.87.94-1.54.73l-4.32-1.35-1.63,2.87,4.85,1.52c.64.2.94.78.74,1.44s-.87.94-1.51.74l-6.21-1.94c-.53-.16-1.12-.59-.91-1.16l.09-.18c.73-1.64,1.83-3.23,2.75-4.79,1.12-1.94,2.16-3.98,3.35-5.84.28-.42.96-.73,1.46-.57l6.13,1.92c.64.2.96.81.74,1.44-.23.65-.84.94-1.51.74l-5.21-1.63-1.92,3.42Z"/><path d="m339.04,60.89l3.91,1.22c.67.21,1,.8.76,1.45-.23.62-.87.94-1.54.73l-4.32-1.35-1.63,2.87,4.85,1.52c.64.2.94.78.74,1.44s-.87.94-1.51.74l-6.21-1.94c-.53-.16-1.12-.59-.91-1.16l.09-.18c.73-1.64,1.83-3.23,2.75-4.79,1.12-1.94,2.16-3.98,3.35-5.84.28-.42.96-.73,1.46-.57l6.13,1.92c.64.2.96.81.74,1.44-.23.65-.84.94-1.51.74l-5.21-1.63-1.92,3.42Z"/><path d="m353.68,72.53c-.28-2.8-.36-5.67-.54-8.5l-4.14,7.22c-.28.52-.8.72-1.38.53s-1.01-.77-.78-1.39l.11-.24,5.94-10.34c.33-.56,1.07-.69,1.6-.53.42.13.77.66.83,1.05.12.7.09,1.57.09,2.32.11,2.18.18,4.4.19,6.61l4.2-7.29c.31-.51.85-.76,1.4-.59.64.2,1.03.8.8,1.43l-.1.24-6.04,10.46c-.18.37-.85.76-1.26.63-.72-.23-.83-.95-.9-1.61Z"/><path d="m364.12,71.84c-.58-.18-.92-.77-.72-1.4s.81-.93,1.39-.74l3.91,1.22c.64.2.94.81.75,1.41s-.78.93-1.42.74l-3.91-1.22Z"/><path d="m300.4,74.66c-1.22-.38-2.83.08-3.28,1.45-.69,1.9,4.94,2.3,3.61,6.08-.99,2.86-3.96,4.29-6.79,3.4-1.08-.34-3.36-1.9-2.87-3.28.22-.6.96-.94,1.54-.76.83.26.64,1.35,2.11,1.81,1.19.37,3.19-.27,3.64-1.61.69-1.9-4.93-2.54-3.62-6.23.96-2.69,3.82-3.94,6.45-3.12,1.3.41,3.26,2.02,2.71,3.6-.23.62-.99.93-1.6.74-1.19-.37-.22-1.55-1.91-2.08Z"/><path d="m305.45,82.88c1.26-3.53,5.62-7.09,9.59-5.85,3.1.97,3.69,4.17,2.71,6.92-1.23,3.54-5.6,7.1-9.53,5.87-3.13-.98-3.74-4.19-2.76-6.93Zm2.21.81c-.49,1.39-.4,3.41,1.29,3.94,2.72.85,5.82-2.17,6.61-4.49.49-1.39.4-3.41-1.29-3.94-2.72-.85-5.8,2.2-6.61,4.49Z"/><path d="m330.01,84.1c-2.91-.91-5.88,2.06-6.72,4.54-.59,1.6-.42,3.4,1.43,3.98,2.11.66,3.93-.58,4.62-.37.61.19.97.88.76,1.47-.55,1.55-4.9,1.46-6.15,1.07-3.08-.96-3.92-4.21-2.95-7.02,1.28-3.62,5.75-7.11,9.77-5.85,1.28.4,4.16,2.45,3.61,4.03-.22.6-.96.94-1.57.75-.91-.29-.73-1.95-2.81-2.6Z"/><path d="m342.78,99.11c-.11.63-.8.99-1.41.92-.52-.07-.88-.49-.96-1.02l-.51-6.17-1.31.5-2.37,4.09c-.28.52-.84.73-1.39.56-.61-.19-1.01-.77-.8-1.43.42-1.14,1.62-2.85,2.28-3.97l3.77-6.61c.27-.49.84-.73,1.39-.56.61.19,1.03.8.81,1.4-.38,1.03-1.24,2.21-1.81,3.15l5.98-2.3c.34-.11.65-.22.95-.13.61.19,1.01.86.79,1.46-.08.25-.26.52-.53.62l-5.76,2.18c-.05.95.97,6.73.88,7.31Z"/></g></g><path d="m376.99,125.4c-15.12,40.09-50.08,75.78-90.54,63.13-40.46-12.65-48.88-61.9-38.47-103.47l129.02,40.33Z" fill="#e70c0f"/><g><path d="m298.74,114c.32.1.43.33.27.63l-5.85,11.77c-.13.27-.33.36-.62.27l-1.62-.51c-.28-.09-.41-.26-.43-.55l-.3-10.04h-.04s-4.26,8.56-4.26,8.56c-.13.27-.33.36-.62.27l-1.43-.45c-.32-.1-.43-.33-.27-.63l5.85-11.77c.13-.27.33-.36.62-.27l1.82.57c.28.09.41.26.43.55l.26,9.66h.04s4.09-8.24,4.09-8.24c.13-.27.33-.36.62-.27l1.43.45Z" fill="#ff96d3"/><path d="m308.27,116.98c2.87.9,3.96,2.51,3.19,4.98-1.04,3.31-3.25,4.29-7.07,3.1l-1.9-.59-2.09,4.21c-.13.27-.33.36-.62.27l-1.47-.46c-.32-.1-.43-.33-.27-.63l5.85-11.77c.13-.27.33-.36.62-.27l3.76,1.17Zm-.92,2l-1.84-.57-2.03,4.08,1.82.57c1.96.61,3.1.09,3.64-1.66.38-1.2-.16-1.97-1.59-2.41Z" fill="#ff96d3"/><path d="m330.24,123.85c.32.1.43.33.27.63l-5.85,11.77c-.13.27-.33.36-.62.27l-1.47-.46c-.32-.1-.43-.33-.27-.63l4.49-9.03h-.04s-7.89,8.13-7.89,8.13c-.2.2-.39.25-.65.17l-1.21-.38c-.28-.09-.4-.28-.37-.58l1.23-10.16h-.04s-4.54,9.11-4.54,9.11c-.13.27-.33.36-.62.27l-1.43-.45c-.32-.1-.43-.33-.27-.63l5.85-11.77c.13-.27.33-.36.62-.27l2.67.83c.28.09.4.28.37.58l-1.18,9.65h.04s7.5-7.75,7.5-7.75c.2-.2.39-.25.65-.17l2.77.87Z" fill="#ff96d3"/><path d="m261.51,138.53c-.13.27-.33.36-.62.27l-1.47-.46c-.32-.1-.43-.33-.27-.63l5.85-11.77c.13-.27.33-.36.62-.27l1.47.46c.32.1.43.33.27.63l-5.85,11.77Z" fill="#ff96d3"/><path d="m281.53,130.63c.32.1.43.33.27.63l-5.85,11.77c-.13.27-.33.36-.62.27l-1.62-.51c-.28-.09-.41-.26-.43-.55l-.3-10.04h-.04s-4.25,8.56-4.25,8.56c-.13.27-.33.36-.62.27l-1.43-.45c-.32-.1-.43-.33-.27-.63l5.85-11.77c.13-.27.33-.36.62-.27l1.82.57c.28.09.41.26.43.55l.26,9.66h.04s4.09-8.24,4.09-8.24c.13-.27.33-.36.62-.27l1.43.45Z" fill="#ff96d3"/><path d="m294.16,136.01c.11.3,0,.51-.28.62l-1.33.55c-.29.13-.49,0-.62-.28-.36-.77-1.01-1.31-2.02-1.62-1.51-.47-2.74.05-3.15,1.35-.26.84.14,1.47,1.83,2.36,2.46,1.28,3.11,2.6,2.52,4.49-.88,2.83-3.36,3.99-6.45,3.03-2.06-.64-3.36-1.73-3.95-3.26-.11-.3.02-.5.3-.61l1.3-.56c.29-.13.5-.02.62.28.44,1.02,1.28,1.72,2.51,2.11,1.47.46,2.73-.09,3.13-1.38.26-.82-.17-1.44-1.83-2.31-2.5-1.31-3.15-2.61-2.55-4.54.87-2.79,3.39-3.96,6.46-3,1.8.56,2.97,1.5,3.48,2.78Z" fill="#ff96d3"/><path d="m298.04,149.95c-.13.27-.33.36-.62.27l-1.47-.46c-.32-.1-.43-.33-.27-.63l5.07-10.19-3.01-.94c-.32-.1-.43-.33-.27-.63l.54-1.11c.13-.27.33-.36.62-.27l8.5,2.66c.32.1.43.33.27.63l-.57,1.1c-.13.27-.33.36-.62.27l-3.07-.96-5.12,10.27Z" fill="#ff96d3"/><path d="m313.9,154.82c-.04.34-.26.47-.58.37l-1.51-.47c-.28-.09-.4-.28-.35-.57l.34-2.07-4.81-1.5-1.59,1.77c-.2.2-.39.25-.65.17l-1.6-.5c-.36-.11-.44-.38-.17-.65l9.95-10.54c.2-.2.39-.25.65-.17l1.78.56c.28.09.4.28.35.57l-1.79,13.04Zm-.76-11.2l-4.59,5.19,3.6,1.12,1.04-6.3h-.04Z" fill="#ff96d3"/><path d="m325.77,158.62c-.13.27-.33.36-.62.27l-7.35-2.3c-.32-.1-.43-.33-.27-.63l5.85-11.77c.13-.27.33-.36.62-.27l1.47.46c.32.1.43.33.27.63l-5.07,10.19,5.39,1.69c.32.1.43.33.27.63l-.57,1.1Z" fill="#ff96d3"/><path d="m337.64,162.33c-.13.27-.33.36-.62.27l-7.35-2.3c-.32-.1-.43-.33-.27-.63l5.85-11.77c.13-.27.33-.36.62-.27l1.47.46c.32.1.43.33.27.63l-5.07,10.19,5.39,1.69c.32.1.43.33.27.63l-.57,1.1Z" fill="#ff96d3"/><path d="m279,161.43c-1.5,3.03-3.79,4.12-6.86,3.16-2.81-.88-3.96-2.78-3.2-5.23.1-.32.25-.67.43-1.03l1.97-3.96c1.46-2.96,3.78-3.99,6.97-3,2,.62,3.24,1.92,3.49,3.65.04.3-.12.47-.41.53l-1.34.24c-.31.06-.48-.08-.54-.39-.25-.96-.88-1.64-2.03-2-1.68-.52-2.95.16-3.9,2.04l-1.75,3.53c-.13.29-.24.56-.32.82-.45,1.42.05,2.33,1.44,2.76,1.68.52,2.9-.19,3.88-2.13l.2-.42-2-.63c-.32-.1-.43-.33-.27-.63l.55-1.11c.13-.27.33-.36.62-.27l3.9,1.22c.32.1.43.33.27.63l-1.09,2.21Z" fill="#ff96d3"/><path d="m294.57,158.15c.11.3,0,.5-.28.62l-1.33.55c-.29.13-.49,0-.62-.28-.36-.77-1.01-1.31-2.02-1.62-1.52-.47-2.74.04-3.15,1.35-.26.84.14,1.47,1.84,2.36,2.46,1.28,3.11,2.6,2.52,4.49-.88,2.83-3.35,3.99-6.45,3.03-2.06-.64-3.36-1.73-3.95-3.26-.11-.3.02-.5.3-.61l1.31-.56c.29-.13.49-.02.62.28.44,1.02,1.28,1.72,2.51,2.11,1.47.46,2.73-.09,3.14-1.38.26-.82-.17-1.44-1.83-2.31-2.5-1.31-3.15-2.62-2.55-4.54.87-2.79,3.39-3.96,6.46-3,1.8.56,2.97,1.5,3.48,2.78Z" fill="#ff96d3"/><path d="m303.57,173.6c-.04.34-.26.47-.58.37l-1.51-.47c-.28-.09-.4-.28-.35-.57l.34-2.07-4.81-1.5-1.6,1.77c-.2.2-.39.25-.65.17l-1.6-.5c-.36-.11-.44-.38-.17-.65l9.95-10.54c.2-.2.39-.25.65-.17l1.78.56c.28.09.4.28.35.57l-1.79,13.04Zm-.76-11.2l-4.59,5.19,3.6,1.12,1.04-6.3h-.04Z" fill="#ff96d3"/><path d="m317.44,163.87c2.87.9,3.96,2.51,3.19,4.98-1.04,3.31-3.25,4.29-7.07,3.1l-1.9-.59-2.09,4.21c-.13.27-.33.36-.62.27l-1.47-.46c-.32-.1-.43-.33-.27-.63l5.85-11.77c.13-.27.33-.36.62-.27l3.76,1.17Zm-.92,2l-1.84-.57-2.03,4.08,1.82.57c1.96.61,3.1.09,3.64-1.66.38-1.2-.16-1.96-1.6-2.41Z" fill="#ff96d3"/></g></g></g></g></svg>