<?xml version="1.0" encoding="UTF-8"?><svg id="Layer_2" xmlns="http://www.w3.org/2000/svg" viewBox="0 0 184.64 257.1"><g id="Layer_2-2"><g><g><ellipse cx="92.32" cy="128.55" rx="90.25" ry="126.48" fill="#ff96d3"/><ellipse cx="92.32" cy="128.55" rx="90.25" ry="126.48" fill="none" stroke="#e70c0f" stroke-miterlimit="10" stroke-width="4.15"/></g><g><path d="m82.65,34.09c-.7,0-1-.39-1.22-1-.12-.39-.21-.81-.36-1.21-.73-1.93-2.13-3.53-4.35-3.53-3.25,0-5.9,2.5-7.08,5.31-1.61,3.83-3.13,7.69-4.62,11.58,2.13,1.36,4.19,3.53,5.41,5.76.12.21.18.42.18.63.03.69-.61,1.21-1.28,1.21-.52,0-.79-.24-1.06-.63-.3-.45-.55-.91-.88-1.36-.91-1.24-2.04-2.38-3.31-3.29-1.28,2.65-3.83,4.56-6.87,4.56-2.46,0-5.38-1.42-5.44-4.19,0-.72.21-1.42.61-2.02,1.37-2.02,4.41-2.53,6.72-2.53,1.25,0,2.49.27,3.68.72,1.49-3.8,2.98-7.63,4.56-11.4,1.55-3.74,5.08-6.82,9.33-6.82,3.98,0,6.38,3.17,7.2,6.73.03.09.03.18.03.3,0,.69-.58,1.18-1.25,1.18Zm-23.53,11.77c-1.22,0-4.89.27-4.86,2.11.03,1.3,1.92,1.69,2.92,1.69,2.1,0,3.86-1.42,4.68-3.26-.85-.33-1.79-.54-2.74-.54Z"/><path d="m83.8,42.45h4.29c.73,0,1.25.48,1.22,1.21-.03.69-.58,1.21-1.31,1.21h-4.74l-.73,3.38h5.32c.7,0,1.19.48,1.19,1.21s-.58,1.21-1.28,1.21h-6.81c-.58,0-1.31-.24-1.28-.88l.03-.21c.21-1.87.82-3.8,1.25-5.64.52-2.29.91-4.65,1.52-6.88.15-.51.73-1.03,1.28-1.03h6.72c.7,0,1.22.51,1.19,1.21-.03.72-.55,1.21-1.28,1.21h-5.71l-.85,4.01Z"/><path d="m100.21,49.81c-.12.6-.61,1.03-1.22,1.03-.67,0-1.25-.48-1.25-1.18l.06-.27,2.4-10.95h-3.28c-.58,0-1.03-.45-1-1.06,0-.75.55-1.36,1.31-1.36h9.21c.61,0,.88.51.88,1.06,0,.66-.46,1.36-1.16,1.36h-3.46l-2.49,11.37Z"/><path d="m112.18,35.3c0-.94.7-1.72,1.64-1.72s1.4.54,1.4,1.48c0,2.29-1.73,4.68-3.59,5.88-.24.12-.43.18-.64.18-.58,0-1.06-.54-1.06-1.06,0-.36.18-.66.46-.81,1-.78,1.88-1.6,2.4-2.78-.42-.24-.61-.72-.61-1.18Z"/><path d="m123.94,38.1c-1.34,0-2.8.97-2.83,2.47-.09,2.11,5.65.75,5.5,4.95-.09,3.17-2.61,5.52-5.71,5.52-1.19,0-3.95-.84-3.89-2.38.03-.66.67-1.24,1.31-1.24.91,0,1.06,1.15,2.67,1.15,1.31,0,3.1-1.27,3.13-2.75.09-2.11-5.71-1-5.56-5.1.12-2.99,2.58-5.13,5.47-5.13,1.43,0,3.89,1,3.83,2.75-.03.69-.7,1.24-1.37,1.24-1.31,0-.7-1.48-2.55-1.48Z"/><path d="m71.37,85.71c.09-2.11.58-4.43.82-6.58l-3.68,6.64c-.27.45-.7.81-1.22.81-.7,0-1.06-.6-1.09-1.21l-.58-6.46-2.43,7.06c-.18.54-.64.88-1.18.88-.64,0-1.25-.48-1.25-1.15.03-.57,3.83-11.31,4.26-12.61.18-.54.85-.88,1.37-.88.91,0,1.34.84,1.43,1.63.24,2.38.3,4.86.49,7.3l4.62-8.27c.24-.39.88-.66,1.31-.66.64,0,1.25.54,1.19,1.18v.15l-1.55,12.22c-.09.66-.61,1.09-1.28,1.09s-1.22-.45-1.22-1.15Z"/><path d="m82.16,84.56c-.21.45-.88,1.42-1.22,2.29-.27.81-.82,1.03-1.28,1.03-.67,0-1.28-.54-1.25-1.18.03-.78,6.66-12.49,7.45-13.94.24-.45.7-.84,1.22-.84.67,0,1.03.6,1.09,1.24l1.34,12.46v.21c.03.72-.64,1.18-1.31,1.18-1.37,0-1.22-1.48-1.31-2.44h-4.74Zm1.34-2.41h3.16l-.55-4.8-2.61,4.8Z"/><path d="m103.82,85.5c.09.66-.49,1.24-1.12,1.36-.55.09-1.03-.21-1.28-.72l-2.43-6-1.15.9-1.09,4.83c-.12.6-.61,1-1.22,1-.67,0-1.25-.45-1.25-1.18.06-1.27.73-3.35,1.03-4.68l1.7-7.78c.12-.57.61-1,1.22-1,.67,0,1.28.48,1.25,1.15-.06,1.15-.55,2.59-.82,3.71l5.26-4.16c.3-.21.58-.42.91-.42.67,0,1.28.54,1.25,1.21,0,.27-.09.6-.33.78l-5.08,3.98c.24.97,3.07,6.43,3.16,7.03Z"/><path d="m112.63,78.65h4.29c.73,0,1.25.48,1.22,1.21-.03.69-.58,1.21-1.31,1.21h-4.74l-.73,3.38h5.32c.7,0,1.19.48,1.19,1.21s-.58,1.21-1.28,1.21h-6.81c-.58,0-1.31-.24-1.28-.88l.03-.21c.21-1.87.82-3.8,1.25-5.64.52-2.29.91-4.65,1.52-6.88.15-.51.73-1.03,1.28-1.03h6.72c.7,0,1.21.51,1.18,1.21-.03.72-.55,1.21-1.28,1.21h-5.71l-.85,4.01Z"/><path d="m27.2,110.51c-1.34,0-2.8.97-2.83,2.47-.09,2.11,5.65.75,5.5,4.95-.09,3.17-2.61,5.52-5.71,5.52-1.19,0-3.95-.84-3.89-2.38.03-.66.67-1.24,1.31-1.24.91,0,1.06,1.15,2.67,1.15,1.31,0,3.1-1.27,3.13-2.75.09-2.11-5.71-1-5.56-5.1.12-2.99,2.58-5.13,5.47-5.13,1.43,0,3.89,1,3.83,2.75-.03.69-.7,1.24-1.37,1.24-1.31,0-.7-1.48-2.55-1.48Z"/><path d="m34.85,117.14c.15-3.92,3.4-8.84,7.75-8.84,3.4,0,4.98,3.02,4.86,6.06-.12,3.92-3.37,8.84-7.69,8.84-3.43,0-5.05-3.02-4.92-6.06Zm2.46.12c-.06,1.54.67,3.53,2.52,3.53,2.98,0,5.14-3.98,5.2-6.55.06-1.54-.67-3.53-2.52-3.53-2.98,0-5.11,4.01-5.2,6.55Z"/><path d="m61.73,121.91c.09-2.11.58-4.43.82-6.58l-3.68,6.64c-.27.45-.7.81-1.22.81-.7,0-1.06-.6-1.09-1.21l-.58-6.46-2.43,7.06c-.18.54-.64.88-1.18.88-.64,0-1.25-.48-1.25-1.15.03-.57,3.83-11.31,4.26-12.61.18-.54.85-.88,1.37-.88.91,0,1.34.84,1.43,1.63.24,2.38.3,4.86.49,7.3l4.62-8.27c.24-.39.88-.66,1.31-.66.64,0,1.25.54,1.19,1.18v.15l-1.55,12.22c-.09.66-.61,1.09-1.28,1.09s-1.22-.45-1.22-1.15Z"/><path d="m74.18,114.85h4.29c.73,0,1.25.48,1.22,1.21-.03.69-.58,1.21-1.31,1.21h-4.74l-.73,3.38h5.32c.7,0,1.19.48,1.19,1.21s-.58,1.21-1.28,1.21h-6.81c-.58,0-1.31-.24-1.28-.88l.03-.21c.21-1.87.82-3.8,1.25-5.64.52-2.29.91-4.65,1.52-6.88.15-.51.73-1.03,1.28-1.03h6.72c.7,0,1.22.51,1.19,1.21-.03.72-.55,1.21-1.28,1.21h-5.71l-.85,4.01Z"/><path d="m90.59,122.21c-.12.6-.61,1.03-1.22,1.03-.67,0-1.25-.48-1.25-1.18l.06-.27,2.4-10.95h-3.28c-.58,0-1.03-.45-1-1.06,0-.75.55-1.36,1.31-1.36h9.21c.61,0,.88.51.88,1.06,0,.66-.46,1.36-1.16,1.36h-3.46l-2.49,11.37Z"/><path d="m106.72,122.03c.06-1.27.76-3.59,1.03-4.92h-4.62l-1.09,5.07c-.09.6-.61,1.03-1.21,1.03-.85,0-1.28-.6-1.19-1.45l2.71-12.31c.12-.6.61-1.03,1.22-1.03.67,0,1.28.48,1.25,1.18-.06,1.27-.82,3.77-1.12,5.13h4.62l1.16-5.28c.12-.6.61-1.03,1.22-1.03.67,0,1.25.48,1.25,1.18-.06,1.24-1.09,5.04-1.4,6.46l-1.34,6.12c-.15.6-.61,1.03-1.22,1.03-.7,0-1.28-.45-1.25-1.18Z"/><path d="m115.88,122.18l.06-.27,2.77-12.64c.15-.6.64-1,1.25-1,.67,0,1.25.48,1.22,1.18l-.03.24-2.8,12.64c-.12.6-.61,1.03-1.22,1.03-.67,0-1.25-.51-1.25-1.18Z"/><path d="m132.44,121.91c-1.15-2.71-2.13-5.55-3.19-8.33l-1.88,8.51c-.12.6-.58.97-1.22.97s-1.25-.45-1.21-1.15l.03-.27,2.71-12.19c.15-.66.85-1.03,1.43-1.03.46,0,.97.42,1.15.78.33.66.58,1.54.82,2.29.79,2.14,1.55,4.34,2.25,6.55l1.92-8.6c.15-.6.61-1.03,1.22-1.03.7,0,1.28.48,1.25,1.18l-.03.27-2.77,12.34c-.06.42-.61,1.03-1.06,1.03-.79,0-1.12-.69-1.4-1.33Z"/><path d="m149.59,110.69c-2.77,0-5.23,4.25-5.32,6.64-.06,1.6.94,3.53,2.74,3.53.42,0,.85-.06,1.22-.24l1.19-5.52c.18-.69.7-1.27,1.46-1.27.7,0,1.12.54,1.09,1.24-.06,1.51-.88,4.83-1.19,6.46-.21,1.18-2.86,1.75-3.83,1.75-3.28,0-5.23-3.02-5.14-6.03.15-3.74,3.74-8.96,7.87-8.96,1,0,3.34.45,3.28,1.78-.03.66-.61,1.24-1.28,1.24s-.82-.6-2.1-.6Z"/><path d="m159.48,122.36c0,1.09-.76,2.08-1.92,2.08-1.06,0-1.64-.78-1.64-1.78s.88-1.99,1.95-1.99c1,0,1.61.69,1.61,1.69Zm-1.7-5.25c0-1.12,3.5-10.89,4.22-12.49.21-.45.55-.78,1.09-.78.7,0,1.28.51,1.28,1.21,0,.18-.03.33-.06.51-.94,2.41-1.88,4.8-2.71,7.27-.52,1.51-.91,3.02-1.4,4.56-.15.54-.55.91-1.12.91-.7,0-1.31-.48-1.31-1.18Z"/></g><g><path d="m181.36,149.22c-6.11,53.54-36.01,105.8-89.06,105.8S9.4,202.77,3.28,149.22h178.08Z" fill="#e70c0f"/><path d="m181.36,149.22c-6.11,53.54-36.01,105.8-89.06,105.8S9.4,202.77,3.28,149.22h178.08Z" fill="#e70c0f"/></g><g><path d="m48.17,184.41l-.46-.05-.48-.15-.53-.1-.25-.08-.4-.13-.71-.2-.48-.2-.91-.5-.5-.4-.35-.23-.28-.25-.48-.4-.43-.45-.3-.43-.4-.5-.38-.58-.3-.68-.2-.55-.15-.3-.1-.33-.13-.5-.08-.4-.05-.28-.08-.43-.05-.48-.05-.23.03-.3-.05-.53.05-.4v-.2l.03-.43.1-.4.05-.38.1-.35.05-.28.1-.33.13-.23.08-.23.05-.18.2-.38.23-.4.15-.23.25-.48.4-.48.35-.5.58-.55.58-.48.25-.23.4-.25.51-.33.28-.15.3-.2.28-.15.28-.1.43-.12.63-.2.61-.2.53-.08.33-.08h.58l.51-.02.58.08.63.05.18.05.38.05.51.13.38.08.25.08.63.23.38.2.28.12.23.15.76.35.48.38.4.28.28.25.18.15.3.38.38.48.18.35.08.38-.15.5-.25.38-.35.28-.53.28-.56.02-.35-.13-.38-.33-.51-.48-.58-.48-.63-.4-.58-.33-.45-.18-.4-.13-1.42-.25-.48-.05-.13.02-.56.05-.86.15-.56.12-.38.18-.56.28-.53.33-.3.25-.23.23-.2.18-.71.8-.13.23-.18.25-.28.6-.2.5-.13.4-.18.55-.1.73v.85l.08.43.05.6.05.43.1.4.15.35.15.3.18.25.15.28.23.23.18.23.23.35.2.25.38.33.73.6.83.48.71.28.68.18.46.1.58.05.99-.08.51-.08.66-.18.48-.15.86-.4.53-.35.38-.35.48-.53.23-.33.25-.38.25-.45.25-.5.1-.4.05-.33-.03-.25-.33-.2h-1.04l-.71.03-.25-.05h-.93l-.76.02-.3.03-.35.02-.23-.05h-.38l-.53-.05-.4-.15-.2-.3-.1-.4-.08-.68v-.5l.1-.28.2-.3.25-.15.25-.08h1.04l.96-.08h.76l.33-.03h.56l1.79.03h.48l1.01.05.88.08.25.08.28.15.38.4.25.78v1.05l-.1.9-.1.48-.08.23-.05.35-.23.58-.18.55-.15.25-.15.35-.23.4-.15.25-.2.33-.3.38-.25.25-.4.48-.53.5-.25.2-.28.2-.25.12-.15.13-.48.3-.2.08-.5.25-.51.18-.38.08-.35.13-.2.05-.23.03-.38.1h-.43l-.23.08-.48.03h-.48l-.3.05-.56-.02Z"/><path d="m74.4,183.96l-.18-.03-.23.03-.58-.05-.51.02-.33-.02-.71.02h-.53l-.48-.02h-.4l-.35.05-.4-.03-.13.03-.56-.05h-.76l-.83-.02-.91.02h-.81l-.4-.02-.4-.23-.3-.5-.05-.6v-1.78l-.03-.78.03-.58v-.78l-.03-.48-.03-.53-.03-.25v-.35l.03-.38v-.6l-.03-.08.03-.23-.03-.3v-.23l-.03-.6.03-1.05.03-.7v-.43l-.03-.73v-1.63l-.05-.43.03-.33v-.3l.03-.48v-.28l.03-.48.03-.68.1-.33.18-.28.28-.18.2-.1.28-.05h.73l1.06.05h1.67l.71-.02.53-.03.78-.02h1.64l.56.08h.56l.4-.05.71.03.4.02,1.01-.05.28.03.38-.03.4.05.38.15.2.3.15.5.05.53-.03.33-.15.45-.28.35-.28.1-.58.05-.91.02-.53.02-.23-.02-.81.05h-1.19l-.96-.03-.58-.02h-.25l-.51.05-1.34.02h-.46l-.56.03h-.48l-.45.12-.08.4-.03.43-.05.18v.43l-.03.58.05.63-.03.65.13.58.3.18h.2l.56.08.66-.05h.43l.53.05.56-.05,1.92-.02h1.39l.38.02.43.13.3.3.1.28.05.25.03.2.05.58-.08.53-.18.3-.51.25h-1.34l-1.47.08-.81-.02h-.28l-1.04-.02-.3.02-.46-.02-.61.02-.3.05-.33.1-.18.15-.03.35-.03.38-.05.43v.55l.03.38v.48l-.03.4v.68l.23.65.71.3h1.77l.71-.02.71.02,1.44-.02.53-.05h1.52l.3.05h.48l.78.02.63.05h.33l.2.05.23.15.15.23.08.45-.03.53v.3l-.05.28-.1.3-.15.2-.18.1-.25.08-1.26.13-.66.08h-.71l-.5-.02Z"/><path d="m90.41,184.06h-.43l-.25-.05-.35-.2-.13-.15-.15-.15-.1-.48v-.53l.03-.38v-.38l.05-.48-.03-.63.03-.48v-.53l.03-.43-.03-.98v-1.75l-.05-.6v-.2l.03-.28v-.65l-.03-.68-.03-.43v-.68l.03-.8v-.53l.03-.2-.05-.25.03-.4v-.33l-.03-.2v-.28l-.05-.43-.13-.3-.1-.08-.53-.02-.61.05-.2.02-.33-.02h-.46l-1.62-.05-.53.02-.35-.08-.23-.18-.2-.23-.15-.35-.05-.6.08-.68.23-.43.3-.2.3-.1.35-.02.4-.08h.3l.2.02h1.26l.13.03h1.47l.33.02h.58l.56.02h.68l.61-.02.48-.02.5.02.61-.02.66.02,2.43.05.61.05.51.08.56.43.18.6v.33l.03.23-.08.35-.08.2-.1.15-.18.2-.48.15-.78.1-.86-.02-.66.05-1.82-.05-.4.1-.15.23-.02.53v.58l.02.48-.02.5-.03.43-.03.53-.03.6v.25l.03.3.03.28-.03.18.03.33v.55l-.05.25.05.2-.03.28.03.28-.05.28-.03.38v.35l-.03.4v.35l-.05.25.05.15-.05.38.02.68v.38l.03.23-.05.28.02.23-.02.23v.63l.02.4-.05.33v.23l.08.18.05.25.03.28-.05.3-.1.3-.15.28-.18.08-.45.2-.28.1-.51-.08Z"/><path d="m115.55,183.88l-.48-.13-.35-.35-.1-.35.02-.58v-1l.03-.6-.05-.4.02-.58-.05-.63.03-.33.02-.28-.08-.43v-.78l.05-.6-.05-.5.08-.45-.02-.3v-.45l-.08-.45.03-.3v-.4l-.08-.7-.03-.43.08-.75v-.73l.03-.68-.03-.5v-2.41l-.03-.5.1-.4.13-.23.15-.15.33-.23.48-.05h.46l.53.02.4.13.2.23.2.33.03.45.03.63v.43l-.03.28.05.43-.03.63v.6l.05.43-.03.63-.03.78v.5l.03.35v.63l.03.55-.03.68.03,1.18-.05.7v.33l.03.23v1.4l.03.4v1.3l.05.28v1.18l-.02.58-.13.7-.13.28-.13.15-.18.08-.45.18h-.53l-.2.02-.33-.02Z"/><path d="m126.26,183.91l-.53-.35-.2-.38-.08-.4.02-.45.05-.48-.03-.48v-.33l-.03-.45v-.48l.05-.35-.03-.65-.05-.48-.08-.48v-.75l.03-.43-.03-.43.03-.45v-.28l.05-.7v-.75l-.05-.38v-.23l.05-.4-.05-.45v-.18l.05-.45-.03-.63.03-.55-.05-.43.03-.25-.03-.33-.03-.5-.03-.45v-.68l.03-.48.03-.3v-.25l.05-.4.05-.33.13-.1.46-.25.38-.03.48-.02.56.05.53.1.33.23.4.5.25.38.43.6.35.55.33.4.33.5.35.45.15.2.25.45.28.35.43.48.33.45.28.3.5.6.61.8.38.6.61.8.25.28.2.3.33.48.46.53.46.7.25.3.18.23.25.2h.28l.08-.13.05-.55.02-.53v-2.51l.05-.7v-.45l-.03-.48v-.45l.05-.35v-1.68l-.05-.25.03-.4-.03-.5v-.4l-.03-.38v-.7l.03-.48.13-.45.2-.15.28-.15.23-.05.33-.02.28-.08h.73l.3.15.23.25.18.4.05.65-.05.58-.03.28.05.48-.03.38.03.35-.03.38.03.25v.98l.03.73v1.3l.08.38v.23l-.05.33.05.53-.03.28.03.23-.08.28v2.96l-.03.7.03.38v2.83l.08.43-.05.6-.28.25-.2.1-.25.03-.56-.05-.81.02-.53-.1-.33-.23-.35-.45-.43-.58-1.01-1.43-.48-.63-.25-.35-.56-.83-.61-.85-.46-.58-.38-.43-.25-.38-.23-.23-.53-.75-.33-.4-.23-.23-.18-.33-.3-.33-.58-.78-.48-.7-.3-.4-.33-.35-.2-.28-.15-.15-.25-.1-.23.13-.03.48.03.58v.5l-.03.53.05.78v1.03l.03,1.03.03.63.08.48-.03.78v1.05l-.05.7v.38l-.03.53.03.4-.03.33v.45l-.05.4-.18.33-.25.18-.23.08-.4.08h-.33l-.18.05-.53-.05Z"/><path d="m46.3,209.13h-.43l-.25-.05-.35-.2-.13-.15-.15-.15-.1-.48v-.53l.03-.38v-.38l.05-.48-.03-.63.03-.48v-.53l.03-.43-.03-.98v-1.75l-.05-.6v-.2l.03-.28v-.65l-.03-.68-.03-.43v-.68l.03-.8v-.53l.03-.2-.05-.25.03-.4v-.33l-.03-.2v-.28l-.05-.43-.13-.3-.1-.08-.53-.02-.61.05-.2.02-.33-.02h-.46l-1.62-.05-.53.02-.35-.08-.23-.18-.2-.23-.15-.35-.05-.6.08-.68.23-.43.3-.2.3-.1.35-.02.4-.08h.3l.2.02h1.26l.13.03h1.47l.33.02h.58l.56.02h.68l.61-.02.48-.02.5.02.61-.02.66.02,2.43.05.61.05.51.08.56.43.18.6v.33l.03.23-.08.35-.08.2-.1.15-.18.2-.48.15-.78.1-.86-.02-.66.05-1.82-.05-.4.1-.15.23-.02.53v.58l.02.48-.02.5-.03.43-.03.53-.03.6v.25l.03.3.03.28-.03.18.03.33v.55l-.05.25.05.2-.03.28.03.28-.05.28-.03.38v.35l-.03.4v.35l-.05.25.05.15-.05.38.02.68v.38l.03.23-.05.28.02.23-.02.23v.63l.02.4-.05.33v.23l.08.18.05.25.03.28-.05.3-.1.3-.15.28-.18.08-.45.2-.28.1-.51-.08Z"/><path d="m67.29,209.33h-.43l-.38-.03-.51-.08h-.63l-.46-.1-.25-.08-.33-.08-.45-.18-.61-.23-.51-.28-.25-.13-.28-.18-.33-.18-.23-.18-.25-.15-.35-.33-.43-.38-.28-.28-.91-1.08-.35-.68-.3-.55-.33-.58-.15-.55-.13-.33-.13-.6-.1-.5-.03-.3-.08-.43-.02-.35.02-.43v-.73l.08-.48.05-.45.2-.63.08-.4.2-.58.25-.65.23-.35.25-.55.48-.75.43-.58.25-.23.18-.23.25-.28.25-.25.2-.1.28-.28.68-.38.61-.3.71-.33.53-.15.33-.15.68-.23.63-.1.4-.08.61.02.88-.02.61.05h.28l.46.08.5.12.33.08.23.1.38.12.35.13.35.18.4.23.53.28.71.45.53.43.53.5.63.75.4.48.18.25.15.3.18.25.23.45.25.58.15.5.13.4.05.23.1.33.13.63.05.4v.35l.03.4-.05.43-.05.65-.05.4-.03.4-.08.5-.08.3-.1.43-.23.6-.2.55-.23.48-.18.3-.13.25-.2.25-.18.23-.15.23-.1.18-.15.18-.28.28-.33.25-.23.23-.18.15-.23.18-.2.18-.25.15-.18.15-.3.2-.5.28-.56.33-.43.18-.28.1-.53.18-.63.18-.53.08h-.73l-.58-.05Zm.86-2.91l.33-.02.15-.03.13-.08.1-.05.33-.05.33-.15.3-.1.48-.25.5-.33.66-.48.38-.4.13-.15.2-.3.38-.48.5-.75.15-.55.1-.48.08-.55.05-.68.05-.35-.05-.65-.18-.9-.18-.58-.25-.53-.13-.43-.15-.28-.2-.4-.3-.38-.18-.23-.28-.28-.86-.68-.81-.48-.48-.2-.53-.15-.2-.05-.33-.1-.43-.1h-1.39l-.38.08-.46.05-.58.18-.83.35-1.42.8-.25.28-.2.25-.15.13-.3.43-.23.43-.13.18-.1.28-.18.33-.15.4-.13.4-.05.35-.13.55-.05.63.03.3.03.35.05.4v.38l.03.13.08.28.1.45.08.38.3.55.61.9.48.6.18.2.4.35.5.33.18.1.1.05.46.25.53.25.43.13.71.12.71.1.61.02.73-.08Z"/><path d="m88.62,209.38l-.3-.08-.33-.05-.76-.18-.56-.2-.38-.18-.25-.08-.38-.25-.35-.18-.28-.23-.33-.28-.18-.25-.3-.3-.33-.4-.18-.33-.13-.25-.08-.23-.1-.38-.18-.53-.13-.48-.03-.28-.08-.2.02-.4v-.85l-.05-.38v-.15l-.03-.28-.03-.45.05-.45.03-.48v-.45l-.05-.4.08-.18-.02-.25v-.68l-.03-.28v-.23l-.05-.33v-1.05l.03-.33v-.23l-.03-.35-.03-.33v-1.78l-.03-.35.05-.35-.03-.45.03-.45.05-.38.1-.2.25-.18.48-.15h.4l.28-.05.25.05.35.1.3.1.25.2.08.28-.03.28.05.25.03.43v.4l-.05.12.03.25v.68l.05.33v.43l.03.2.02.28-.05.25v.28l-.03.25.03.68v.65l.03.15.02.2-.02.15v.28l-.03.28.05.23-.02.45-.03.48.03.18v.3l-.03.2.05.25-.02.4-.03.43v.58l.05.75.03.58.13.48.13.6.38.58.28.35.2.15.38.25.46.23.33.13.38.13.33.08.33.05.43.03h.2l.63.02,1.06-.08.43-.13.53-.18.48-.18.23-.2.3-.28.2-.25.1-.08.15-.28.13-.33.05-.23.05-.25.05-.3.05-.33v-.5l.05-.35-.03-.12.05-.18-.02-.28.02-.63v-.6l.05-.5v-.6l-.05-.35v-.3l-.02-.48v-.98l-.03-.3v-.78l-.03-.25-.03-.53v-.43l.05-.7v-.58l-.03-.4v-.4l-.03-.58.05-.53.1-.48.2-.23.23-.1.35-.08.43-.05h.35l.35.08.4.15.38.33.13.53.05.4v.45l.03.4-.03.65v1.48l-.03.68-.05.4-.03.43v.4l.03.35-.03.5.03.65v1.83l-.03.45v.6l.03.55-.03.6-.02.38-.08.63-.08.5-.08.28-.18.6-.18.48-.23.43-.28.43-.38.63-.43.48-.1.08-.2.13-.25.13-.2.12-.4.18-.53.25-.48.15-.46.08-.3.1-1.46.23h-1.92l-.33-.1Z"/><path d="m113.13,209.51l-.48.03-.58-.03-.48-.1-1.19-.2-.33-.13-.81-.28-.25-.13-.28-.15-.25-.13-.15-.13-.35-.18-.3-.23-.3-.18-.28-.28-.13-.1-.28-.25-.28-.3-.35-.38-.3-.4-.18-.2-.2-.25-.18-.28-.25-.43-.23-.45-.15-.33-.18-.43-.23-.45-.08-.33-.13-.35-.03-.33-.08-.25-.03-.43-.08-.38-.03-.58-.02-.43v-.75l.13-.45.05-.28.15-.6.2-.78.25-.58.15-.4.15-.3.23-.38.08-.2.05-.08.2-.28.35-.45.38-.48.35-.4.33-.33.51-.4.63-.43.5-.35.76-.4.43-.18.38-.12.4-.13.33-.08.71-.18.4-.08.23-.03.51-.02.53-.05h.56l.56.08.2.05.5.05.53.15.73.23.68.25.18.1.45.25.58.28.53.4.48.35.35.28.4.38.35.43.3.45.13.33-.03.4-.23.4-.25.33-.4.4-.33.18-.43.05-.38-.08-.3-.23-.4-.4-.4-.35-.3-.35-.4-.3-.28-.2-.45-.23-.43-.23-.43-.1-.63-.18-.46-.1h-.56l-.61-.08-.66.1-.45.08-.48.13-.48.15-.53.25-.63.35-.33.2-.25.23-.38.33-.3.3-.28.35-.4.53-.38.8-.33.83-.08.4-.05.35-.05.53v.58l.1.63.08.65.13.43.08.43.15.43.15.2.13.28.1.28.05.1.2.23.3.45.25.3.23.23.35.28.4.35.3.18.53.28.51.25.35.1.48.1.73.13.46.02.86-.05.71-.1.56-.13.53-.18.38-.15.4-.23.5-.35.46-.35.73-.73.25-.28.38-.18.48-.05.76.28.63.68.15.4-.03.3-.13.43-.28.45-.3.3-.43.45-1.21.83-.43.23-.2.15-1.39.63-.33.08-.38.1-.33.08-.35.1-.73.05-.53.08-.5-.05Z"/><path d="m128.05,208.96l-.53-.23-.18-.28-.1-.35-.03-.5.03-.4-.03-.53v-.68l-.03-.38.03-.4-.03-.73v-.43l.08-.9v-1.1l-.03-.38-.03-.25v-.58l.03-.6v-.7l-.03-.4v-.68l-.03-.63v-1.8l-.03-.9v-.5l.03-.55-.03-.6v-.68l.05-.75.18-.3.13-.13.38-.25.63-.08h.46l.35.08.28.08.18.15.15.23.08.2.05.3.05.4v.7l.03.78v.53l-.03.48v1.13l.03.45.03.48v.3l-.03.25.05.3.05.15.2.1.46.02.73.02h.46l.91.03.63-.03h2l.73-.02.5.02.73-.02.63.02.43-.05.25-.08.1-.2.1-.33.05-.43v-1.15l-.03-.73.03-.38v-2.48l.08-.45.08-.25.13-.2.33-.28.48-.1.43.02h.51l.43.13.35.3.13.53.05.35.05.48-.05.53v.65l.03.75.03.85-.03.73-.03.78v.5l.03.68-.05.4.03.48-.03.68.03.85.05.8-.05.68.03.6v.38l-.03.33-.03.55.05.48.03.33v.38l-.03.35.03.43-.05.38.03.28v.35l-.05.55-.1.55-.3.4-.38.15-.68.08-.71-.05-.25-.1-.33-.25-.15-.38-.05-.35.03-.88v-4.66l-.03-.65-.2-.3-.4-.05-1.26-.05-.66.02-.96-.08-.99.02-.88-.02-.61.05h-.45l-.76.02h-.68l-.43.03-.18.05-.4.35-.1.6v2.23l-.03.35-.03.4.05.45.03.68v.53l.03.38-.03.48-.05.45-.18.25-.23.18-.48.2-.46.1h-.3l-.48-.08Z"/></g><g><path d="m50.67,185.32l-.46-.05-.48-.15-.53-.1-.25-.08-.4-.13-.71-.2-.48-.2-.91-.5-.5-.4-.35-.23-.28-.25-.48-.4-.43-.45-.3-.43-.4-.5-.38-.58-.3-.68-.2-.55-.15-.3-.1-.33-.13-.5-.08-.4-.05-.28-.08-.43-.05-.48-.05-.23.03-.3-.05-.53.05-.4v-.2l.03-.43.1-.4.05-.38.1-.35.05-.28.1-.33.13-.23.08-.23.05-.18.2-.38.23-.4.15-.23.25-.48.4-.48.35-.5.58-.55.58-.48.25-.23.4-.25.51-.33.28-.15.3-.2.28-.15.28-.1.43-.12.63-.2.61-.2.53-.08.33-.08h.58l.51-.02.58.08.63.05.18.05.38.05.51.13.38.08.25.08.63.23.38.2.28.12.23.15.76.35.48.38.4.28.28.25.18.15.3.38.38.48.18.35.08.38-.15.5-.25.38-.35.28-.53.28-.56.02-.35-.13-.38-.33-.51-.48-.58-.48-.63-.4-.58-.33-.45-.18-.4-.13-1.42-.25-.48-.05-.13.02-.56.05-.86.15-.56.12-.38.18-.56.28-.53.33-.3.25-.23.23-.2.18-.71.8-.13.23-.18.25-.28.6-.2.5-.13.4-.18.55-.1.73v.85l.08.43.05.6.05.43.1.4.15.35.15.3.18.25.15.28.23.23.18.23.23.35.2.25.38.33.73.6.83.48.71.28.68.18.46.1.58.05.99-.08.51-.08.66-.18.48-.15.86-.4.53-.35.38-.35.48-.53.23-.33.25-.38.25-.45.25-.5.1-.4.05-.33-.03-.25-.33-.2h-1.04l-.71.03-.25-.05h-.93l-.76.02-.3.03-.35.02-.23-.05h-.38l-.53-.05-.4-.15-.2-.3-.1-.4-.08-.68v-.5l.1-.28.2-.3.25-.15.25-.08h1.04l.96-.08h.76l.33-.03h.56l1.79.03h.48l1.01.05.88.08.25.08.28.15.38.4.25.78v1.05l-.1.9-.1.48-.08.23-.05.35-.23.58-.18.55-.15.25-.15.35-.23.4-.15.25-.2.33-.3.38-.25.25-.4.48-.53.5-.25.2-.28.2-.25.12-.15.13-.48.3-.2.08-.5.25-.51.18-.38.08-.35.13-.2.05-.23.03-.38.1h-.43l-.23.08-.48.03h-.48l-.3.05-.56-.02Z" fill="#ff96d3"/><path d="m76.89,184.87l-.18-.03-.23.03-.58-.05-.51.02-.33-.02-.71.02h-.53l-.48-.02h-.4l-.35.05-.4-.03-.13.03-.56-.05h-.76l-.83-.02-.91.02h-.81l-.4-.02-.4-.23-.3-.5-.05-.6v-1.78l-.03-.78.03-.58v-.78l-.03-.48-.03-.53-.03-.25v-.35l.03-.38v-.6l-.03-.08.03-.23-.03-.3v-.23l-.03-.6.03-1.05.03-.7v-.43l-.03-.73v-1.63l-.05-.43.03-.33v-.3l.03-.48v-.28l.03-.48.03-.68.1-.33.18-.28.28-.18.2-.1.28-.05h.73l1.06.05h1.67l.71-.02.53-.03.78-.02h1.64l.56.08h.56l.4-.05.71.03.4.02,1.01-.05.28.03.38-.03.4.05.38.15.2.3.15.5.05.53-.03.33-.15.45-.28.35-.28.1-.58.05-.91.02-.53.02-.23-.02-.81.05h-1.19l-.96-.03-.58-.02h-.25l-.51.05-1.34.02h-.46l-.56.03h-.48l-.45.12-.08.4-.03.43-.05.18v.43l-.03.58.05.63-.03.65.13.58.3.18h.2l.56.08.66-.05h.43l.53.05.56-.05,1.92-.02h1.39l.38.02.43.13.3.3.1.28.05.25.03.2.05.58-.08.53-.18.3-.51.25h-1.34l-1.47.08-.81-.02h-.28l-1.04-.02-.3.02-.46-.02-.61.02-.3.05-.33.1-.18.15-.03.35-.03.38-.05.43v.55l.03.38v.48l-.03.4v.68l.23.65.71.3h1.77l.71-.02.71.02,1.44-.02.53-.05h1.52l.3.05h.48l.78.02.63.05h.33l.2.05.23.15.15.23.08.45-.03.53v.3l-.05.28-.1.3-.15.2-.18.1-.25.08-1.26.13-.66.08h-.71l-.5-.02Z" fill="#ff96d3"/><path d="m92.91,184.97h-.43l-.25-.05-.35-.2-.13-.15-.15-.15-.1-.48v-.53l.03-.38v-.38l.05-.48-.03-.63.03-.48v-.53l.03-.43-.03-.98v-1.75l-.05-.6v-.2l.03-.28v-.65l-.03-.68-.03-.43v-.68l.03-.8v-.53l.03-.2-.05-.25.03-.4v-.33l-.03-.2v-.28l-.05-.43-.13-.3-.1-.08-.53-.02-.61.05-.2.02-.33-.02h-.46l-1.62-.05-.53.02-.35-.08-.23-.18-.2-.23-.15-.35-.05-.6.08-.68.23-.43.3-.2.3-.1.35-.02.4-.08h.3l.2.02h1.26l.13.03h1.47l.33.02h.58l.56.02h.68l.61-.02.48-.02.5.02.61-.02.66.02,2.43.05.61.05.51.08.56.43.18.6v.33l.03.23-.08.35-.08.2-.1.15-.18.2-.48.15-.78.1-.86-.02-.66.05-1.82-.05-.4.1-.15.23-.02.53v.58l.02.48-.02.5-.03.43-.03.53-.03.6v.25l.03.3.03.28-.03.18.03.33v.55l-.05.25.05.2-.03.28.03.28-.05.28-.03.38v.35l-.03.4v.35l-.05.25.05.15-.05.38.02.68v.38l.03.23-.05.28.02.23-.02.23v.63l.02.4-.05.33v.23l.08.18.05.25.03.28-.05.3-.1.3-.15.28-.18.08-.45.2-.28.1-.51-.08Z" fill="#ff96d3"/><path d="m118.04,184.79l-.48-.13-.35-.35-.1-.35.02-.58v-1l.03-.6-.05-.4.02-.58-.05-.63.03-.33.02-.28-.08-.43v-.78l.05-.6-.05-.5.08-.45-.02-.3v-.45l-.08-.45.03-.3v-.4l-.08-.7-.03-.43.08-.75v-.73l.03-.68-.03-.5v-2.41l-.03-.5.1-.4.13-.23.15-.15.33-.23.48-.05h.46l.53.02.4.13.2.23.2.33.03.45.03.63v.43l-.03.28.05.43-.03.63v.6l.05.43-.03.63-.03.78v.5l.03.35v.63l.03.55-.03.68.03,1.18-.05.7v.33l.03.23v1.4l.03.4v1.3l.05.28v1.18l-.02.58-.13.7-.13.28-.13.15-.18.08-.45.18h-.53l-.2.02-.33-.02Z" fill="#ff96d3"/><path d="m128.76,184.82l-.53-.35-.2-.38-.08-.4.02-.45.05-.48-.03-.48v-.33l-.03-.45v-.48l.05-.35-.03-.65-.05-.48-.08-.48v-.75l.03-.43-.03-.43.03-.45v-.28l.05-.7v-.75l-.05-.38v-.23l.05-.4-.05-.45v-.18l.05-.45-.03-.63.03-.55-.05-.43.03-.25-.03-.33-.03-.5-.03-.45v-.68l.03-.48.03-.3v-.25l.05-.4.05-.33.13-.1.46-.25.38-.03.48-.02.56.05.53.1.33.23.4.5.25.38.43.6.35.55.33.4.33.5.35.45.15.2.25.45.28.35.43.48.33.45.28.3.5.6.61.8.38.6.61.8.25.28.2.3.33.48.46.53.46.7.25.3.18.23.25.2h.28l.08-.13.05-.55.02-.53v-2.51l.05-.7v-.45l-.03-.48v-.45l.05-.35v-1.68l-.05-.25.03-.4-.03-.5v-.4l-.03-.38v-.7l.03-.48.13-.45.2-.15.28-.15.23-.05.33-.02.28-.08h.73l.3.15.23.25.18.4.05.65-.05.58-.03.28.05.48-.03.38.03.35-.03.38.03.25v.98l.03.73v1.3l.08.38v.23l-.05.33.05.53-.03.28.03.23-.08.28v2.96l-.03.7.03.38v2.83l.08.43-.05.6-.28.25-.2.1-.25.03-.56-.05-.81.02-.53-.1-.33-.23-.35-.45-.43-.58-1.01-1.43-.48-.63-.25-.35-.56-.83-.61-.85-.46-.58-.38-.43-.25-.38-.23-.23-.53-.75-.33-.4-.23-.23-.18-.33-.3-.33-.58-.78-.48-.7-.3-.4-.33-.35-.2-.28-.15-.15-.25-.1-.23.13-.03.48.03.58v.5l-.03.53.05.78v1.03l.03,1.03.03.63.08.48-.03.78v1.05l-.05.7v.38l-.03.53.03.4-.03.33v.45l-.05.4-.18.33-.25.18-.23.08-.4.08h-.33l-.18.05-.53-.05Z" fill="#ff96d3"/><path d="m48.8,210.04h-.43l-.25-.05-.35-.2-.13-.15-.15-.15-.1-.48v-.53l.03-.38v-.38l.05-.48-.03-.63.03-.48v-.53l.03-.43-.03-.98v-1.75l-.05-.6v-.2l.03-.28v-.65l-.03-.68-.03-.43v-.68l.03-.8v-.53l.03-.2-.05-.25.03-.4v-.33l-.03-.2v-.28l-.05-.43-.13-.3-.1-.08-.53-.02-.61.05-.2.02-.33-.02h-.46l-1.62-.05-.53.02-.35-.08-.23-.18-.2-.23-.15-.35-.05-.6.08-.68.23-.43.3-.2.3-.1.35-.02.4-.08h.3l.2.02h1.26l.13.03h1.47l.33.02h.58l.56.02h.68l.61-.02.48-.02.5.02.61-.02.66.02,2.43.05.61.05.51.08.56.43.18.6v.33l.03.23-.08.35-.08.2-.1.15-.18.2-.48.15-.78.1-.86-.02-.66.05-1.82-.05-.4.1-.15.23-.02.53v.58l.02.48-.02.5-.03.43-.03.53-.03.6v.25l.03.3.03.28-.03.18.03.33v.55l-.05.25.05.2-.03.28.03.28-.05.28-.03.38v.35l-.03.4v.35l-.05.25.05.15-.05.38.02.68v.38l.03.23-.05.28.02.23-.02.23v.63l.02.4-.05.33v.23l.08.18.05.25.03.28-.05.3-.1.3-.15.28-.18.08-.45.2-.28.1-.51-.08Z" fill="#ff96d3"/><path d="m69.78,210.24h-.43l-.38-.03-.51-.08h-.63l-.46-.1-.25-.08-.33-.08-.45-.18-.61-.23-.51-.28-.25-.13-.28-.18-.33-.18-.23-.18-.25-.15-.35-.33-.43-.38-.28-.28-.91-1.08-.35-.68-.3-.55-.33-.58-.15-.55-.13-.33-.13-.6-.1-.5-.03-.3-.08-.43-.02-.35.02-.43v-.73l.08-.48.05-.45.2-.63.08-.4.2-.58.25-.65.23-.35.25-.55.48-.75.43-.58.25-.23.18-.23.25-.28.25-.25.2-.1.28-.28.68-.38.61-.3.71-.33.53-.15.33-.15.68-.23.63-.1.4-.08.61.02.88-.02.61.05h.28l.46.08.5.12.33.08.23.1.38.12.35.13.35.18.4.23.53.28.71.45.53.43.53.5.63.75.4.48.18.25.15.3.18.25.23.45.25.58.15.5.13.4.05.23.1.33.13.63.05.4v.35l.03.4-.05.43-.05.65-.05.4-.03.4-.08.5-.08.3-.1.43-.23.6-.2.55-.23.48-.18.3-.13.25-.2.25-.18.23-.15.23-.1.18-.15.18-.28.28-.33.25-.23.23-.18.15-.23.18-.2.18-.25.15-.18.15-.3.2-.5.28-.56.33-.43.18-.28.1-.53.18-.63.18-.53.08h-.73l-.58-.05Zm.86-2.91l.33-.02.15-.03.13-.08.1-.05.33-.05.33-.15.3-.1.48-.25.5-.33.66-.48.38-.4.13-.15.2-.3.38-.48.5-.75.15-.55.1-.48.08-.55.05-.68.05-.35-.05-.65-.18-.9-.18-.58-.25-.53-.13-.43-.15-.28-.2-.4-.3-.38-.18-.23-.28-.28-.86-.68-.81-.48-.48-.2-.53-.15-.2-.05-.33-.1-.43-.1h-1.39l-.38.08-.46.05-.58.18-.83.35-1.42.8-.25.28-.2.25-.15.13-.3.43-.23.43-.13.18-.1.28-.18.33-.15.4-.13.4-.05.35-.13.55-.05.63.03.3.03.35.05.4v.38l.03.13.08.28.1.45.08.38.3.55.61.9.48.6.18.2.4.35.5.33.18.1.1.05.46.25.53.25.43.13.71.12.71.1.61.02.73-.08Z" fill="#ff96d3"/><path d="m91.12,210.29l-.3-.08-.33-.05-.76-.18-.56-.2-.38-.18-.25-.08-.38-.25-.35-.18-.28-.23-.33-.28-.18-.25-.3-.3-.33-.4-.18-.33-.13-.25-.08-.23-.1-.38-.18-.53-.13-.48-.03-.28-.08-.2.02-.4v-.85l-.05-.38v-.15l-.03-.28-.03-.45.05-.45.03-.48v-.45l-.05-.4.08-.18-.02-.25v-.68l-.03-.28v-.23l-.05-.33v-1.05l.03-.33v-.23l-.03-.35-.03-.33v-1.78l-.03-.35.05-.35-.03-.45.03-.45.05-.38.1-.2.25-.18.48-.15h.4l.28-.05.25.05.35.1.3.1.25.2.08.28-.03.28.05.25.03.43v.4l-.05.12.03.25v.68l.05.33v.43l.03.2.02.28-.05.25v.28l-.03.25.03.68v.65l.03.15.02.2-.02.15v.28l-.03.28.05.23-.02.45-.03.48.03.18v.3l-.03.2.05.25-.02.4-.03.43v.58l.05.75.03.58.13.48.13.6.38.58.28.35.2.15.38.25.46.23.33.13.38.13.33.08.33.05.43.03h.2l.63.02,1.06-.08.43-.13.53-.18.48-.18.23-.2.3-.28.2-.25.1-.08.15-.28.13-.33.05-.23.05-.25.05-.3.05-.33v-.5l.05-.35-.03-.12.05-.18-.02-.28.02-.63v-.6l.05-.5v-.6l-.05-.35v-.3l-.02-.48v-.98l-.03-.3v-.78l-.03-.25-.03-.53v-.43l.05-.7v-.58l-.03-.4v-.4l-.03-.58.05-.53.1-.48.2-.23.23-.1.35-.08.43-.05h.35l.35.08.4.15.38.33.13.53.05.4v.45l.03.4-.03.65v1.48l-.03.68-.05.4-.03.43v.4l.03.35-.03.5.03.65v1.83l-.03.45v.6l.03.55-.03.6-.02.38-.08.63-.08.5-.08.28-.18.6-.18.48-.23.43-.28.43-.38.63-.43.48-.1.08-.2.13-.25.13-.2.12-.4.18-.53.25-.48.15-.46.08-.3.1-1.46.23h-1.92l-.33-.1Z" fill="#ff96d3"/><path d="m115.63,210.42l-.48.03-.58-.03-.48-.1-1.19-.2-.33-.13-.81-.28-.25-.13-.28-.15-.25-.13-.15-.13-.35-.18-.3-.23-.3-.18-.28-.28-.13-.1-.28-.25-.28-.3-.35-.38-.3-.4-.18-.2-.2-.25-.18-.28-.25-.43-.23-.45-.15-.33-.18-.43-.23-.45-.08-.33-.13-.35-.03-.33-.08-.25-.03-.43-.08-.38-.03-.58-.02-.43v-.75l.13-.45.05-.28.15-.6.2-.78.25-.58.15-.4.15-.3.23-.38.08-.2.05-.08.2-.28.35-.45.38-.48.35-.4.33-.33.51-.4.63-.43.5-.35.76-.4.43-.18.38-.12.4-.13.33-.08.71-.18.4-.08.23-.03.51-.02.53-.05h.56l.56.08.2.05.5.05.53.15.73.23.68.25.18.1.45.25.58.28.53.4.48.35.35.28.4.38.35.43.3.45.13.33-.03.4-.23.4-.25.33-.4.4-.33.18-.43.05-.38-.08-.3-.23-.4-.4-.4-.35-.3-.35-.4-.3-.28-.2-.45-.23-.43-.23-.43-.1-.63-.18-.46-.1h-.56l-.61-.08-.66.1-.45.08-.48.13-.48.15-.53.25-.63.35-.33.2-.25.23-.38.33-.3.3-.28.35-.4.53-.38.8-.33.83-.08.4-.05.35-.05.53v.58l.1.63.08.65.13.43.08.43.15.43.15.2.13.28.1.28.05.1.2.23.3.45.25.3.23.23.35.28.4.35.3.18.53.28.51.25.35.1.48.1.73.13.46.02.86-.05.71-.1.56-.13.53-.18.38-.15.4-.23.5-.35.46-.35.73-.73.25-.28.38-.18.48-.05.76.28.63.68.15.4-.03.3-.13.43-.28.45-.3.3-.43.45-1.21.83-.43.23-.2.15-1.39.63-.33.08-.38.1-.33.08-.35.1-.73.05-.53.08-.5-.05Z" fill="#ff96d3"/><path d="m130.55,209.86l-.53-.23-.18-.28-.1-.35-.03-.5.03-.4-.03-.53v-.68l-.03-.38.03-.4-.03-.73v-.43l.08-.9v-1.1l-.03-.38-.03-.25v-.58l.03-.6v-.7l-.03-.4v-.68l-.03-.63v-1.8l-.03-.9v-.5l.03-.55-.03-.6v-.68l.05-.75.18-.3.13-.13.38-.25.63-.08h.46l.35.08.28.08.18.15.15.23.08.2.05.3.05.4v.7l.03.78v.53l-.03.48v1.13l.03.45.03.48v.3l-.03.25.05.3.05.15.2.1.46.02.73.02h.46l.91.03.63-.03h2l.73-.02.5.02.73-.02.63.02.43-.05.25-.08.1-.2.1-.33.05-.43v-1.15l-.03-.73.03-.38v-2.48l.08-.45.08-.25.13-.2.33-.28.48-.1.43.02h.51l.43.13.35.3.13.53.05.35.05.48-.05.53v.65l.03.75.03.85-.03.73-.03.78v.5l.03.68-.05.4.03.48-.03.68.03.85.05.8-.05.68.03.6v.38l-.03.33-.03.55.05.48.03.33v.38l-.03.35.03.43-.05.38.03.28v.35l-.05.55-.1.55-.3.4-.38.15-.68.08-.71-.05-.25-.1-.33-.25-.15-.38-.05-.35.03-.88v-4.66l-.03-.65-.2-.3-.4-.05-1.26-.05-.66.02-.96-.08-.99.02-.88-.02-.61.05h-.45l-.76.02h-.68l-.43.03-.18.05-.4.35-.1.6v2.23l-.03.35-.03.4.05.45.03.68v.53l.03.38-.03.48-.05.45-.18.25-.23.18-.48.2-.46.1h-.3l-.48-.08Z" fill="#ff96d3"/></g></g></g></svg>