<svg width="300" height="404" viewBox="0 0 300 404" fill="none" xmlns="http://www.w3.org/2000/svg">
<path d="M149.82 401.82C231.486 401.82 297.69 312.317 297.69 201.91C297.69 91.5028 231.486 2 149.82 2C68.1537 2 1.95001 91.5028 1.95001 201.91C1.95001 312.317 68.1537 401.82 149.82 401.82Z" fill="#F098C1" stroke="#E51E25" stroke-width="3" stroke-miterlimit="10"/>
<path fill-rule="evenodd" clip-rule="evenodd" d="M89.92 251.36C89.37 250.86 88.83 250.35 88.3 249.82C80.55 242.07 75.74 231.39 75.74 219.64V200.88C75.74 197 77.33 193.47 79.89 190.91C82.45 188.35 85.98 186.76 89.86 186.76C93.74 186.76 97.27 188.35 99.83 190.91C102.39 193.47 103.98 197 103.98 200.88V220.59C103.98 233.37 99.82 242.72 89.92 251.37V251.36ZM56.86 262.14C56.58 262.09 56.29 262.06 55.99 262.06C53.25 262.06 51.03 264.28 51.03 267.02C51.03 269.76 53.22 271.95 55.93 271.98C59.27 272.28 62.58 272.27 65.82 271.97C69.21 271.65 72.53 271.02 75.74 270.1C80.74 268.66 85.48 266.52 89.81 263.76C94.14 266.59 98.9 268.8 103.98 270.26C107.18 271.18 110.49 271.81 113.9 272.1C115.41 272.23 116.94 272.3 118.48 272.3C129.42 272.3 139.61 268.92 148.06 263.15C156.5 268.92 166.69 272.3 177.64 272.3C179.18 272.3 180.71 272.23 182.22 272.1C185.63 271.8 188.95 271.18 192.14 270.26C197.21 268.8 201.98 266.59 206.31 263.76C216.09 269.97 227.89 273.08 240.18 271.98C242.9 271.95 245.09 269.74 245.09 267.02C245.09 264.3 242.87 262.06 240.13 262.06C239.83 262.06 239.54 262.09 239.26 262.14C230.43 262.92 221.91 261.04 214.55 257.12C214.64 257.03 214.74 256.93 214.83 256.84C216.85 254.82 218.7 252.64 220.37 250.33C226.61 241.68 230.29 231.07 230.29 219.65V200.89C230.29 194.27 227.59 188.26 223.23 183.91C222.27 182.95 221.22 182.07 220.11 181.28C216.19 178.5 211.4 176.86 206.24 176.86C199.62 176.86 193.61 179.56 189.26 183.92C184.9 188.28 182.2 194.29 182.2 200.9V222.36C182.2 233.46 185.36 241.61 192.12 250.64C193.89 253 195.84 255.21 197.94 257.23C196.08 258.24 194.14 259.12 192.12 259.86C188.97 261.01 185.64 261.79 182.2 262.16C180.69 262.32 179.17 262.41 177.62 262.41C169.76 262.41 162.37 260.26 156.02 256.51C165.36 247 171.13 233.98 171.13 219.67V185.96C170.97 145.23 125.19 144.43 124.95 185.96V219.67C124.95 233.98 130.73 247 140.06 256.51C133.71 260.26 126.32 262.41 118.46 262.41C116.91 262.41 115.39 262.33 113.88 262.16C110.44 261.79 107.11 261 103.96 259.86C101.95 259.13 100.02 258.25 98.16 257.24H98.15C100.25 255.22 102.19 253.03 103.96 250.68C111.4 240.81 113.88 233.12 113.88 221.16V200.9C113.88 194.28 111.18 188.27 106.82 183.92C102.46 179.57 96.45 176.86 89.84 176.86C84.69 176.86 79.9 178.5 75.97 181.28C74.86 182.07 73.81 182.95 72.85 183.91C68.49 188.27 65.79 194.28 65.79 200.89V219.65C65.79 231.08 69.47 241.68 75.71 250.33C77.38 252.65 79.24 254.83 81.25 256.84C81.34 256.93 81.44 257.03 81.53 257.12C79.66 258.12 77.71 258.98 75.7 259.71C72.53 260.85 69.2 261.64 65.78 262.03C62.85 262.36 59.86 262.41 56.82 262.14H56.86ZM161.23 185.93V219.64C161.23 231.39 156.42 242.07 148.67 249.82C148.47 250.02 148.27 250.22 148.06 250.41C147.86 250.21 147.65 250.02 147.45 249.82C139.7 242.07 134.89 231.39 134.89 219.64V185.93C134.89 155.86 160.91 155.22 161.22 185.93H161.23ZM196.3 190.91C198.86 188.35 202.39 186.76 206.27 186.76C210.15 186.76 213.68 188.35 216.24 190.91C218.8 193.47 220.39 197 220.39 200.88V219.64C220.39 231.39 215.58 242.07 207.83 249.82C207.3 250.35 206.76 250.86 206.21 251.36C197.41 243.68 192.15 233.92 192.15 222.25V200.87C192.15 196.99 193.74 193.46 196.3 190.9V190.91ZM97.21 256.67C97.08 256.59 96.94 256.51 96.81 256.44C96.94 256.52 97.08 256.6 97.21 256.67Z" fill="#E51E25"/>
<path d="M130.36 291.55C129.22 291.55 129.25 289.42 126.6 289.42C124.28 289.42 120.07 290.95 120.12 293.75C120.12 294.03 120.17 294.28 120.25 294.55C121.16 294.15 122.14 293.9 123.13 293.9C124.74 293.9 126.96 294.55 126.99 296.5C127.01 298.33 125.27 299.05 123.69 299.05C122.2 299.05 120.71 298.4 119.65 297.35C117.96 298.68 116.52 300.93 116.57 303.13C116.62 305.71 118.41 307.06 120.91 307.06C122.3 307.06 123.26 306.99 124.37 306.13L125.1 305.5C125.3 305.32 125.5 305.2 125.78 305.2C126.34 305.2 126.84 305.7 126.86 306.28C126.86 306.58 126.73 306.78 126.51 307.01C126.31 307.24 126.03 307.46 125.78 307.66C124.22 308.89 122.9 309.11 120.94 309.11C117.31 309.11 114.56 306.86 114.51 303.13C114.46 300.25 116.25 297.32 118.47 295.62C118.22 295.02 118.07 294.39 118.07 293.74C117.99 289.66 123.01 287.35 126.6 287.35C128.57 287.35 130.18 288.25 131.24 289.93C131.37 290.11 131.44 290.28 131.44 290.51C131.44 291.06 130.94 291.54 130.38 291.54L130.36 291.55ZM123.17 295.96C122.59 295.96 122.04 296.08 121.51 296.29C122.12 296.74 122.87 297.02 123.65 297.02C123.95 297.02 124.91 296.95 124.91 296.52C124.91 296.12 123.47 295.97 123.17 295.97V295.96Z" fill="#010101"/>
<path d="M132.69 306.37C132.51 306.75 131.96 307.55 131.68 308.27C131.45 308.95 131 309.12 130.62 309.12C130.07 309.12 129.56 308.67 129.59 308.14C129.62 307.49 135.11 297.77 135.77 296.57C135.97 296.19 136.35 295.87 136.78 295.87C137.34 295.87 137.64 296.37 137.69 296.9L138.8 307.24V307.42C138.82 308.02 138.27 308.4 137.72 308.4C136.58 308.4 136.71 307.17 136.64 306.37H132.71H132.69ZM133.8 304.37H136.42L135.97 300.39L133.8 304.37Z" fill="#010101"/>
<path d="M150.45 307.5C150.43 308.05 149.87 308.45 149.34 308.45C148.91 308.45 148.58 308.2 148.43 307.82L146.79 303.89H145.6L144.74 307.62C144.64 308.12 144.26 308.45 143.73 308.45C143.17 308.45 142.7 308.05 142.72 307.5L142.75 307.27L145.12 296.6C145.25 296 145.67 296.12 146.18 296.12H149.36C151.13 296.12 152.16 297.77 152.11 299.43C152.03 301.18 150.7 303.19 148.96 303.74C149.21 304.34 150.45 307.02 150.45 307.5ZM146.87 298.14L146.06 301.9H148.23C149.14 301.9 150.05 300.17 150.07 299.42C150.07 298.97 149.84 298.14 149.29 298.14H146.87Z" fill="#010101"/>
<path d="M159.32 307.57C159.22 308.07 158.82 308.42 158.31 308.42C157.75 308.42 157.28 308.02 157.28 307.44L157.33 307.21L159.32 298.12H156.6C156.12 298.12 155.74 297.74 155.77 297.24C155.77 296.61 156.22 296.11 156.85 296.11H164.49C164.99 296.11 165.22 296.54 165.22 296.99C165.22 297.54 164.84 298.12 164.26 298.12H161.38L159.31 307.56L159.32 307.57Z" fill="#010101"/>
<path d="M172.73 307.42C172.78 306.37 173.36 304.44 173.59 303.34H169.76L168.85 307.55C168.77 308.05 168.35 308.4 167.84 308.4C167.13 308.4 166.78 307.9 166.86 307.2L169.1 296.98C169.2 296.48 169.6 296.13 170.11 296.13C170.66 296.13 171.17 296.53 171.14 297.11C171.09 298.16 170.46 300.24 170.21 301.37H174.04L175 296.99C175.1 296.49 175.5 296.14 176.01 296.14C176.57 296.14 177.04 296.54 177.04 297.12C176.99 298.15 176.13 301.3 175.88 302.48L174.77 307.56C174.64 308.06 174.27 308.41 173.76 308.41C173.18 308.41 172.7 308.03 172.73 307.43V307.42Z" fill="#010101"/>
<path d="M179.68 307.22C179.68 306.37 180.31 305.69 181.14 305.69C182.05 305.69 182.4 306.42 182.4 307.24C182.4 309.17 181.06 310.62 179.42 311.5C179.27 311.55 179.09 311.63 178.92 311.63C178.39 311.63 177.96 311.13 177.96 310.65C177.96 309.97 179.85 309.27 180.36 308.27C180.01 308.04 179.68 307.62 179.68 307.22Z" fill="#010101"/>
<path d="M108.89 320.42C108.59 321.52 108.16 322.62 107.78 323.7L105.51 330.41C104.88 332.31 103.97 334.69 104 336.7C104.05 338.78 105.61 337.73 105.64 338.88C105.64 339.58 104.78 340.08 104.15 340.08C102.64 340.08 101.98 338.1 101.96 336.87C101.88 333.39 104.31 327.51 105.47 324.05L103.45 326.35C102.89 326.95 100.52 329.88 99.64 329.88C98.86 329.88 98.68 327.68 98.61 327.18L98.38 325.55C98.28 324.67 98.18 323.82 98.05 322.95C96.64 326.31 95.23 329.64 93.69 332.92C93.19 334.02 92.66 335.12 92.13 336.2C91.9 336.65 91.68 337.18 91.42 337.6C91.22 337.95 90.97 338.15 90.54 338.15C89.98 338.15 89.46 337.72 89.46 337.15C89.44 336.97 89.49 336.8 89.59 336.65C90.14 335.47 90.75 334.32 91.3 333.14C92.49 330.61 93.65 328.03 94.73 325.45L96.77 320.67C97.1 319.87 97.4 319.02 97.75 318.27C97.95 317.84 98.31 317.67 98.76 317.67C99.34 317.67 100 318.07 100 318.72V318.87C99.92 319.47 99.9 320.07 99.9 320.67C99.93 322.6 100.35 324.5 100.63 326.38L106.91 319.32C107.11 319.09 107.39 318.99 107.69 318.99C108.27 318.99 108.95 319.42 108.95 320.07C108.95 320.19 108.92 320.3 108.9 320.42H108.89Z" fill="#010101"/>
<path d="M109.7 337.59L109.75 337.36L112.05 326.87C112.18 326.37 112.58 326.04 113.08 326.04C113.63 326.04 114.11 326.44 114.09 327.02L114.06 327.22L111.74 337.71C111.64 338.21 111.24 338.56 110.73 338.56C110.17 338.56 109.7 338.13 109.7 337.58V337.59Z" fill="#010101"/>
<path d="M117.24 337.64C117.24 337.54 117.27 337.41 117.29 337.29C117.67 335.26 118.15 333.28 118.58 331.26C118.88 329.86 119.13 328.41 119.51 327.03C119.64 326.5 119.99 326.18 120.52 326.18C121.05 326.18 121.55 326.58 121.53 327.16L121.51 327.36L119.54 336.32H124.03C124.59 336.32 125.01 336.72 125.01 337.32C124.98 337.92 124.53 338.32 123.95 338.32H117.92C117.47 338.32 117.21 338.12 117.24 337.64Z" fill="#010101"/>
<path d="M136.66 337.19C136.74 337.74 136.26 338.22 135.73 338.32C135.28 338.4 134.87 338.14 134.67 337.72L132.65 332.74L131.69 333.49L130.78 337.5C130.68 338 130.28 338.33 129.77 338.33C129.21 338.33 128.74 337.95 128.74 337.35C128.79 336.3 129.34 334.57 129.6 333.47L131.01 327.01C131.11 326.53 131.51 326.18 132.02 326.18C132.57 326.18 133.08 326.58 133.05 327.13C133 328.08 132.6 329.28 132.37 330.21L136.73 326.75C136.98 326.57 137.21 326.4 137.49 326.4C138.05 326.4 138.55 326.85 138.52 327.4C138.52 327.63 138.44 327.9 138.24 328.05L134.03 331.36C134.23 332.16 136.58 336.69 136.65 337.19H136.66Z" fill="#010101"/>
<path d="M144.92 337.69C144.79 338.19 144.39 338.54 143.89 338.54C143.34 338.54 142.86 338.11 142.88 337.56C142.9 336.51 143.51 334.5 143.76 333.43C143.51 332.58 142.02 327.67 142.04 327.15C142.07 326.6 142.59 326.17 143.15 326.17C143.6 326.17 143.93 326.47 144.06 326.9L145.25 331.11L148.5 326.65C148.68 326.35 149 326.17 149.33 326.17C149.86 326.17 150.39 326.62 150.36 327.17C150.33 327.9 146.4 332.9 145.74 333.81L144.91 337.69H144.92Z" fill="#010101"/>
<path d="M187.25 321.19C186.82 322.04 186.19 322.99 185.71 323.87C184.7 325.65 183.77 327.45 182.86 329.3L179.56 335.94L178.6 337.84C178.5 338.07 178.4 338.34 178.27 338.54C178.07 338.97 177.77 339.14 177.29 339.14C176.68 339.14 176.08 338.76 176.08 338.11V338.01C176.08 336.56 176.33 335.13 176.38 333.7C176.46 332.2 176.48 330.67 176.51 329.17C175.7 330.75 174.82 332.27 173.79 333.7C173.06 334.7 172.25 335.68 171.47 336.63C171.04 337.16 170.61 338.08 169.86 338.08C169.11 338.08 168.52 337.68 168.5 336.9C168.47 335.67 169.21 334.6 169.61 333.49C170.27 331.66 170.59 328.03 170.54 326.1C170.51 324.22 170.26 320.64 167.66 320.64H167.58C167.4 320.97 167.1 321.17 166.72 321.17C166.16 321.17 165.61 320.74 165.61 320.17C165.58 319.14 166.85 318.59 167.73 318.59C168.56 318.59 169.57 318.92 170.23 319.47C172.12 321.07 172.68 323.75 172.7 326.08C172.75 328.46 172.32 330.86 171.72 333.14C172.02 332.79 172.27 332.41 172.53 332.04C173.59 330.34 174.6 328.56 175.46 326.73C175.81 325.98 176.09 325.2 176.44 324.48C176.64 324.05 176.97 323.85 177.45 323.85C178.05 323.85 178.76 324.28 178.76 324.95V325.03C178.76 326.06 178.66 327.08 178.63 328.11C178.55 329.89 178.53 331.64 178.48 333.42C179.99 330.39 181.51 327.36 183.12 324.38C183.65 323.38 184.18 322.38 184.73 321.4C184.96 320.97 185.18 320.52 185.46 320.12C185.66 319.82 185.91 319.59 186.29 319.59C186.84 319.59 187.4 320.04 187.4 320.62C187.4 320.82 187.35 320.97 187.25 321.17V321.19Z" fill="#010101"/>
<path d="M187.47 336.42C187.29 336.8 186.74 337.6 186.46 338.32C186.23 339 185.78 339.17 185.4 339.17C184.85 339.17 184.34 338.72 184.37 338.19C184.4 337.54 189.89 327.82 190.55 326.62C190.75 326.24 191.13 325.92 191.56 325.92C192.12 325.92 192.42 326.42 192.47 326.95L193.58 337.29V337.47C193.6 338.07 193.05 338.45 192.5 338.45C191.36 338.45 191.49 337.22 191.42 336.42H187.49H187.47ZM188.58 334.42H191.2L190.75 330.44L188.58 334.42Z" fill="#010101"/>
<path d="M201.23 337.69C201.1 338.19 200.7 338.54 200.2 338.54C199.64 338.54 199.17 338.11 199.19 337.56C199.21 336.51 199.82 334.5 200.07 333.43C199.82 332.58 198.33 327.67 198.35 327.15C198.38 326.6 198.9 326.17 199.46 326.17C199.91 326.17 200.24 326.47 200.37 326.9L201.56 331.11L204.81 326.65C204.99 326.35 205.31 326.17 205.64 326.17C206.17 326.17 206.7 326.62 206.67 327.17C206.64 327.9 202.71 332.9 202.05 333.81L201.22 337.69H201.23Z" fill="#010101"/>
<path d="M127.95 354.02C127.8 354.47 127.5 354.75 126.99 354.75C126.44 354.75 125.93 354.35 125.91 353.77C125.91 353.65 125.94 353.54 125.96 353.42C126.09 352.92 126.19 352.39 126.19 351.87C126.17 350.12 124.95 349.37 123.31 349.37C123.16 349.37 123.01 349.37 122.86 349.39C117.74 349.94 112.11 358.33 112.19 363.21C112.24 365.46 113.6 367.42 116.05 367.42C117.19 367.42 118.32 366.99 119.28 366.42C121.2 365.32 121.9 364.24 122.58 362.19C122.73 361.76 122.86 361.34 122.83 360.86C122.8 359.73 122 359.01 120.86 359.01C119.93 359.01 118.94 359.56 118.89 360.56C119.12 360.81 119.55 360.89 119.9 360.89H120.08C120.26 360.71 120.51 360.56 120.79 360.56C121.37 360.56 121.75 361.19 121.75 361.71C121.77 362.66 120.82 362.96 120.03 362.96C118.47 362.96 116.85 362.21 116.83 360.48C116.78 358.35 118.95 356.87 120.94 356.87C123.26 356.87 124.8 358.85 124.85 361.03C124.85 361.68 124.75 362.31 124.55 362.91C123.67 365.41 122.68 366.84 120.34 368.19C119.03 368.97 117.51 369.52 115.98 369.52C112.27 369.52 110.33 366.39 110.28 363.03C110.26 361.73 110.48 360.4 110.91 359.17C111.49 357.47 112.2 355.81 113.15 354.29C115.27 350.86 119.1 347.33 123.44 347.33C126.19 347.33 128.21 348.93 128.26 351.79C128.29 352.52 128.18 353.32 127.96 354.02H127.95Z" fill="#010101"/>
<path d="M130.38 366.46C130.2 366.84 129.65 367.64 129.37 368.36C129.14 369.04 128.69 369.21 128.31 369.21C127.76 369.21 127.25 368.76 127.28 368.23C127.31 367.58 132.8 357.86 133.46 356.66C133.66 356.28 134.04 355.96 134.47 355.96C135.03 355.96 135.33 356.46 135.38 356.99L136.49 367.33V367.51C136.51 368.11 135.96 368.49 135.41 368.49C134.27 368.49 134.4 367.26 134.33 366.46H130.4H130.38ZM131.49 364.46H134.11L133.66 360.48L131.49 364.46Z" fill="#010101"/>
<path d="M140.72 367.69C140.72 367.59 140.75 367.46 140.77 367.34C141.15 365.31 141.63 363.33 142.06 361.31C142.36 359.91 142.61 358.46 142.99 357.08C143.12 356.55 143.47 356.23 144 356.23C144.53 356.23 145.03 356.63 145.01 357.21L144.99 357.41L143.02 366.37H147.51C148.07 366.37 148.49 366.77 148.49 367.37C148.46 367.97 148.01 368.37 147.43 368.37H141.4C140.95 368.37 140.69 368.17 140.72 367.69Z" fill="#010101"/>
<path d="M155.04 366.46C154.86 366.84 154.31 367.64 154.03 368.36C153.8 369.04 153.35 369.21 152.97 369.21C152.42 369.21 151.91 368.76 151.94 368.23C151.97 367.58 157.46 357.86 158.12 356.66C158.32 356.28 158.7 355.96 159.13 355.96C159.69 355.96 159.99 356.46 160.04 356.99L161.15 367.33V367.51C161.17 368.11 160.62 368.49 160.07 368.49C158.93 368.49 159.06 367.26 158.99 366.46H155.06H155.04ZM156.15 364.46H158.77L158.32 360.48L156.15 364.46Z" fill="#010101"/>
<path d="M173.16 367.39C173.13 367.97 172.61 368.37 172.08 368.37C171.65 368.37 171.32 368.12 171.17 367.74L169.73 364.21L166.55 367.99C166.37 368.22 166.07 368.39 165.77 368.39C165.21 368.39 164.71 367.91 164.74 367.36C164.74 367.16 164.84 366.93 164.99 366.73L168.9 362.07C168.6 361.32 167.01 357.79 167.03 357.19C167.05 356.64 167.61 356.21 168.14 356.21C168.54 356.21 168.87 356.46 169.02 356.84L170.41 360.3L173.54 356.62C173.72 356.37 174.02 356.22 174.32 356.22C174.88 356.22 175.38 356.7 175.35 357.22C175.35 357.45 175.22 357.65 175.07 357.85L171.24 362.41C171.57 363.16 173.18 366.82 173.16 367.39Z" fill="#010101"/>
<path d="M181.97 367.74C181.84 368.24 181.44 368.59 180.94 368.59C180.38 368.59 179.91 368.16 179.93 367.61C179.95 366.56 180.56 364.55 180.81 363.48C180.56 362.63 179.07 357.72 179.09 357.2C179.12 356.65 179.64 356.22 180.2 356.22C180.65 356.22 180.98 356.52 181.11 356.95L182.3 361.16L185.55 356.7C185.73 356.4 186.05 356.22 186.38 356.22C186.91 356.22 187.44 356.67 187.41 357.22C187.38 357.95 183.45 362.95 182.79 363.86L181.96 367.74H181.97Z" fill="#010101"/>
<path d="M98.04 49.76C97.25 50.6 95.21 52.17 94.27 52.91C88.66 57.49 82.41 61.33 76.41 65.42C82.61 67.39 85.69 74.09 85.79 80.09C85.79 80.53 85.79 81.03 85.74 81.47C85.69 82.5 85.44 83.59 85.29 84.62C84.89 86.98 84.45 89.45 84.5 91.86C84.55 93.88 84.95 96.78 87.58 96.78C87.73 96.24 88.22 95.8 89.27 95.8C90.32 95.8 90.71 96.69 90.71 97.72C90.71 99.89 88.87 100.92 87.39 100.92C86.25 100.92 85.11 100.48 84.12 99.89C81.29 98.22 80.6 95.26 80.55 92.26C80.45 87.83 81.74 83.5 81.64 79.11C81.54 73.3 77.77 68.82 71.77 68.62C70.58 71.87 69.49 75.17 68.4 78.47L67.21 82.11C67.11 82.55 66.96 83.09 66.76 83.54C66.36 84.38 65.92 84.92 64.92 84.92C63.83 84.92 62.79 84.13 62.79 83C62.74 81.82 68.25 66.16 68.94 64.29C70.38 60.35 71.82 56.51 73.35 52.67L74.74 49.17C74.94 48.63 75.14 48.04 75.39 47.55C75.79 46.81 76.18 46.27 77.13 46.27C78.27 46.27 79.31 47.16 79.31 48.29C79.31 48.59 79.26 48.83 79.16 49.13C78.66 50.61 77.92 52.13 77.37 53.56C76.23 56.42 75.19 59.22 74.15 62.03C77.42 59.81 80.7 57.65 84.02 55.48C86.7 53.76 89.23 51.84 91.71 49.82C92.9 48.84 94.04 47.65 95.28 46.72C95.73 46.38 96.07 46.18 96.62 46.18C97.71 46.18 98.75 47.21 98.75 48.3C98.75 48.99 98.5 49.28 98.06 49.78L98.04 49.76Z" fill="#010101"/>
<path d="M104.68 83.29C104.78 81.22 105.92 77.43 106.37 75.26H98.83L97.04 83.53C96.89 84.51 96.05 85.2 95.06 85.2C93.67 85.2 92.98 84.22 93.13 82.84L97.55 62.75C97.75 61.77 98.54 61.08 99.53 61.08C100.62 61.08 101.61 61.87 101.56 63C101.46 65.07 100.22 69.15 99.72 71.37H107.26L109.15 62.75C109.35 61.77 110.14 61.08 111.13 61.08C112.22 61.08 113.16 61.87 113.16 63C113.06 65.02 111.37 71.22 110.88 73.54L108.7 83.54C108.45 84.52 107.71 85.21 106.72 85.21C105.58 85.21 104.64 84.47 104.69 83.29H104.68Z" fill="#010101"/>
<path d="M134.25 83.44C134.2 84.52 133.11 85.31 132.07 85.31C131.23 85.31 130.58 84.82 130.28 84.08L127.06 76.35H124.73L123.04 83.69C122.84 84.67 122.1 85.31 121.06 85.31C120.02 85.31 119.03 84.52 119.08 83.44L119.13 83L123.79 62.02C124.04 60.84 124.88 61.08 125.87 61.08H132.12C135.59 61.08 137.63 64.33 137.53 67.58C137.38 71.03 134.75 74.97 131.33 76.05C131.83 77.23 134.26 82.5 134.26 83.44H134.25ZM127.21 65.02L125.62 72.41H129.89C131.68 72.41 133.46 69.01 133.51 67.53C133.51 66.64 133.06 65.02 131.97 65.02H127.21Z" fill="#010101"/>
<path d="M143.65 83.54L143.75 83.1L148.26 62.47C148.51 61.49 149.3 60.85 150.29 60.85C151.38 60.85 152.32 61.64 152.27 62.77L152.22 63.16L147.66 83.79C147.46 84.77 146.67 85.46 145.68 85.46C144.59 85.46 143.65 84.62 143.65 83.54Z" fill="#010101"/>
<path d="M168.62 64.48C166.44 64.48 164.06 66.06 164.01 68.52C163.86 71.97 173.24 69.75 172.99 76.6C172.84 81.77 168.72 85.61 163.66 85.61C161.73 85.61 157.21 84.23 157.31 81.72C157.36 80.64 158.4 79.7 159.44 79.7C160.93 79.7 161.18 81.57 163.81 81.57C165.94 81.57 168.87 79.5 168.92 77.09C169.07 73.64 159.59 75.47 159.84 68.77C160.04 63.9 164.06 60.4 168.77 60.4C171.1 60.4 175.12 62.02 175.02 64.88C174.97 66.01 173.88 66.9 172.79 66.9C170.66 66.9 171.65 64.49 168.62 64.49V64.48Z" fill="#010101"/>
<path d="M188.98 83.59C188.78 84.57 187.99 85.26 187 85.26C185.91 85.26 184.97 84.47 184.97 83.34L185.07 82.9L188.99 65.03H183.63C182.69 65.03 181.94 64.29 181.99 63.31C181.99 62.08 182.88 61.09 184.12 61.09H199.15C200.14 61.09 200.59 61.93 200.59 62.81C200.59 63.89 199.85 65.03 198.71 65.03H193.05L188.98 83.59Z" fill="#010101"/>
<path d="M203.71 83.54L203.81 83.1L208.32 62.47C208.57 61.49 209.36 60.85 210.35 60.85C211.44 60.85 212.38 61.64 212.33 62.77L212.28 63.16L207.72 83.79C207.52 84.77 206.73 85.46 205.74 85.46C204.65 85.46 203.71 84.62 203.71 83.54Z" fill="#010101"/>
<path d="M230.52 83.1C228.63 78.67 227.05 74.04 225.31 69.51L222.23 83.4C222.03 84.38 221.29 84.98 220.25 84.98C219.21 84.98 218.22 84.24 218.27 83.11L218.32 82.67L222.74 62.78C222.99 61.7 224.13 61.11 225.07 61.11C225.81 61.11 226.66 61.8 226.96 62.39C227.51 63.47 227.9 64.9 228.3 66.13C229.59 69.63 230.83 73.22 231.97 76.82L235.09 62.79C235.34 61.81 236.08 61.12 237.07 61.12C238.21 61.12 239.15 61.91 239.1 63.04L239.05 63.48L234.54 83.62C234.44 84.31 233.55 85.29 232.8 85.29C231.51 85.29 230.96 84.16 230.52 83.12V83.1Z" fill="#010101"/>
<path d="M109.63 110.48C106.9 110.48 108.74 107.33 104.82 107.33C104.57 107.33 104.37 107.33 104.13 107.38C97.14 108.36 97.38 119.54 96.84 124.91C96.1 132.64 94.76 143.37 86.87 147.17C85.23 147.96 83.5 148.3 81.66 148.55H80.92C77 148.55 73.38 145.79 73.28 141.71C73.28 140.53 74.12 139.69 75.26 139.69C76.4 139.69 77.34 140.53 77.34 141.71C77.39 143.73 78.83 144.47 80.66 144.47C82 144.47 83.74 144.08 84.98 143.58C86.17 143.09 87.06 142.45 87.91 141.51C91.98 136.93 92.62 126.44 93.22 120.48C93.47 117.77 93.67 114.96 94.41 112.31C95.7 107.53 99.27 103.25 104.63 103.25C107.8 103.25 110.88 104.87 111.67 108.12C111.67 108.27 111.72 108.42 111.72 108.51C111.72 109.69 110.78 110.48 109.64 110.48H109.63Z" fill="#010101"/>
<path d="M117.63 123.87C112.42 123.87 109.1 130.22 109 134.7C108.85 137.6 110.04 140.46 113.37 140.46C117.14 140.46 119.47 137.51 120.71 137.51C121.8 137.51 122.74 138.45 122.69 139.53C122.59 142.34 115.45 144.41 113.21 144.41C107.7 144.41 104.68 139.53 104.83 134.46C105.08 127.91 110.58 119.93 117.78 119.93C120.06 119.93 125.82 121.8 125.72 124.66C125.67 125.74 124.63 126.68 123.54 126.68C121.9 126.68 121.36 123.87 117.64 123.87H117.63Z" fill="#010101"/>
<path d="M141.96 142.38C142.06 140.31 143.2 136.52 143.65 134.35H136.11L134.32 142.62C134.17 143.6 133.33 144.29 132.34 144.29C130.95 144.29 130.26 143.31 130.41 141.93L134.83 121.84C135.03 120.86 135.82 120.17 136.81 120.17C137.9 120.17 138.89 120.96 138.84 122.09C138.74 124.16 137.5 128.24 137 130.46H144.54L146.43 121.84C146.63 120.86 147.42 120.17 148.41 120.17C149.5 120.17 150.44 120.96 150.44 122.09C150.34 124.11 148.65 130.31 148.16 132.63L145.98 142.63C145.73 143.61 144.99 144.3 144 144.3C142.86 144.3 141.92 143.56 141.97 142.38H141.96Z" fill="#010101"/>
<path d="M163.09 130.67H170.08C171.27 130.67 172.11 131.46 172.06 132.64C172.01 133.77 171.12 134.61 169.93 134.61H162.19L161 140.12H169.68C170.82 140.12 171.61 140.91 171.61 142.09C171.61 143.27 170.67 144.06 169.53 144.06H158.42C157.48 144.06 156.29 143.67 156.34 142.63L156.39 142.29C156.74 139.24 157.73 136.09 158.42 133.08C159.26 129.34 159.91 125.5 160.9 121.85C161.15 121.01 162.09 120.18 162.98 120.18H173.94C175.08 120.18 175.92 121.02 175.87 122.15C175.82 123.33 174.98 124.12 173.79 124.12H164.46L163.07 130.67H163.09Z" fill="#010101"/>
<path d="M192.73 142.19C190.84 137.76 189.26 133.13 187.52 128.6L184.44 142.49C184.24 143.47 183.5 144.07 182.46 144.07C181.42 144.07 180.43 143.33 180.48 142.2L180.53 141.76L184.95 121.87C185.2 120.79 186.34 120.2 187.28 120.2C188.02 120.2 188.87 120.89 189.17 121.48C189.72 122.56 190.11 123.99 190.51 125.22C191.8 128.72 193.04 132.31 194.18 135.91L197.3 121.88C197.55 120.9 198.29 120.21 199.28 120.21C200.42 120.21 201.36 121 201.31 122.13L201.26 122.57L196.75 142.71C196.65 143.4 195.76 144.38 195.01 144.38C193.72 144.38 193.17 143.25 192.73 142.21V142.19Z" fill="#010101"/>
<path d="M222.7 141.84C222.85 142.92 221.91 143.86 220.86 144.06C219.97 144.21 219.17 143.72 218.78 142.88L214.81 133.08L212.93 134.56L211.14 142.44C210.94 143.42 210.15 144.06 209.16 144.06C208.07 144.06 207.13 143.32 207.13 142.14C207.23 140.07 208.32 136.67 208.82 134.51L211.6 121.81C211.8 120.87 212.59 120.19 213.58 120.19C214.67 120.19 215.66 120.98 215.61 122.06C215.51 123.93 214.72 126.29 214.27 128.12L222.85 121.32C223.35 120.98 223.79 120.63 224.34 120.63C225.43 120.63 226.42 121.52 226.37 122.6C226.37 123.04 226.22 123.58 225.82 123.88L217.54 130.38C217.94 131.96 222.55 140.87 222.7 141.85V141.84Z" fill="#010101"/>
</svg>
