<svg width="212" height="213" viewBox="0 0 212 213" fill="none" xmlns="http://www.w3.org/2000/svg">
<path d="M210.45 106.63C210.45 164.289 163.709 211.03 106.05 211.03C48.3915 211.03 1.65002 164.289 1.65002 106.63C1.65002 48.9715 48.3915 2.23001 106.05 2.23001C163.709 2.23001 210.45 48.9715 210.45 106.63Z" fill="#F098C1" stroke="#E51E25" stroke-width="3" stroke-miterlimit="10"/>
<path fill-rule="evenodd" clip-rule="evenodd" d="M59.49 136.8C59.05 136.4 58.61 135.99 58.19 135.57C51.98 129.36 48.13 120.81 48.13 111.4V96.37C48.13 93.26 49.4 90.44 51.45 88.39C53.5 86.34 56.33 85.07 59.43 85.07C62.53 85.07 65.36 86.34 67.41 88.39C69.46 90.44 70.73 93.27 70.73 96.37V112.15C70.73 122.38 67.4 129.87 59.47 136.8H59.49ZM33.01 145.43C32.78 145.39 32.55 145.37 32.31 145.37C30.12 145.37 28.34 147.15 28.34 149.34C28.34 151.53 30.09 153.29 32.27 153.31C34.95 153.55 37.59 153.54 40.19 153.31C42.91 153.06 45.57 152.55 48.14 151.81C52.14 150.66 55.94 148.94 59.41 146.73C62.88 148.99 66.69 150.76 70.76 151.93C73.32 152.67 75.98 153.17 78.71 153.41C79.92 153.52 81.14 153.57 82.38 153.57C91.14 153.57 99.31 150.86 106.07 146.25C112.83 150.87 120.99 153.57 129.76 153.57C131 153.57 132.22 153.52 133.43 153.41C136.16 153.17 138.82 152.67 141.38 151.93C145.44 150.76 149.26 148.99 152.73 146.73C160.56 151.7 170.01 154.2 179.86 153.31C182.04 153.29 183.79 151.52 183.79 149.34C183.79 147.16 182.01 145.37 179.82 145.37C179.58 145.37 179.35 145.39 179.12 145.43C172.05 146.05 165.22 144.55 159.33 141.41C159.41 141.34 159.48 141.26 159.56 141.18C161.18 139.56 162.66 137.82 164 135.96C169 129.03 171.95 120.54 171.95 111.39V96.36C171.95 91.06 169.78 86.25 166.3 82.76C165.53 81.99 164.69 81.28 163.8 80.65C160.66 78.42 156.82 77.11 152.7 77.11C147.4 77.11 142.59 79.28 139.1 82.76C135.61 86.25 133.45 91.06 133.45 96.36V113.54C133.45 122.43 135.98 128.96 141.4 136.19C142.82 138.08 144.38 139.85 146.06 141.47C144.57 142.28 143.01 142.99 141.4 143.57C138.87 144.49 136.21 145.12 133.45 145.42C132.24 145.55 131.02 145.62 129.78 145.62C123.48 145.62 117.57 143.89 112.48 140.89C119.96 133.27 124.58 122.84 124.58 111.39V84.39C124.45 51.77 87.79 51.13 87.6 84.39V111.39C87.6 122.85 92.23 133.27 99.7 140.89C94.62 143.89 88.7 145.62 82.4 145.62C81.16 145.62 79.94 145.55 78.73 145.42C75.97 145.12 73.31 144.49 70.78 143.57C69.17 142.99 67.62 142.28 66.14 141.48H66.13C67.81 139.86 69.37 138.11 70.78 136.23C76.74 128.32 78.73 122.16 78.73 112.59V96.36C78.73 91.06 76.56 86.25 73.08 82.76C69.59 79.27 64.78 77.11 59.48 77.11C55.35 77.11 51.52 78.42 48.38 80.65C47.49 81.28 46.65 81.99 45.88 82.76C42.39 86.25 40.23 91.06 40.23 96.36V111.39C40.23 120.54 43.18 129.03 48.18 135.96C49.52 137.82 51 139.56 52.62 141.18C52.7 141.26 52.77 141.33 52.85 141.41C51.35 142.21 49.79 142.9 48.18 143.48C45.64 144.39 42.98 145.03 40.23 145.34C37.89 145.61 35.49 145.65 33.06 145.43H33.01ZM116.6 84.39V111.39C116.6 120.8 112.75 129.36 106.54 135.56C106.38 135.72 106.22 135.88 106.05 136.04C105.89 135.88 105.72 135.72 105.56 135.56C99.35 129.35 95.5 120.8 95.5 111.39V84.39C95.5 60.31 116.34 59.8 116.59 84.39H116.6ZM144.68 88.38C146.73 86.33 149.56 85.06 152.66 85.06C155.76 85.06 158.59 86.33 160.64 88.38C162.69 90.43 163.96 93.26 163.96 96.36V111.39C163.96 120.8 160.11 129.36 153.9 135.56C153.48 135.98 153.05 136.39 152.6 136.79C145.55 130.64 141.34 122.82 141.34 113.48V96.36C141.34 93.25 142.61 90.43 144.66 88.38H144.68ZM65.32 141.04C65.21 140.98 65.11 140.92 65 140.85C65.11 140.91 65.21 140.98 65.32 141.04Z" fill="#E51E25"/>
</svg>
